<?xml version="1.0" encoding="utf-8" standalone="no"?>
<!DOCTYPE svg PUBLIC "-//W3C//DTD SVG 1.1//EN"
  "http://www.w3.org/Graphics/SVG/1.1/DTD/svg11.dtd">
<svg xmlns:xlink="http://www.w3.org/1999/xlink" width="845.444687pt" height="384.66pt" viewBox="0 0 845.444687 384.66" xmlns="http://www.w3.org/2000/svg" version="1.1">
 <metadata>
  <rdf:RDF xmlns:dc="http://purl.org/dc/elements/1.1/" xmlns:cc="http://creativecommons.org/ns#" xmlns:rdf="http://www.w3.org/1999/02/22-rdf-syntax-ns#">
   <cc:Work>
    <dc:type rdf:resource="http://purl.org/dc/dcmitype/StillImage"/>
    <dc:date>2026-05-24T15:39:32.693709</dc:date>
    <dc:format>image/svg+xml</dc:format>
    <dc:creator>
     <cc:Agent>
      <dc:title>Matplotlib v3.10.9, https://matplotlib.org/</dc:title>
     </cc:Agent>
    </dc:creator>
   </cc:Work>
  </rdf:RDF>
 </metadata>
 <defs>
  <style type="text/css">*{stroke-linejoin: round; stroke-linecap: butt}</style>
 </defs>
 <g id="figure_1">
  <g id="patch_1">
   <path d="M 0 384.66 
L 845.444688 384.66 
L 845.444688 0 
L 0 0 
z
" style="fill: #faf7f2"/>
  </g>
  <g id="axes_1">
   <g id="patch_2">
    <path d="M 134.444687 335.88 
L 838.244687 335.88 
L 838.244687 70.56 
L 134.444687 70.56 
z
" style="fill: #faf7f2"/>
   </g>
   <g id="matplotlib.axis_1">
    <g id="xtick_1">
     <g id="line2d_1">
      <path d="M 134.444687 335.88 
L 134.444687 70.56 
" clip-path="url(#pf6c5a0bc61)" style="fill: none; stroke: #d8d4cc; stroke-width: 0.8; stroke-linecap: square"/>
     </g>
     <g id="line2d_2">
      <defs>
       <path id="m1589316d2e" d="M 0 0 
L 0 3.5 
" style="stroke: #4b5563; stroke-width: 0.8"/>
      </defs>
      <g>
       <use xlink:href="#m1589316d2e" x="134.444687" y="335.88" style="fill: #4b5563; stroke: #4b5563; stroke-width: 0.8"/>
      </g>
     </g>
     <g id="text_1">
      <!-- 0.0 -->
      <g style="fill: #4b5563" transform="translate(127.495469 352.520625) scale(0.1 -0.1)">
       <defs>
        <path id="HelveticaNeue-30" d="M 845 2234 
Q 845 2400 848 2601 
Q 851 2803 880 3004 
Q 909 3206 963 3398 
Q 1018 3590 1123 3734 
Q 1229 3878 1389 3968 
Q 1549 4058 1779 4058 
Q 2010 4058 2170 3968 
Q 2330 3878 2435 3734 
Q 2541 3590 2595 3398 
Q 2650 3206 2678 3004 
Q 2707 2803 2710 2601 
Q 2714 2400 2714 2234 
Q 2714 1978 2698 1661 
Q 2682 1344 2595 1065 
Q 2509 787 2317 595 
Q 2125 403 1779 403 
Q 1434 403 1242 595 
Q 1050 787 963 1065 
Q 877 1344 861 1661 
Q 845 1978 845 2234 
z
M 269 2227 
Q 269 1978 281 1709 
Q 294 1440 345 1184 
Q 397 928 493 701 
Q 589 474 755 301 
Q 922 128 1174 29 
Q 1427 -70 1779 -70 
Q 2138 -70 2387 29 
Q 2637 128 2803 301 
Q 2970 474 3066 701 
Q 3162 928 3213 1184 
Q 3264 1440 3277 1709 
Q 3290 1978 3290 2227 
Q 3290 2477 3277 2745 
Q 3264 3014 3213 3270 
Q 3162 3526 3066 3756 
Q 2970 3987 2803 4160 
Q 2637 4333 2384 4435 
Q 2131 4538 1779 4538 
Q 1427 4538 1174 4435 
Q 922 4333 755 4160 
Q 589 3987 493 3756 
Q 397 3526 345 3270 
Q 294 3014 281 2745 
Q 269 2477 269 2227 
z
" transform="scale(0.015625)"/>
        <path id="HelveticaNeue-2e" d="M 531 710 
L 531 0 
L 1242 0 
L 1242 710 
L 531 710 
z
" transform="scale(0.015625)"/>
       </defs>
       <use xlink:href="#HelveticaNeue-30"/>
       <use xlink:href="#HelveticaNeue-2e" transform="translate(55.599991 0)"/>
       <use xlink:href="#HelveticaNeue-30" transform="translate(83.399979 0)"/>
      </g>
     </g>
    </g>
    <g id="xtick_2">
     <g id="line2d_3">
      <path d="M 214.240606 335.88 
L 214.240606 70.56 
" clip-path="url(#pf6c5a0bc61)" style="fill: none; stroke: #d8d4cc; stroke-width: 0.8; stroke-linecap: square"/>
     </g>
     <g id="line2d_4">
      <g>
       <use xlink:href="#m1589316d2e" x="214.240606" y="335.88" style="fill: #4b5563; stroke: #4b5563; stroke-width: 0.8"/>
      </g>
     </g>
     <g id="text_2">
      <!-- 0.1 -->
      <g style="fill: #4b5563" transform="translate(207.291387 352.520625) scale(0.1 -0.1)">
       <defs>
        <path id="HelveticaNeue-31" d="M 2278 0 
L 2278 4538 
L 1862 4538 
Q 1818 4282 1696 4115 
Q 1574 3949 1398 3853 
Q 1222 3757 1004 3721 
Q 787 3686 557 3686 
L 557 3251 
L 1734 3251 
L 1734 0 
L 2278 0 
z
" transform="scale(0.015625)"/>
       </defs>
       <use xlink:href="#HelveticaNeue-30"/>
       <use xlink:href="#HelveticaNeue-2e" transform="translate(55.599991 0)"/>
       <use xlink:href="#HelveticaNeue-31" transform="translate(83.399979 0)"/>
      </g>
     </g>
    </g>
    <g id="xtick_3">
     <g id="line2d_5">
      <path d="M 294.036524 335.88 
L 294.036524 70.56 
" clip-path="url(#pf6c5a0bc61)" style="fill: none; stroke: #d8d4cc; stroke-width: 0.8; stroke-linecap: square"/>
     </g>
     <g id="line2d_6">
      <g>
       <use xlink:href="#m1589316d2e" x="294.036524" y="335.88" style="fill: #4b5563; stroke: #4b5563; stroke-width: 0.8"/>
      </g>
     </g>
     <g id="text_3">
      <!-- 0.2 -->
      <g style="fill: #4b5563" transform="translate(287.087305 352.520625) scale(0.1 -0.1)">
       <defs>
        <path id="HelveticaNeue-32" d="M 282 2931 
L 826 2931 
Q 819 3136 867 3337 
Q 915 3539 1024 3699 
Q 1133 3859 1302 3958 
Q 1472 4058 1709 4058 
Q 1888 4058 2048 4000 
Q 2208 3942 2326 3833 
Q 2445 3725 2515 3574 
Q 2586 3424 2586 3238 
Q 2586 3002 2512 2822 
Q 2438 2643 2294 2489 
Q 2150 2336 1932 2185 
Q 1715 2035 1427 1856 
Q 1190 1715 972 1555 
Q 755 1395 582 1184 
Q 410 973 298 688 
Q 186 403 154 0 
L 3117 0 
L 3117 480 
L 787 480 
Q 826 691 950 854 
Q 1075 1018 1251 1158 
Q 1427 1299 1638 1424 
Q 1850 1549 2061 1677 
Q 2272 1811 2470 1958 
Q 2669 2106 2822 2288 
Q 2976 2470 3069 2700 
Q 3162 2931 3162 3232 
Q 3162 3552 3050 3795 
Q 2938 4038 2746 4201 
Q 2554 4365 2294 4451 
Q 2035 4538 1741 4538 
Q 1382 4538 1100 4416 
Q 819 4294 630 4080 
Q 442 3866 352 3571 
Q 262 3277 282 2931 
z
" transform="scale(0.015625)"/>
       </defs>
       <use xlink:href="#HelveticaNeue-30"/>
       <use xlink:href="#HelveticaNeue-2e" transform="translate(55.599991 0)"/>
       <use xlink:href="#HelveticaNeue-32" transform="translate(83.399979 0)"/>
      </g>
     </g>
    </g>
    <g id="xtick_4">
     <g id="line2d_7">
      <path d="M 373.832443 335.88 
L 373.832443 70.56 
" clip-path="url(#pf6c5a0bc61)" style="fill: none; stroke: #d8d4cc; stroke-width: 0.8; stroke-linecap: square"/>
     </g>
     <g id="line2d_8">
      <g>
       <use xlink:href="#m1589316d2e" x="373.832443" y="335.88" style="fill: #4b5563; stroke: #4b5563; stroke-width: 0.8"/>
      </g>
     </g>
     <g id="text_4">
      <!-- 0.3 -->
      <g style="fill: #4b5563" transform="translate(366.883224 352.520625) scale(0.1 -0.1)">
       <defs>
        <path id="HelveticaNeue-33" d="M 1395 2592 
L 1395 2131 
Q 1549 2150 1722 2150 
Q 1926 2150 2102 2096 
Q 2278 2042 2406 1930 
Q 2534 1818 2611 1654 
Q 2688 1491 2688 1280 
Q 2688 1075 2608 912 
Q 2528 749 2393 637 
Q 2259 525 2080 464 
Q 1901 403 1702 403 
Q 1235 403 992 681 
Q 749 960 736 1402 
L 192 1402 
Q 186 1050 291 774 
Q 397 499 595 310 
Q 794 122 1075 26 
Q 1357 -70 1702 -70 
Q 2022 -70 2307 16 
Q 2592 102 2803 275 
Q 3014 448 3139 707 
Q 3264 966 3264 1306 
Q 3264 1715 3062 2016 
Q 2861 2317 2445 2406 
L 2445 2419 
Q 2714 2541 2893 2777 
Q 3072 3014 3072 3322 
Q 3072 3635 2966 3865 
Q 2861 4096 2675 4243 
Q 2490 4390 2237 4464 
Q 1984 4538 1690 4538 
Q 1350 4538 1091 4429 
Q 832 4320 659 4128 
Q 486 3936 393 3667 
Q 301 3398 288 3072 
L 832 3072 
Q 832 3270 883 3449 
Q 934 3629 1040 3763 
Q 1146 3898 1309 3978 
Q 1472 4058 1690 4058 
Q 2035 4058 2265 3875 
Q 2496 3693 2496 3328 
Q 2496 3149 2425 3008 
Q 2355 2867 2236 2774 
Q 2118 2682 1961 2634 
Q 1805 2586 1632 2586 
L 1517 2586 
Q 1485 2586 1453 2586 
Q 1427 2586 1395 2592 
z
" transform="scale(0.015625)"/>
       </defs>
       <use xlink:href="#HelveticaNeue-30"/>
       <use xlink:href="#HelveticaNeue-2e" transform="translate(55.599991 0)"/>
       <use xlink:href="#HelveticaNeue-33" transform="translate(83.399979 0)"/>
      </g>
     </g>
    </g>
    <g id="xtick_5">
     <g id="line2d_9">
      <path d="M 453.628361 335.88 
L 453.628361 70.56 
" clip-path="url(#pf6c5a0bc61)" style="fill: none; stroke: #d8d4cc; stroke-width: 0.8; stroke-linecap: square"/>
     </g>
     <g id="line2d_10">
      <g>
       <use xlink:href="#m1589316d2e" x="453.628361" y="335.88" style="fill: #4b5563; stroke: #4b5563; stroke-width: 0.8"/>
      </g>
     </g>
     <g id="text_5">
      <!-- 0.4 -->
      <g style="fill: #4b5563" transform="translate(446.679142 352.520625) scale(0.1 -0.1)">
       <defs>
        <path id="HelveticaNeue-34" d="M 2170 1542 
L 646 1542 
L 2157 3763 
L 2170 3763 
L 2170 1542 
z
M 2682 1542 
L 2682 4538 
L 2246 4538 
L 179 1587 
L 179 1062 
L 2170 1062 
L 2170 0 
L 2682 0 
L 2682 1062 
L 3296 1062 
L 3296 1542 
L 2682 1542 
z
" transform="scale(0.015625)"/>
       </defs>
       <use xlink:href="#HelveticaNeue-30"/>
       <use xlink:href="#HelveticaNeue-2e" transform="translate(55.599991 0)"/>
       <use xlink:href="#HelveticaNeue-34" transform="translate(83.399979 0)"/>
      </g>
     </g>
    </g>
    <g id="xtick_6">
     <g id="line2d_11">
      <path d="M 533.424279 335.88 
L 533.424279 70.56 
" clip-path="url(#pf6c5a0bc61)" style="fill: none; stroke: #d8d4cc; stroke-width: 0.8; stroke-linecap: square"/>
     </g>
     <g id="line2d_12">
      <g>
       <use xlink:href="#m1589316d2e" x="533.424279" y="335.88" style="fill: #4b5563; stroke: #4b5563; stroke-width: 0.8"/>
      </g>
     </g>
     <g id="text_6">
      <!-- 0.5 -->
      <g style="fill: #4b5563" transform="translate(526.475061 352.520625) scale(0.1 -0.1)">
       <defs>
        <path id="HelveticaNeue-35" d="M 3008 3981 
L 3008 4461 
L 768 4461 
L 346 2106 
L 813 2080 
Q 973 2272 1181 2390 
Q 1389 2509 1658 2509 
Q 1888 2509 2077 2432 
Q 2266 2355 2400 2217 
Q 2534 2080 2608 1891 
Q 2682 1702 2682 1478 
Q 2682 1210 2605 1008 
Q 2528 806 2397 672 
Q 2266 538 2090 470 
Q 1914 403 1722 403 
Q 1517 403 1347 464 
Q 1178 525 1053 637 
Q 928 749 854 899 
Q 781 1050 768 1222 
L 224 1222 
Q 230 915 345 672 
Q 461 429 659 265 
Q 858 102 1117 16 
Q 1376 -70 1670 -70 
Q 2067 -70 2364 54 
Q 2662 179 2860 390 
Q 3059 602 3158 874 
Q 3258 1146 3258 1434 
Q 3258 1824 3142 2115 
Q 3027 2406 2828 2601 
Q 2630 2797 2361 2893 
Q 2093 2989 1792 2989 
Q 1562 2989 1328 2909 
Q 1094 2829 947 2662 
L 934 2675 
L 1178 3981 
L 3008 3981 
z
" transform="scale(0.015625)"/>
       </defs>
       <use xlink:href="#HelveticaNeue-30"/>
       <use xlink:href="#HelveticaNeue-2e" transform="translate(55.599991 0)"/>
       <use xlink:href="#HelveticaNeue-35" transform="translate(83.399979 0)"/>
      </g>
     </g>
    </g>
    <g id="xtick_7">
     <g id="line2d_13">
      <path d="M 613.220198 335.88 
L 613.220198 70.56 
" clip-path="url(#pf6c5a0bc61)" style="fill: none; stroke: #d8d4cc; stroke-width: 0.8; stroke-linecap: square"/>
     </g>
     <g id="line2d_14">
      <g>
       <use xlink:href="#m1589316d2e" x="613.220198" y="335.88" style="fill: #4b5563; stroke: #4b5563; stroke-width: 0.8"/>
      </g>
     </g>
     <g id="text_7">
      <!-- 0.6 -->
      <g style="fill: #4b5563" transform="translate(606.270979 352.520625) scale(0.1 -0.1)">
       <defs>
        <path id="HelveticaNeue-36" d="M 2650 3379 
L 3194 3379 
Q 3142 3942 2809 4240 
Q 2477 4538 1914 4538 
Q 1427 4538 1107 4333 
Q 787 4128 595 3789 
Q 403 3450 323 3011 
Q 243 2573 243 2106 
Q 243 1747 297 1363 
Q 352 979 518 659 
Q 685 339 992 134 
Q 1299 -70 1805 -70 
Q 2234 -70 2525 74 
Q 2816 218 2992 438 
Q 3168 659 3245 928 
Q 3322 1197 3322 1446 
Q 3322 1760 3226 2029 
Q 3130 2298 2954 2496 
Q 2778 2694 2518 2806 
Q 2259 2918 1933 2918 
Q 1562 2918 1277 2777 
Q 992 2637 800 2323 
L 787 2336 
Q 794 2598 838 2899 
Q 883 3200 1001 3459 
Q 1120 3718 1331 3888 
Q 1542 4058 1888 4058 
Q 2214 4058 2412 3872 
Q 2611 3686 2650 3379 
z
M 1830 2438 
Q 2061 2438 2233 2355 
Q 2406 2272 2521 2134 
Q 2637 1997 2691 1808 
Q 2746 1619 2746 1408 
Q 2746 1210 2685 1027 
Q 2624 845 2509 704 
Q 2394 563 2224 483 
Q 2054 403 1830 403 
Q 1606 403 1430 483 
Q 1254 563 1136 697 
Q 1018 832 954 1017 
Q 890 1203 890 1414 
Q 890 1626 950 1814 
Q 1011 2003 1132 2140 
Q 1254 2278 1427 2358 
Q 1600 2438 1830 2438 
z
" transform="scale(0.015625)"/>
       </defs>
       <use xlink:href="#HelveticaNeue-30"/>
       <use xlink:href="#HelveticaNeue-2e" transform="translate(55.599991 0)"/>
       <use xlink:href="#HelveticaNeue-36" transform="translate(83.399979 0)"/>
      </g>
     </g>
    </g>
    <g id="xtick_8">
     <g id="line2d_15">
      <path d="M 693.016116 335.88 
L 693.016116 70.56 
" clip-path="url(#pf6c5a0bc61)" style="fill: none; stroke: #d8d4cc; stroke-width: 0.8; stroke-linecap: square"/>
     </g>
     <g id="line2d_16">
      <g>
       <use xlink:href="#m1589316d2e" x="693.016116" y="335.88" style="fill: #4b5563; stroke: #4b5563; stroke-width: 0.8"/>
      </g>
     </g>
     <g id="text_8">
      <!-- 0.7 -->
      <g style="fill: #4b5563" transform="translate(686.066897 352.520625) scale(0.1 -0.1)">
       <defs>
        <path id="HelveticaNeue-37" d="M 3258 3994 
L 3258 4461 
L 320 4461 
L 320 3949 
L 2701 3949 
Q 2342 3571 2032 3123 
Q 1722 2675 1485 2172 
Q 1248 1670 1097 1123 
Q 947 576 909 0 
L 1517 0 
Q 1549 531 1696 1094 
Q 1843 1658 2076 2189 
Q 2310 2720 2611 3187 
Q 2912 3654 3258 3994 
z
" transform="scale(0.015625)"/>
       </defs>
       <use xlink:href="#HelveticaNeue-30"/>
       <use xlink:href="#HelveticaNeue-2e" transform="translate(55.599991 0)"/>
       <use xlink:href="#HelveticaNeue-37" transform="translate(83.399979 0)"/>
      </g>
     </g>
    </g>
    <g id="xtick_9">
     <g id="line2d_17">
      <path d="M 772.812034 335.88 
L 772.812034 70.56 
" clip-path="url(#pf6c5a0bc61)" style="fill: none; stroke: #d8d4cc; stroke-width: 0.8; stroke-linecap: square"/>
     </g>
     <g id="line2d_18">
      <g>
       <use xlink:href="#m1589316d2e" x="772.812034" y="335.88" style="fill: #4b5563; stroke: #4b5563; stroke-width: 0.8"/>
      </g>
     </g>
     <g id="text_9">
      <!-- 0.8 -->
      <g style="fill: #4b5563" transform="translate(765.862816 352.520625) scale(0.1 -0.1)">
       <defs>
        <path id="HelveticaNeue-38" d="M 992 3360 
Q 992 3533 1056 3661 
Q 1120 3789 1225 3878 
Q 1331 3968 1478 4013 
Q 1626 4058 1786 4058 
Q 2118 4058 2332 3882 
Q 2547 3706 2547 3360 
Q 2547 3014 2336 2822 
Q 2125 2630 1798 2630 
Q 1632 2630 1485 2675 
Q 1338 2720 1229 2809 
Q 1120 2899 1056 3036 
Q 992 3174 992 3360 
z
M 416 3379 
Q 416 3072 589 2813 
Q 762 2554 1050 2438 
Q 666 2304 461 2006 
Q 256 1709 256 1306 
Q 256 960 374 701 
Q 493 442 701 269 
Q 909 96 1190 13 
Q 1472 -70 1798 -70 
Q 2112 -70 2387 19 
Q 2662 109 2864 285 
Q 3066 461 3184 717 
Q 3302 973 3302 1306 
Q 3302 1728 3104 2019 
Q 2906 2310 2496 2438 
Q 2784 2566 2953 2819 
Q 3123 3072 3123 3379 
Q 3123 3597 3046 3805 
Q 2970 4013 2806 4176 
Q 2643 4339 2380 4438 
Q 2118 4538 1747 4538 
Q 1485 4538 1245 4461 
Q 1005 4384 819 4237 
Q 634 4090 525 3875 
Q 416 3661 416 3379 
z
M 832 1280 
Q 832 1478 905 1638 
Q 979 1798 1110 1913 
Q 1242 2029 1418 2089 
Q 1594 2150 1792 2150 
Q 1984 2150 2153 2083 
Q 2323 2016 2451 1901 
Q 2579 1786 2652 1629 
Q 2726 1472 2726 1286 
Q 2726 1094 2659 934 
Q 2592 774 2467 656 
Q 2342 538 2172 470 
Q 2003 403 1798 403 
Q 1376 403 1104 636 
Q 832 870 832 1280 
z
" transform="scale(0.015625)"/>
       </defs>
       <use xlink:href="#HelveticaNeue-30"/>
       <use xlink:href="#HelveticaNeue-2e" transform="translate(55.599991 0)"/>
       <use xlink:href="#HelveticaNeue-38" transform="translate(83.399979 0)"/>
      </g>
     </g>
    </g>
    <g id="text_10">
     <!-- Cost per 60-second call (US cents) -->
     <g style="fill: #4b5563" transform="translate(400.4725 366.53125) scale(0.11 -0.11)">
      <defs>
       <path id="HelveticaNeue-43" d="M 3712 3194 
L 4320 3194 
Q 4269 3558 4102 3836 
Q 3936 4115 3686 4300 
Q 3437 4486 3117 4582 
Q 2797 4678 2438 4678 
Q 1914 4678 1507 4489 
Q 1101 4301 829 3974 
Q 557 3648 416 3209 
Q 275 2771 275 2272 
Q 275 1773 406 1337 
Q 538 902 800 582 
Q 1062 262 1459 80 
Q 1856 -102 2387 -102 
Q 3264 -102 3769 378 
Q 4275 858 4365 1722 
L 3757 1722 
Q 3738 1440 3642 1197 
Q 3546 954 3376 778 
Q 3206 602 2972 502 
Q 2739 403 2438 403 
Q 2029 403 1734 556 
Q 1440 710 1251 969 
Q 1062 1229 972 1577 
Q 883 1926 883 2317 
Q 883 2675 972 3008 
Q 1062 3341 1251 3600 
Q 1440 3859 1731 4012 
Q 2022 4166 2432 4166 
Q 2912 4166 3261 3923 
Q 3610 3680 3712 3194 
z
" transform="scale(0.015625)"/>
       <path id="HelveticaNeue-6f" d="M 806 1651 
Q 806 1952 886 2185 
Q 966 2419 1107 2579 
Q 1248 2739 1437 2822 
Q 1626 2906 1837 2906 
Q 2048 2906 2237 2822 
Q 2426 2739 2566 2579 
Q 2707 2419 2787 2185 
Q 2867 1952 2867 1651 
Q 2867 1350 2787 1116 
Q 2707 883 2566 726 
Q 2426 570 2237 486 
Q 2048 403 1837 403 
Q 1626 403 1437 486 
Q 1248 570 1107 726 
Q 966 883 886 1116 
Q 806 1350 806 1651 
z
M 230 1651 
Q 230 1286 332 972 
Q 435 659 640 425 
Q 845 192 1145 61 
Q 1446 -70 1837 -70 
Q 2234 -70 2531 61 
Q 2829 192 3033 425 
Q 3238 659 3340 972 
Q 3443 1286 3443 1651 
Q 3443 2016 3340 2333 
Q 3238 2650 3033 2883 
Q 2829 3117 2531 3251 
Q 2234 3386 1837 3386 
Q 1446 3386 1145 3251 
Q 845 3117 640 2883 
Q 435 2650 332 2333 
Q 230 2016 230 1651 
z
" transform="scale(0.015625)"/>
       <path id="HelveticaNeue-73" d="M 742 1043 
L 198 1043 
Q 211 736 326 521 
Q 442 307 634 176 
Q 826 45 1075 -12 
Q 1325 -70 1600 -70 
Q 1850 -70 2102 -22 
Q 2355 26 2556 147 
Q 2758 269 2883 467 
Q 3008 666 3008 966 
Q 3008 1203 2915 1363 
Q 2822 1523 2672 1628 
Q 2522 1734 2326 1798 
Q 2131 1862 1926 1907 
Q 1734 1952 1542 1993 
Q 1350 2035 1196 2096 
Q 1043 2157 944 2249 
Q 845 2342 845 2483 
Q 845 2611 909 2691 
Q 973 2771 1075 2819 
Q 1178 2867 1302 2886 
Q 1427 2906 1549 2906 
Q 1683 2906 1814 2877 
Q 1946 2848 2054 2784 
Q 2163 2720 2233 2614 
Q 2304 2509 2317 2349 
L 2861 2349 
Q 2842 2650 2733 2851 
Q 2624 3053 2441 3171 
Q 2259 3290 2022 3338 
Q 1786 3386 1504 3386 
Q 1286 3386 1065 3331 
Q 845 3277 669 3165 
Q 493 3053 381 2873 
Q 269 2694 269 2445 
Q 269 2125 429 1945 
Q 589 1766 829 1667 
Q 1069 1568 1350 1513 
Q 1632 1459 1872 1392 
Q 2112 1325 2272 1216 
Q 2432 1107 2432 896 
Q 2432 742 2355 643 
Q 2278 544 2160 493 
Q 2042 442 1901 422 
Q 1760 403 1632 403 
Q 1466 403 1309 435 
Q 1152 467 1027 540 
Q 902 614 825 739 
Q 749 864 742 1043 
z
" transform="scale(0.015625)"/>
       <path id="HelveticaNeue-74" d="M 1165 3309 
L 1165 4301 
L 621 4301 
L 621 3309 
L 58 3309 
L 58 2829 
L 621 2829 
L 621 723 
Q 621 493 665 352 
Q 710 211 803 134 
Q 896 58 1046 29 
Q 1197 0 1408 0 
L 1824 0 
L 1824 480 
L 1574 480 
Q 1446 480 1366 489 
Q 1286 499 1241 531 
Q 1197 563 1181 620 
Q 1165 678 1165 774 
L 1165 2829 
L 1824 2829 
L 1824 3309 
L 1165 3309 
z
" transform="scale(0.015625)"/>
       <path id="HelveticaNeue-20" transform="scale(0.015625)"/>
       <path id="HelveticaNeue-70" d="M 429 3309 
L 429 -1261 
L 973 -1261 
L 973 442 
L 986 442 
Q 1075 294 1206 195 
Q 1338 96 1485 38 
Q 1632 -19 1782 -44 
Q 1933 -70 2054 -70 
Q 2432 -70 2717 64 
Q 3002 198 3190 432 
Q 3379 666 3472 979 
Q 3565 1293 3565 1645 
Q 3565 1997 3469 2310 
Q 3373 2624 3184 2864 
Q 2995 3104 2710 3245 
Q 2426 3386 2042 3386 
Q 1696 3386 1408 3261 
Q 1120 3136 986 2861 
L 973 2861 
L 973 3309 
L 429 3309 
z
M 2989 1683 
Q 2989 1440 2937 1209 
Q 2886 979 2771 800 
Q 2656 621 2467 512 
Q 2278 403 1997 403 
Q 1715 403 1516 508 
Q 1318 614 1193 787 
Q 1069 960 1011 1187 
Q 954 1414 954 1658 
Q 954 1888 1008 2112 
Q 1062 2336 1184 2512 
Q 1306 2688 1498 2797 
Q 1690 2906 1965 2906 
Q 2227 2906 2422 2803 
Q 2618 2701 2742 2528 
Q 2867 2355 2928 2134 
Q 2989 1914 2989 1683 
z
" transform="scale(0.015625)"/>
       <path id="HelveticaNeue-65" d="M 2707 1971 
L 806 1971 
Q 819 2163 889 2332 
Q 960 2502 1081 2630 
Q 1203 2758 1372 2832 
Q 1542 2906 1754 2906 
Q 1958 2906 2128 2832 
Q 2298 2758 2422 2633 
Q 2547 2509 2620 2336 
Q 2694 2163 2707 1971 
z
M 3232 1050 
L 2694 1050 
Q 2624 723 2403 563 
Q 2182 403 1837 403 
Q 1568 403 1369 492 
Q 1171 582 1043 732 
Q 915 883 857 1078 
Q 800 1274 806 1491 
L 3283 1491 
Q 3296 1792 3229 2125 
Q 3162 2458 2986 2739 
Q 2810 3021 2518 3203 
Q 2227 3386 1786 3386 
Q 1446 3386 1161 3258 
Q 877 3130 669 2899 
Q 461 2669 345 2355 
Q 230 2042 230 1664 
Q 243 1286 342 966 
Q 442 646 640 416 
Q 838 186 1129 58 
Q 1421 -70 1818 -70 
Q 2381 -70 2752 211 
Q 3123 493 3232 1050 
z
" transform="scale(0.015625)"/>
       <path id="HelveticaNeue-72" d="M 390 3309 
L 390 0 
L 934 0 
L 934 1472 
Q 934 1792 998 2038 
Q 1062 2285 1203 2457 
Q 1344 2630 1574 2720 
Q 1805 2810 2131 2810 
L 2131 3386 
Q 1690 3398 1402 3206 
Q 1114 3014 915 2611 
L 902 2611 
L 902 3309 
L 390 3309 
z
" transform="scale(0.015625)"/>
       <path id="HelveticaNeue-2d" d="M 320 2035 
L 320 1523 
L 2170 1523 
L 2170 2035 
L 320 2035 
z
" transform="scale(0.015625)"/>
       <path id="HelveticaNeue-63" d="M 2656 2246 
L 3219 2246 
Q 3187 2541 3065 2755 
Q 2944 2970 2755 3110 
Q 2566 3251 2320 3318 
Q 2074 3386 1792 3386 
Q 1402 3386 1107 3248 
Q 813 3110 617 2870 
Q 422 2630 326 2307 
Q 230 1984 230 1613 
Q 230 1242 329 931 
Q 429 621 624 397 
Q 819 173 1110 51 
Q 1402 -70 1779 -70 
Q 2413 -70 2781 262 
Q 3149 595 3238 1210 
L 2682 1210 
Q 2630 826 2403 614 
Q 2176 403 1773 403 
Q 1517 403 1331 505 
Q 1146 608 1030 777 
Q 915 947 860 1164 
Q 806 1382 806 1613 
Q 806 1862 857 2096 
Q 909 2330 1027 2509 
Q 1146 2688 1344 2797 
Q 1542 2906 1837 2906 
Q 2182 2906 2387 2733 
Q 2592 2560 2656 2246 
z
" transform="scale(0.015625)"/>
       <path id="HelveticaNeue-6e" d="M 410 3309 
L 410 0 
L 954 0 
L 954 1869 
Q 954 2093 1014 2281 
Q 1075 2470 1196 2611 
Q 1318 2752 1500 2829 
Q 1683 2906 1933 2906 
Q 2246 2906 2425 2726 
Q 2605 2547 2605 2240 
L 2605 0 
L 3149 0 
L 3149 2176 
Q 3149 2445 3094 2665 
Q 3040 2886 2905 3046 
Q 2771 3206 2553 3296 
Q 2336 3386 2010 3386 
Q 1274 3386 934 2784 
L 922 2784 
L 922 3309 
L 410 3309 
z
" transform="scale(0.015625)"/>
       <path id="HelveticaNeue-64" d="M 806 1626 
Q 806 1869 857 2099 
Q 909 2330 1024 2509 
Q 1139 2688 1331 2797 
Q 1523 2906 1798 2906 
Q 2080 2906 2278 2800 
Q 2477 2694 2601 2521 
Q 2726 2349 2784 2121 
Q 2842 1894 2842 1651 
Q 2842 1421 2787 1197 
Q 2733 973 2611 797 
Q 2490 621 2298 512 
Q 2106 403 1830 403 
Q 1568 403 1373 505 
Q 1178 608 1053 781 
Q 928 954 867 1174 
Q 806 1395 806 1626 
z
M 3366 0 
L 3366 4570 
L 2822 4570 
L 2822 2867 
L 2810 2867 
Q 2720 3014 2589 3113 
Q 2458 3213 2310 3273 
Q 2163 3334 2016 3360 
Q 1869 3386 1741 3386 
Q 1363 3386 1078 3248 
Q 794 3110 605 2876 
Q 416 2643 323 2329 
Q 230 2016 230 1664 
Q 230 1312 326 998 
Q 422 685 611 448 
Q 800 211 1085 70 
Q 1370 -70 1754 -70 
Q 2099 -70 2387 51 
Q 2675 173 2810 448 
L 2822 448 
L 2822 0 
L 3366 0 
z
" transform="scale(0.015625)"/>
       <path id="HelveticaNeue-61" d="M 3341 13 
Q 3200 -70 2950 -70 
Q 2739 -70 2614 48 
Q 2490 166 2490 435 
Q 2266 166 1968 48 
Q 1670 -70 1325 -70 
Q 1101 -70 899 -19 
Q 698 32 550 141 
Q 403 250 316 426 
Q 230 602 230 851 
Q 230 1133 326 1312 
Q 422 1491 579 1603 
Q 736 1715 937 1772 
Q 1139 1830 1350 1869 
Q 1574 1914 1776 1936 
Q 1978 1958 2131 2000 
Q 2285 2042 2374 2122 
Q 2464 2202 2464 2355 
Q 2464 2534 2397 2643 
Q 2330 2752 2224 2809 
Q 2118 2867 1987 2886 
Q 1856 2906 1728 2906 
Q 1382 2906 1152 2774 
Q 922 2643 902 2278 
L 358 2278 
Q 371 2586 486 2797 
Q 602 3008 794 3139 
Q 986 3270 1232 3328 
Q 1478 3386 1760 3386 
Q 1984 3386 2205 3354 
Q 2426 3322 2605 3222 
Q 2784 3123 2893 2944 
Q 3002 2765 3002 2477 
L 3002 774 
Q 3002 582 3024 492 
Q 3046 403 3174 403 
Q 3245 403 3341 435 
L 3341 13 
z
M 2458 1709 
Q 2355 1632 2188 1597 
Q 2022 1562 1840 1539 
Q 1658 1517 1472 1488 
Q 1286 1459 1139 1395 
Q 992 1331 899 1212 
Q 806 1094 806 890 
Q 806 755 860 662 
Q 915 570 1001 512 
Q 1088 454 1203 428 
Q 1318 403 1446 403 
Q 1715 403 1907 476 
Q 2099 550 2220 662 
Q 2342 774 2400 905 
Q 2458 1037 2458 1152 
L 2458 1709 
z
" transform="scale(0.015625)"/>
       <path id="HelveticaNeue-6c" d="M 442 4570 
L 442 0 
L 986 0 
L 986 4570 
L 442 4570 
z
" transform="scale(0.015625)"/>
       <path id="HelveticaNeue-28" d="M 1306 -1261 
L 1722 -1261 
Q 1267 -525 1072 198 
Q 877 922 877 1728 
Q 877 2515 1069 3232 
Q 1261 3949 1722 4678 
L 1306 4678 
Q 806 4019 553 3251 
Q 301 2483 301 1728 
Q 301 1306 371 922 
Q 442 538 573 173 
Q 704 -192 889 -547 
Q 1075 -902 1306 -1261 
z
" transform="scale(0.015625)"/>
       <path id="HelveticaNeue-55" d="M 4147 1651 
L 4147 4570 
L 3539 4570 
L 3539 1651 
Q 3539 1037 3235 720 
Q 2931 403 2349 403 
Q 1734 403 1408 720 
Q 1082 1037 1082 1651 
L 1082 4570 
L 474 4570 
L 474 1651 
Q 474 736 970 317 
Q 1466 -102 2349 -102 
Q 3213 -102 3680 336 
Q 4147 774 4147 1651 
z
" transform="scale(0.015625)"/>
       <path id="HelveticaNeue-53" d="M 3142 3232 
L 3718 3232 
Q 3706 3610 3574 3882 
Q 3443 4154 3216 4333 
Q 2989 4512 2688 4595 
Q 2387 4678 2035 4678 
Q 1722 4678 1424 4598 
Q 1126 4518 892 4355 
Q 659 4192 518 3939 
Q 378 3686 378 3341 
Q 378 3027 502 2819 
Q 627 2611 835 2480 
Q 1043 2349 1305 2269 
Q 1568 2189 1840 2128 
Q 2112 2067 2374 2009 
Q 2637 1952 2845 1859 
Q 3053 1766 3177 1619 
Q 3302 1472 3302 1235 
Q 3302 986 3200 826 
Q 3098 666 2931 573 
Q 2765 480 2557 441 
Q 2349 403 2144 403 
Q 1888 403 1645 467 
Q 1402 531 1219 665 
Q 1037 800 925 1008 
Q 813 1216 813 1504 
L 237 1504 
Q 237 1088 387 784 
Q 538 480 797 285 
Q 1056 90 1398 -6 
Q 1741 -102 2125 -102 
Q 2438 -102 2755 -28 
Q 3072 45 3328 208 
Q 3584 371 3747 630 
Q 3910 890 3910 1254 
Q 3910 1594 3785 1818 
Q 3661 2042 3453 2189 
Q 3245 2336 2982 2422 
Q 2720 2509 2448 2573 
Q 2176 2637 1913 2691 
Q 1651 2746 1443 2829 
Q 1235 2912 1110 3043 
Q 986 3174 986 3386 
Q 986 3610 1072 3760 
Q 1158 3910 1302 4000 
Q 1446 4090 1632 4128 
Q 1818 4166 2010 4166 
Q 2483 4166 2787 3945 
Q 3091 3725 3142 3232 
z
" transform="scale(0.015625)"/>
       <path id="HelveticaNeue-29" d="M -58 -1261 
L 352 -1261 
Q 851 -602 1104 163 
Q 1357 928 1357 1683 
Q 1357 2106 1286 2490 
Q 1216 2874 1085 3242 
Q 954 3610 768 3965 
Q 582 4320 352 4678 
L -58 4678 
Q 390 3942 585 3216 
Q 781 2490 781 1683 
Q 781 902 589 182 
Q 397 -538 -58 -1261 
z
" transform="scale(0.015625)"/>
      </defs>
      <use xlink:href="#HelveticaNeue-43"/>
      <use xlink:href="#HelveticaNeue-6f" transform="translate(72.199982 0)"/>
      <use xlink:href="#HelveticaNeue-73" transform="translate(129.599976 0)"/>
      <use xlink:href="#HelveticaNeue-74" transform="translate(179.59996 0)"/>
      <use xlink:href="#HelveticaNeue-20" transform="translate(211.099945 0)"/>
      <use xlink:href="#HelveticaNeue-70" transform="translate(238.899933 0)"/>
      <use xlink:href="#HelveticaNeue-65" transform="translate(298.199921 0)"/>
      <use xlink:href="#HelveticaNeue-72" transform="translate(351.899918 0)"/>
      <use xlink:href="#HelveticaNeue-20" transform="translate(385.199905 0)"/>
      <use xlink:href="#HelveticaNeue-36" transform="translate(412.999893 0)"/>
      <use xlink:href="#HelveticaNeue-30" transform="translate(468.599884 0)"/>
      <use xlink:href="#HelveticaNeue-2d" transform="translate(524.199875 0)"/>
      <use xlink:href="#HelveticaNeue-73" transform="translate(563.099869 0)"/>
      <use xlink:href="#HelveticaNeue-65" transform="translate(613.099854 0)"/>
      <use xlink:href="#HelveticaNeue-63" transform="translate(666.79985 0)"/>
      <use xlink:href="#HelveticaNeue-6f" transform="translate(720.499847 0)"/>
      <use xlink:href="#HelveticaNeue-6e" transform="translate(777.899841 0)"/>
      <use xlink:href="#HelveticaNeue-64" transform="translate(833.499832 0)"/>
      <use xlink:href="#HelveticaNeue-20" transform="translate(892.79982 0)"/>
      <use xlink:href="#HelveticaNeue-63" transform="translate(920.599808 0)"/>
      <use xlink:href="#HelveticaNeue-61" transform="translate(974.299805 0)"/>
      <use xlink:href="#HelveticaNeue-6c" transform="translate(1027.999802 0)"/>
      <use xlink:href="#HelveticaNeue-6c" transform="translate(1050.199799 0)"/>
      <use xlink:href="#HelveticaNeue-20" transform="translate(1072.399796 0)"/>
      <use xlink:href="#HelveticaNeue-28" transform="translate(1100.199783 0)"/>
      <use xlink:href="#HelveticaNeue-55" transform="translate(1126.099777 0)"/>
      <use xlink:href="#HelveticaNeue-53" transform="translate(1198.299759 0)"/>
      <use xlink:href="#HelveticaNeue-20" transform="translate(1263.099747 0)"/>
      <use xlink:href="#HelveticaNeue-63" transform="translate(1290.899734 0)"/>
      <use xlink:href="#HelveticaNeue-65" transform="translate(1344.599731 0)"/>
      <use xlink:href="#HelveticaNeue-6e" transform="translate(1398.299728 0)"/>
      <use xlink:href="#HelveticaNeue-74" transform="translate(1453.899719 0)"/>
      <use xlink:href="#HelveticaNeue-73" transform="translate(1485.399704 0)"/>
      <use xlink:href="#HelveticaNeue-29" transform="translate(1535.399689 0)"/>
     </g>
    </g>
   </g>
   <g id="matplotlib.axis_2">
    <g id="ytick_1">
     <g id="line2d_19">
      <path d="M 134.444687 101.304507 
L 838.244687 101.304507 
" clip-path="url(#pf6c5a0bc61)" style="fill: none; stroke: #d8d4cc; stroke-width: 0.8; stroke-linecap: square"/>
     </g>
     <g id="text_11">
      <!-- Telephony (Indian SIP) -->
      <g style="fill: #111827" transform="translate(16.156406 105.324663) scale(0.11 -0.11)">
       <defs>
        <path id="HelveticaNeue-54" d="M 1536 4058 
L 1536 0 
L 2144 0 
L 2144 4058 
L 3667 4058 
L 3667 4570 
L 13 4570 
L 13 4058 
L 1536 4058 
z
" transform="scale(0.015625)"/>
        <path id="HelveticaNeue-68" d="M 410 4570 
L 410 0 
L 954 0 
L 954 1869 
Q 954 2093 1014 2281 
Q 1075 2470 1196 2611 
Q 1318 2752 1500 2829 
Q 1683 2906 1933 2906 
Q 2246 2906 2425 2726 
Q 2605 2547 2605 2240 
L 2605 0 
L 3149 0 
L 3149 2176 
Q 3149 2445 3094 2665 
Q 3040 2886 2905 3046 
Q 2771 3206 2553 3296 
Q 2336 3386 2010 3386 
Q 1862 3386 1705 3354 
Q 1549 3322 1405 3254 
Q 1261 3187 1145 3081 
Q 1030 2976 966 2822 
L 954 2822 
L 954 4570 
L 410 4570 
z
" transform="scale(0.015625)"/>
        <path id="HelveticaNeue-79" d="M 1709 -442 
Q 1613 -685 1520 -851 
Q 1427 -1018 1315 -1123 
Q 1203 -1229 1065 -1277 
Q 928 -1325 749 -1325 
Q 653 -1325 557 -1312 
Q 461 -1299 371 -1267 
L 371 -768 
Q 442 -800 534 -822 
Q 627 -845 691 -845 
Q 858 -845 970 -765 
Q 1082 -685 1139 -538 
L 1363 19 
L 51 3309 
L 666 3309 
L 1632 602 
L 1645 602 
L 2573 3309 
L 3149 3309 
L 1709 -442 
z
" transform="scale(0.015625)"/>
        <path id="HelveticaNeue-49" d="M 525 4570 
L 525 0 
L 1133 0 
L 1133 4570 
L 525 4570 
z
" transform="scale(0.015625)"/>
        <path id="HelveticaNeue-69" d="M 986 3904 
L 986 4570 
L 442 4570 
L 442 3904 
L 986 3904 
z
M 442 3309 
L 442 0 
L 986 0 
L 986 3309 
L 442 3309 
z
" transform="scale(0.015625)"/>
        <path id="HelveticaNeue-50" d="M 1107 2381 
L 1107 4058 
L 2298 4058 
Q 2816 4058 3056 3843 
Q 3296 3629 3296 3219 
Q 3296 2810 3056 2592 
Q 2816 2374 2298 2381 
L 1107 2381 
z
M 499 4570 
L 499 0 
L 1107 0 
L 1107 1869 
L 2502 1869 
Q 3194 1862 3549 2220 
Q 3904 2579 3904 3219 
Q 3904 3859 3549 4214 
Q 3194 4570 2502 4570 
L 499 4570 
z
" transform="scale(0.015625)"/>
       </defs>
       <use xlink:href="#HelveticaNeue-54"/>
       <use xlink:href="#HelveticaNeue-65" transform="translate(46.274994 0)"/>
       <use xlink:href="#HelveticaNeue-6c" transform="translate(99.974991 0)"/>
       <use xlink:href="#HelveticaNeue-65" transform="translate(122.174988 0)"/>
       <use xlink:href="#HelveticaNeue-70" transform="translate(175.874985 0)"/>
       <use xlink:href="#HelveticaNeue-68" transform="translate(235.174973 0)"/>
       <use xlink:href="#HelveticaNeue-6f" transform="translate(290.774963 0)"/>
       <use xlink:href="#HelveticaNeue-6e" transform="translate(348.174957 0)"/>
       <use xlink:href="#HelveticaNeue-79" transform="translate(403.774948 0)"/>
       <use xlink:href="#HelveticaNeue-20" transform="translate(453.774933 0)"/>
       <use xlink:href="#HelveticaNeue-28" transform="translate(481.574921 0)"/>
       <use xlink:href="#HelveticaNeue-49" transform="translate(507.474915 0)"/>
       <use xlink:href="#HelveticaNeue-6e" transform="translate(533.374908 0)"/>
       <use xlink:href="#HelveticaNeue-64" transform="translate(588.974899 0)"/>
       <use xlink:href="#HelveticaNeue-69" transform="translate(648.274887 0)"/>
       <use xlink:href="#HelveticaNeue-61" transform="translate(670.474884 0)"/>
       <use xlink:href="#HelveticaNeue-6e" transform="translate(724.174881 0)"/>
       <use xlink:href="#HelveticaNeue-20" transform="translate(779.774872 0)"/>
       <use xlink:href="#HelveticaNeue-53" transform="translate(807.57486 0)"/>
       <use xlink:href="#HelveticaNeue-49" transform="translate(872.374847 0)"/>
       <use xlink:href="#HelveticaNeue-50" transform="translate(898.274841 0)"/>
       <use xlink:href="#HelveticaNeue-29" transform="translate(963.074829 0)"/>
      </g>
     </g>
    </g>
    <g id="ytick_2">
     <g id="line2d_20">
      <path d="M 134.444687 169.248169 
L 838.244687 169.248169 
" clip-path="url(#pf6c5a0bc61)" style="fill: none; stroke: #d8d4cc; stroke-width: 0.8; stroke-linecap: square"/>
     </g>
     <g id="text_12">
      <!-- TTS (Sarvam Bulbul v3) -->
      <g style="fill: #111827" transform="translate(10.039375 173.268325) scale(0.11 -0.11)">
       <defs>
        <path id="HelveticaNeue-76" d="M 1901 0 
L 3110 3309 
L 2541 3309 
L 1638 550 
L 1626 550 
L 698 3309 
L 90 3309 
L 1318 0 
L 1901 0 
z
" transform="scale(0.015625)"/>
        <path id="HelveticaNeue-6d" d="M 410 3309 
L 410 0 
L 954 0 
L 954 2061 
Q 954 2157 1002 2301 
Q 1050 2445 1155 2579 
Q 1261 2714 1430 2810 
Q 1600 2906 1837 2906 
Q 2022 2906 2140 2851 
Q 2259 2797 2329 2697 
Q 2400 2598 2429 2464 
Q 2458 2330 2458 2170 
L 2458 0 
L 3002 0 
L 3002 2061 
Q 3002 2445 3232 2675 
Q 3462 2906 3866 2906 
Q 4064 2906 4189 2848 
Q 4314 2790 4384 2691 
Q 4454 2592 4480 2457 
Q 4506 2323 4506 2170 
L 4506 0 
L 5050 0 
L 5050 2426 
Q 5050 2682 4970 2864 
Q 4890 3046 4746 3161 
Q 4602 3277 4400 3331 
Q 4198 3386 3949 3386 
Q 3622 3386 3350 3238 
Q 3078 3091 2912 2822 
Q 2810 3130 2560 3258 
Q 2310 3386 2003 3386 
Q 1306 3386 934 2822 
L 922 2822 
L 922 3309 
L 410 3309 
z
" transform="scale(0.015625)"/>
        <path id="HelveticaNeue-42" d="M 1107 2605 
L 1107 4058 
L 2323 4058 
Q 2522 4058 2698 4035 
Q 2874 4013 3008 3936 
Q 3142 3859 3219 3718 
Q 3296 3578 3296 3334 
Q 3296 2970 3069 2787 
Q 2842 2605 2323 2605 
L 1107 2605 
z
M 499 4570 
L 499 0 
L 2707 0 
Q 3046 0 3305 112 
Q 3565 224 3741 406 
Q 3917 589 4006 825 
Q 4096 1062 4096 1312 
Q 4096 1734 3872 2028 
Q 3648 2323 3226 2413 
L 3226 2426 
Q 3552 2554 3728 2819 
Q 3904 3085 3904 3450 
Q 3904 3795 3747 4032 
Q 3590 4269 3366 4403 
Q 3264 4467 3120 4499 
Q 2976 4531 2809 4547 
Q 2643 4563 2473 4566 
Q 2304 4570 2157 4570 
L 499 4570 
z
M 1107 512 
L 1107 2093 
L 2496 2093 
Q 2688 2093 2867 2057 
Q 3046 2022 3184 1936 
Q 3322 1850 3405 1702 
Q 3488 1555 3488 1331 
Q 3488 947 3261 729 
Q 3034 512 2630 512 
L 1107 512 
z
" transform="scale(0.015625)"/>
        <path id="HelveticaNeue-75" d="M 3149 0 
L 3149 3309 
L 2605 3309 
L 2605 1440 
Q 2605 1216 2544 1027 
Q 2483 838 2361 697 
Q 2240 557 2057 480 
Q 1875 403 1626 403 
Q 1312 403 1133 582 
Q 954 762 954 1069 
L 954 3309 
L 410 3309 
L 410 1133 
Q 410 864 464 643 
Q 518 422 652 262 
Q 787 102 1004 16 
Q 1222 -70 1549 -70 
Q 1914 -70 2182 74 
Q 2451 218 2624 525 
L 2637 525 
L 2637 0 
L 3149 0 
z
" transform="scale(0.015625)"/>
        <path id="HelveticaNeue-62" d="M 429 4570 
L 429 0 
L 973 0 
L 973 442 
L 986 442 
Q 1075 294 1206 195 
Q 1338 96 1485 38 
Q 1632 -19 1782 -44 
Q 1933 -70 2054 -70 
Q 2432 -70 2717 64 
Q 3002 198 3190 432 
Q 3379 666 3472 979 
Q 3565 1293 3565 1645 
Q 3565 1997 3469 2310 
Q 3373 2624 3184 2864 
Q 2995 3104 2710 3245 
Q 2426 3386 2042 3386 
Q 1696 3386 1408 3261 
Q 1120 3136 986 2861 
L 973 2861 
L 973 4570 
L 429 4570 
z
M 2989 1683 
Q 2989 1440 2937 1209 
Q 2886 979 2771 800 
Q 2656 621 2467 512 
Q 2278 403 1997 403 
Q 1715 403 1516 508 
Q 1318 614 1193 787 
Q 1069 960 1011 1187 
Q 954 1414 954 1658 
Q 954 1888 1008 2112 
Q 1062 2336 1184 2512 
Q 1306 2688 1498 2797 
Q 1690 2906 1965 2906 
Q 2227 2906 2422 2803 
Q 2618 2701 2742 2528 
Q 2867 2355 2928 2134 
Q 2989 1914 2989 1683 
z
" transform="scale(0.015625)"/>
       </defs>
       <use xlink:href="#HelveticaNeue-54"/>
       <use xlink:href="#HelveticaNeue-54" transform="translate(57.399994 0)"/>
       <use xlink:href="#HelveticaNeue-53" transform="translate(114.799988 0)"/>
       <use xlink:href="#HelveticaNeue-20" transform="translate(179.599976 0)"/>
       <use xlink:href="#HelveticaNeue-28" transform="translate(207.399963 0)"/>
       <use xlink:href="#HelveticaNeue-53" transform="translate(233.299957 0)"/>
       <use xlink:href="#HelveticaNeue-61" transform="translate(298.099945 0)"/>
       <use xlink:href="#HelveticaNeue-72" transform="translate(351.799942 0)"/>
       <use xlink:href="#HelveticaNeue-76" transform="translate(385.09993 0)"/>
       <use xlink:href="#HelveticaNeue-61" transform="translate(435.099915 0)"/>
       <use xlink:href="#HelveticaNeue-6d" transform="translate(488.799911 0)"/>
       <use xlink:href="#HelveticaNeue-20" transform="translate(574.099899 0)"/>
       <use xlink:href="#HelveticaNeue-42" transform="translate(601.899887 0)"/>
       <use xlink:href="#HelveticaNeue-75" transform="translate(670.399872 0)"/>
       <use xlink:href="#HelveticaNeue-6c" transform="translate(725.999863 0)"/>
       <use xlink:href="#HelveticaNeue-62" transform="translate(748.19986 0)"/>
       <use xlink:href="#HelveticaNeue-75" transform="translate(807.499847 0)"/>
       <use xlink:href="#HelveticaNeue-6c" transform="translate(863.099838 0)"/>
       <use xlink:href="#HelveticaNeue-20" transform="translate(885.299835 0)"/>
       <use xlink:href="#HelveticaNeue-76" transform="translate(913.099823 0)"/>
       <use xlink:href="#HelveticaNeue-33" transform="translate(963.099808 0)"/>
       <use xlink:href="#HelveticaNeue-29" transform="translate(1018.699799 0)"/>
      </g>
     </g>
    </g>
    <g id="ytick_3">
     <g id="line2d_21">
      <path d="M 134.444687 237.191831 
L 838.244687 237.191831 
" clip-path="url(#pf6c5a0bc61)" style="fill: none; stroke: #d8d4cc; stroke-width: 0.8; stroke-linecap: square"/>
     </g>
     <g id="text_13">
      <!-- STT (Sarvam Saaras v3) -->
      <g style="fill: #111827" transform="translate(7.2 241.211987) scale(0.11 -0.11)">
       <use xlink:href="#HelveticaNeue-53"/>
       <use xlink:href="#HelveticaNeue-54" transform="translate(64.799988 0)"/>
       <use xlink:href="#HelveticaNeue-54" transform="translate(122.199982 0)"/>
       <use xlink:href="#HelveticaNeue-20" transform="translate(179.599976 0)"/>
       <use xlink:href="#HelveticaNeue-28" transform="translate(207.399963 0)"/>
       <use xlink:href="#HelveticaNeue-53" transform="translate(233.299957 0)"/>
       <use xlink:href="#HelveticaNeue-61" transform="translate(298.099945 0)"/>
       <use xlink:href="#HelveticaNeue-72" transform="translate(351.799942 0)"/>
       <use xlink:href="#HelveticaNeue-76" transform="translate(385.09993 0)"/>
       <use xlink:href="#HelveticaNeue-61" transform="translate(435.099915 0)"/>
       <use xlink:href="#HelveticaNeue-6d" transform="translate(488.799911 0)"/>
       <use xlink:href="#HelveticaNeue-20" transform="translate(574.099899 0)"/>
       <use xlink:href="#HelveticaNeue-53" transform="translate(601.899887 0)"/>
       <use xlink:href="#HelveticaNeue-61" transform="translate(666.699875 0)"/>
       <use xlink:href="#HelveticaNeue-61" transform="translate(720.399872 0)"/>
       <use xlink:href="#HelveticaNeue-72" transform="translate(774.099869 0)"/>
       <use xlink:href="#HelveticaNeue-61" transform="translate(807.399857 0)"/>
       <use xlink:href="#HelveticaNeue-73" transform="translate(861.099854 0)"/>
       <use xlink:href="#HelveticaNeue-20" transform="translate(911.099838 0)"/>
       <use xlink:href="#HelveticaNeue-76" transform="translate(938.899826 0)"/>
       <use xlink:href="#HelveticaNeue-33" transform="translate(988.899811 0)"/>
       <use xlink:href="#HelveticaNeue-29" transform="translate(1044.499802 0)"/>
      </g>
     </g>
    </g>
    <g id="ytick_4">
     <g id="line2d_22">
      <path d="M 134.444687 305.135493 
L 838.244687 305.135493 
" clip-path="url(#pf6c5a0bc61)" style="fill: none; stroke: #d8d4cc; stroke-width: 0.8; stroke-linecap: square"/>
     </g>
     <g id="text_14">
      <!-- LLM (Gemini 2.5 Flash) -->
      <g style="fill: #111827" transform="translate(12.05375 309.155649) scale(0.11 -0.11)">
       <defs>
        <path id="HelveticaNeue-4c" d="M 499 4570 
L 499 0 
L 3526 0 
L 3526 512 
L 1107 512 
L 1107 4570 
L 499 4570 
z
" transform="scale(0.015625)"/>
        <path id="HelveticaNeue-4d" d="M 512 4570 
L 512 0 
L 1088 0 
L 1088 3802 
L 1101 3802 
L 2528 0 
L 3046 0 
L 4474 3802 
L 4486 3802 
L 4486 0 
L 5062 0 
L 5062 4570 
L 4230 4570 
L 2784 730 
L 1344 4570 
L 512 4570 
z
" transform="scale(0.015625)"/>
        <path id="HelveticaNeue-47" d="M 3917 570 
L 4077 0 
L 4461 0 
L 4461 2406 
L 2458 2406 
L 2458 1894 
L 3917 1894 
Q 3930 1581 3834 1309 
Q 3738 1037 3549 835 
Q 3360 634 3085 518 
Q 2810 403 2451 403 
Q 2067 403 1776 553 
Q 1485 704 1286 957 
Q 1088 1210 985 1539 
Q 883 1869 883 2227 
Q 883 2592 972 2941 
Q 1062 3290 1251 3562 
Q 1440 3834 1737 4000 
Q 2035 4166 2451 4166 
Q 2707 4166 2934 4105 
Q 3162 4045 3341 3923 
Q 3520 3802 3641 3613 
Q 3763 3424 3808 3162 
L 4416 3162 
Q 4352 3565 4176 3849 
Q 4000 4134 3741 4320 
Q 3482 4506 3152 4592 
Q 2822 4678 2451 4678 
Q 1907 4678 1500 4476 
Q 1094 4275 822 3936 
Q 550 3597 412 3145 
Q 275 2694 275 2195 
Q 275 1747 422 1331 
Q 570 915 851 595 
Q 1133 275 1536 86 
Q 1939 -102 2451 -102 
Q 2854 -102 3251 54 
Q 3648 211 3917 570 
z
" transform="scale(0.015625)"/>
        <path id="HelveticaNeue-46" d="M 499 4570 
L 499 0 
L 1107 0 
L 1107 2093 
L 3206 2093 
L 3206 2605 
L 1107 2605 
L 1107 4058 
L 3501 4058 
L 3501 4570 
L 499 4570 
z
" transform="scale(0.015625)"/>
       </defs>
       <use xlink:href="#HelveticaNeue-4c"/>
       <use xlink:href="#HelveticaNeue-4c" transform="translate(55.599991 0)"/>
       <use xlink:href="#HelveticaNeue-4d" transform="translate(111.199982 0)"/>
       <use xlink:href="#HelveticaNeue-20" transform="translate(198.299973 0)"/>
       <use xlink:href="#HelveticaNeue-28" transform="translate(226.09996 0)"/>
       <use xlink:href="#HelveticaNeue-47" transform="translate(251.999954 0)"/>
       <use xlink:href="#HelveticaNeue-65" transform="translate(327.899948 0)"/>
       <use xlink:href="#HelveticaNeue-6d" transform="translate(381.599945 0)"/>
       <use xlink:href="#HelveticaNeue-69" transform="translate(466.899933 0)"/>
       <use xlink:href="#HelveticaNeue-6e" transform="translate(489.09993 0)"/>
       <use xlink:href="#HelveticaNeue-69" transform="translate(544.699921 0)"/>
       <use xlink:href="#HelveticaNeue-20" transform="translate(566.899918 0)"/>
       <use xlink:href="#HelveticaNeue-32" transform="translate(594.699905 0)"/>
       <use xlink:href="#HelveticaNeue-2e" transform="translate(650.299896 0)"/>
       <use xlink:href="#HelveticaNeue-35" transform="translate(678.099884 0)"/>
       <use xlink:href="#HelveticaNeue-20" transform="translate(733.699875 0)"/>
       <use xlink:href="#HelveticaNeue-46" transform="translate(761.499863 0)"/>
       <use xlink:href="#HelveticaNeue-6c" transform="translate(818.899857 0)"/>
       <use xlink:href="#HelveticaNeue-61" transform="translate(841.099854 0)"/>
       <use xlink:href="#HelveticaNeue-73" transform="translate(894.79985 0)"/>
       <use xlink:href="#HelveticaNeue-68" transform="translate(944.799835 0)"/>
       <use xlink:href="#HelveticaNeue-29" transform="translate(1000.399826 0)"/>
      </g>
     </g>
    </g>
   </g>
   <g id="patch_3">
    <path d="M 134.444687 119.989014 
L 533.424279 119.989014 
L 533.424279 82.62 
L 134.444687 82.62 
z
" clip-path="url(#pf6c5a0bc61)" style="fill: #6b7280; stroke: #ffffff; stroke-width: 1.2; stroke-linejoin: miter"/>
   </g>
   <g id="patch_4">
    <path d="M 134.444687 187.932676 
L 637.158973 187.932676 
L 637.158973 150.563662 
L 134.444687 150.563662 
z
" clip-path="url(#pf6c5a0bc61)" style="fill: #1a2b5c; stroke: #ffffff; stroke-width: 1.2; stroke-linejoin: miter"/>
   </g>
   <g id="patch_5">
    <path d="M 134.444687 255.876338 
L 605.240606 255.876338 
L 605.240606 218.507324 
L 134.444687 218.507324 
z
" clip-path="url(#pf6c5a0bc61)" style="fill: #3d5a9c; stroke: #ffffff; stroke-width: 1.2; stroke-linejoin: miter"/>
   </g>
   <g id="patch_6">
    <path d="M 134.444687 323.82 
L 325.954892 323.82 
L 325.954892 286.450986 
L 134.444687 286.450986 
z
" clip-path="url(#pf6c5a0bc61)" style="fill: #6b7280; stroke: #ffffff; stroke-width: 1.2; stroke-linejoin: miter"/>
   </g>
   <g id="patch_7">
    <path d="M 134.444687 335.88 
L 838.244687 335.88 
" style="fill: none; stroke: #d8d4cc; stroke-width: 0.8; stroke-linejoin: miter; stroke-linecap: square"/>
   </g>
   <g id="text_15">
    <!-- 0.50¢   (26%) -->
    <g style="fill: #111827" transform="translate(549.383463 104.240991) scale(0.11 -0.11)">
     <defs>
      <path id="HelveticaNeue-a2" d="M 1741 -70 
L 1741 -736 
L 1990 -736 
L 1990 -70 
Q 2291 -70 2524 38 
Q 2758 147 2924 329 
Q 3091 512 3187 742 
Q 3283 973 3309 1210 
L 2765 1210 
Q 2714 883 2525 659 
Q 2336 435 1990 403 
L 1990 2906 
Q 2298 2893 2483 2717 
Q 2669 2541 2733 2246 
L 3290 2246 
Q 3251 2534 3142 2748 
Q 3034 2963 2864 3100 
Q 2694 3238 2473 3308 
Q 2253 3379 1990 3386 
L 1990 3994 
L 1741 3994 
L 1741 3386 
Q 1382 3360 1110 3209 
Q 838 3059 656 2819 
Q 474 2579 384 2268 
Q 294 1958 294 1613 
Q 294 1261 390 957 
Q 486 653 668 429 
Q 851 205 1120 73 
Q 1389 -58 1741 -70 
z
M 1741 2906 
L 1741 403 
Q 1510 422 1344 531 
Q 1178 640 1072 806 
Q 966 973 918 1184 
Q 870 1395 870 1613 
Q 870 1850 915 2070 
Q 960 2291 1059 2467 
Q 1158 2643 1324 2758 
Q 1491 2874 1741 2906 
z
" transform="scale(0.015625)"/>
      <path id="HelveticaNeue-25" d="M 1069 3251 
Q 1069 3398 1088 3561 
Q 1107 3725 1168 3862 
Q 1229 4000 1337 4093 
Q 1446 4186 1626 4186 
Q 1811 4186 1916 4093 
Q 2022 4000 2080 3862 
Q 2138 3725 2154 3561 
Q 2170 3398 2170 3258 
Q 2170 3110 2150 2944 
Q 2131 2778 2070 2640 
Q 2010 2502 1901 2412 
Q 1792 2323 1606 2323 
Q 1427 2323 1321 2416 
Q 1216 2509 1158 2646 
Q 1101 2784 1085 2947 
Q 1069 3110 1069 3251 
z
M 589 3238 
Q 589 2976 643 2745 
Q 698 2515 819 2342 
Q 941 2170 1139 2070 
Q 1338 1971 1626 1971 
Q 1907 1971 2099 2080 
Q 2291 2189 2416 2365 
Q 2541 2541 2595 2774 
Q 2650 3008 2650 3258 
Q 2650 3520 2602 3753 
Q 2554 3987 2435 4160 
Q 2317 4333 2121 4435 
Q 1926 4538 1626 4538 
Q 1331 4538 1132 4432 
Q 934 4326 812 4147 
Q 691 3968 640 3734 
Q 589 3501 589 3238 
z
M 4230 1203 
Q 4230 1350 4249 1513 
Q 4269 1677 4329 1814 
Q 4390 1952 4499 2045 
Q 4608 2138 4787 2138 
Q 4973 2138 5078 2045 
Q 5184 1952 5241 1814 
Q 5299 1677 5315 1513 
Q 5331 1350 5331 1210 
Q 5331 1062 5312 896 
Q 5293 730 5232 592 
Q 5171 454 5062 364 
Q 4954 275 4768 275 
Q 4589 275 4483 368 
Q 4378 461 4320 598 
Q 4262 736 4246 899 
Q 4230 1062 4230 1203 
z
M 3750 1190 
Q 3750 928 3804 697 
Q 3859 467 3980 297 
Q 4102 128 4300 29 
Q 4499 -70 4787 -70 
Q 5069 -70 5261 35 
Q 5453 141 5577 317 
Q 5702 493 5756 726 
Q 5811 960 5811 1210 
Q 5811 1472 5763 1705 
Q 5715 1939 5596 2112 
Q 5478 2285 5283 2387 
Q 5088 2490 4787 2490 
Q 4493 2490 4294 2384 
Q 4096 2278 3974 2099 
Q 3853 1920 3801 1686 
Q 3750 1453 3750 1190 
z
M 4646 4621 
L 1203 -134 
L 1754 -134 
L 5190 4621 
L 4646 4621 
z
" transform="scale(0.015625)"/>
     </defs>
     <use xlink:href="#HelveticaNeue-30"/>
     <use xlink:href="#HelveticaNeue-2e" transform="translate(55.599991 0)"/>
     <use xlink:href="#HelveticaNeue-35" transform="translate(83.399979 0)"/>
     <use xlink:href="#HelveticaNeue-30" transform="translate(138.999969 0)"/>
     <use xlink:href="#HelveticaNeue-a2" transform="translate(194.59996 0)"/>
     <use xlink:href="#HelveticaNeue-20" transform="translate(250.199951 0)"/>
     <use xlink:href="#HelveticaNeue-20" transform="translate(277.999939 0)"/>
     <use xlink:href="#HelveticaNeue-20" transform="translate(305.799927 0)"/>
     <use xlink:href="#HelveticaNeue-28" transform="translate(333.599915 0)"/>
     <use xlink:href="#HelveticaNeue-32" transform="translate(359.499908 0)"/>
     <use xlink:href="#HelveticaNeue-36" transform="translate(415.099899 0)"/>
     <use xlink:href="#HelveticaNeue-25" transform="translate(470.69989 0)"/>
     <use xlink:href="#HelveticaNeue-29" transform="translate(570.699875 0)"/>
    </g>
   </g>
   <g id="text_16">
    <!-- 0.63¢   (32%) -->
    <g style="fill: #111827" transform="translate(653.118157 172.184653) scale(0.11 -0.11)">
     <use xlink:href="#HelveticaNeue-30"/>
     <use xlink:href="#HelveticaNeue-2e" transform="translate(55.599991 0)"/>
     <use xlink:href="#HelveticaNeue-36" transform="translate(83.399979 0)"/>
     <use xlink:href="#HelveticaNeue-33" transform="translate(138.999969 0)"/>
     <use xlink:href="#HelveticaNeue-a2" transform="translate(194.59996 0)"/>
     <use xlink:href="#HelveticaNeue-20" transform="translate(250.199951 0)"/>
     <use xlink:href="#HelveticaNeue-20" transform="translate(277.999939 0)"/>
     <use xlink:href="#HelveticaNeue-20" transform="translate(305.799927 0)"/>
     <use xlink:href="#HelveticaNeue-28" transform="translate(333.599915 0)"/>
     <use xlink:href="#HelveticaNeue-33" transform="translate(359.499908 0)"/>
     <use xlink:href="#HelveticaNeue-32" transform="translate(415.099899 0)"/>
     <use xlink:href="#HelveticaNeue-25" transform="translate(470.69989 0)"/>
     <use xlink:href="#HelveticaNeue-29" transform="translate(570.699875 0)"/>
    </g>
   </g>
   <g id="text_17">
    <!-- 0.59¢   (30%) -->
    <g style="fill: #111827" transform="translate(621.19979 240.128315) scale(0.11 -0.11)">
     <defs>
      <path id="HelveticaNeue-39" d="M 858 1094 
L 314 1094 
Q 365 506 742 218 
Q 1120 -70 1690 -70 
Q 2515 -70 2889 560 
Q 3264 1190 3264 2368 
Q 3264 3014 3139 3433 
Q 3014 3853 2803 4096 
Q 2592 4339 2310 4438 
Q 2029 4538 1709 4538 
Q 1382 4538 1107 4429 
Q 832 4320 633 4125 
Q 435 3930 326 3658 
Q 218 3386 218 3059 
Q 218 2726 310 2444 
Q 403 2163 585 1964 
Q 768 1766 1037 1654 
Q 1306 1542 1651 1542 
Q 1984 1542 2265 1712 
Q 2547 1882 2701 2170 
L 2714 2157 
Q 2688 1267 2438 835 
Q 2189 403 1690 403 
Q 1363 403 1126 582 
Q 890 762 858 1094 
z
M 2618 3021 
Q 2618 2822 2554 2640 
Q 2490 2458 2368 2320 
Q 2246 2182 2073 2102 
Q 1901 2022 1690 2022 
Q 1491 2022 1328 2102 
Q 1165 2182 1046 2316 
Q 928 2451 861 2624 
Q 794 2797 794 2982 
Q 794 3194 842 3386 
Q 890 3578 995 3728 
Q 1101 3878 1270 3968 
Q 1440 4058 1683 4058 
Q 1914 4058 2086 3974 
Q 2259 3891 2377 3747 
Q 2496 3603 2557 3417 
Q 2618 3232 2618 3021 
z
" transform="scale(0.015625)"/>
     </defs>
     <use xlink:href="#HelveticaNeue-30"/>
     <use xlink:href="#HelveticaNeue-2e" transform="translate(55.599991 0)"/>
     <use xlink:href="#HelveticaNeue-35" transform="translate(83.399979 0)"/>
     <use xlink:href="#HelveticaNeue-39" transform="translate(138.999969 0)"/>
     <use xlink:href="#HelveticaNeue-a2" transform="translate(194.59996 0)"/>
     <use xlink:href="#HelveticaNeue-20" transform="translate(250.199951 0)"/>
     <use xlink:href="#HelveticaNeue-20" transform="translate(277.999939 0)"/>
     <use xlink:href="#HelveticaNeue-20" transform="translate(305.799927 0)"/>
     <use xlink:href="#HelveticaNeue-28" transform="translate(333.599915 0)"/>
     <use xlink:href="#HelveticaNeue-33" transform="translate(359.499908 0)"/>
     <use xlink:href="#HelveticaNeue-30" transform="translate(415.099899 0)"/>
     <use xlink:href="#HelveticaNeue-25" transform="translate(470.69989 0)"/>
     <use xlink:href="#HelveticaNeue-29" transform="translate(570.699875 0)"/>
    </g>
   </g>
   <g id="text_18">
    <!-- 0.24¢   (12%) -->
    <g style="fill: #111827" transform="translate(341.914075 308.071977) scale(0.11 -0.11)">
     <use xlink:href="#HelveticaNeue-30"/>
     <use xlink:href="#HelveticaNeue-2e" transform="translate(55.599991 0)"/>
     <use xlink:href="#HelveticaNeue-32" transform="translate(83.399979 0)"/>
     <use xlink:href="#HelveticaNeue-34" transform="translate(138.999969 0)"/>
     <use xlink:href="#HelveticaNeue-a2" transform="translate(194.59996 0)"/>
     <use xlink:href="#HelveticaNeue-20" transform="translate(250.199951 0)"/>
     <use xlink:href="#HelveticaNeue-20" transform="translate(277.999939 0)"/>
     <use xlink:href="#HelveticaNeue-20" transform="translate(305.799927 0)"/>
     <use xlink:href="#HelveticaNeue-28" transform="translate(333.599915 0)"/>
     <use xlink:href="#HelveticaNeue-31" transform="translate(359.499908 0)"/>
     <use xlink:href="#HelveticaNeue-32" transform="translate(415.099899 0)"/>
     <use xlink:href="#HelveticaNeue-25" transform="translate(470.69989 0)"/>
     <use xlink:href="#HelveticaNeue-29" transform="translate(570.699875 0)"/>
    </g>
   </g>
  </g>
  <g id="text_19">
   <!-- Where the 196 cents per call actually go -->
   <g style="fill: #111827" transform="translate(84.764687 24.3375) scale(0.24 -0.24)">
    <defs>
     <path id="HelveticaNeue-57" d="M 4627 0 
L 5850 4570 
L 5242 4570 
L 4314 768 
L 4301 768 
L 3290 4570 
L 2630 4570 
L 1606 768 
L 1594 768 
L 698 4570 
L 77 4570 
L 1248 0 
L 1882 0 
L 2938 3840 
L 2950 3840 
L 3994 0 
L 4627 0 
z
" transform="scale(0.015625)"/>
     <path id="HelveticaNeue-67" d="M 3264 282 
L 3264 3309 
L 2752 3309 
L 2752 2835 
L 2746 2835 
Q 2598 3110 2336 3248 
Q 2074 3386 1760 3386 
Q 1331 3386 1036 3222 
Q 742 3059 563 2806 
Q 384 2554 307 2243 
Q 230 1933 230 1638 
Q 230 1299 323 995 
Q 416 691 601 464 
Q 787 237 1062 102 
Q 1338 -32 1709 -32 
Q 2029 -32 2313 112 
Q 2598 256 2739 563 
L 2752 563 
L 2752 346 
Q 2752 70 2697 -160 
Q 2643 -390 2521 -553 
Q 2400 -717 2214 -809 
Q 2029 -902 1760 -902 
Q 1626 -902 1478 -873 
Q 1331 -845 1206 -781 
Q 1082 -717 995 -614 
Q 909 -512 902 -365 
L 358 -365 
Q 371 -634 499 -819 
Q 627 -1005 822 -1120 
Q 1018 -1235 1258 -1286 
Q 1498 -1338 1728 -1338 
Q 2522 -1338 2893 -934 
Q 3264 -531 3264 282 
z
M 1741 442 
Q 1472 442 1293 554 
Q 1114 666 1005 848 
Q 896 1030 851 1254 
Q 806 1478 806 1702 
Q 806 1939 860 2156 
Q 915 2374 1033 2540 
Q 1152 2707 1337 2806 
Q 1523 2906 1786 2906 
Q 2042 2906 2221 2803 
Q 2400 2701 2512 2531 
Q 2624 2362 2675 2150 
Q 2726 1939 2726 1722 
Q 2726 1491 2672 1260 
Q 2618 1030 2502 848 
Q 2387 666 2198 554 
Q 2010 442 1741 442 
z
" transform="scale(0.015625)"/>
    </defs>
    <use xlink:href="#HelveticaNeue-57"/>
    <use xlink:href="#HelveticaNeue-68" transform="translate(92.599991 0)"/>
    <use xlink:href="#HelveticaNeue-65" transform="translate(148.199982 0)"/>
    <use xlink:href="#HelveticaNeue-72" transform="translate(201.899979 0)"/>
    <use xlink:href="#HelveticaNeue-65" transform="translate(233.449966 0)"/>
    <use xlink:href="#HelveticaNeue-20" transform="translate(287.149963 0)"/>
    <use xlink:href="#HelveticaNeue-74" transform="translate(314.949951 0)"/>
    <use xlink:href="#HelveticaNeue-68" transform="translate(346.449936 0)"/>
    <use xlink:href="#HelveticaNeue-65" transform="translate(402.049927 0)"/>
    <use xlink:href="#HelveticaNeue-20" transform="translate(455.749924 0)"/>
    <use xlink:href="#HelveticaNeue-31" transform="translate(483.549911 0)"/>
    <use xlink:href="#HelveticaNeue-39" transform="translate(539.149902 0)"/>
    <use xlink:href="#HelveticaNeue-36" transform="translate(594.749893 0)"/>
    <use xlink:href="#HelveticaNeue-20" transform="translate(650.349884 0)"/>
    <use xlink:href="#HelveticaNeue-63" transform="translate(678.149872 0)"/>
    <use xlink:href="#HelveticaNeue-65" transform="translate(731.849869 0)"/>
    <use xlink:href="#HelveticaNeue-6e" transform="translate(785.549866 0)"/>
    <use xlink:href="#HelveticaNeue-74" transform="translate(841.149857 0)"/>
    <use xlink:href="#HelveticaNeue-73" transform="translate(872.649841 0)"/>
    <use xlink:href="#HelveticaNeue-20" transform="translate(922.649826 0)"/>
    <use xlink:href="#HelveticaNeue-70" transform="translate(950.449814 0)"/>
    <use xlink:href="#HelveticaNeue-65" transform="translate(1009.749802 0)"/>
    <use xlink:href="#HelveticaNeue-72" transform="translate(1063.449799 0)"/>
    <use xlink:href="#HelveticaNeue-20" transform="translate(1096.749786 0)"/>
    <use xlink:href="#HelveticaNeue-63" transform="translate(1124.549774 0)"/>
    <use xlink:href="#HelveticaNeue-61" transform="translate(1178.249771 0)"/>
    <use xlink:href="#HelveticaNeue-6c" transform="translate(1231.949768 0)"/>
    <use xlink:href="#HelveticaNeue-6c" transform="translate(1254.149765 0)"/>
    <use xlink:href="#HelveticaNeue-20" transform="translate(1276.349762 0)"/>
    <use xlink:href="#HelveticaNeue-61" transform="translate(1304.14975 0)"/>
    <use xlink:href="#HelveticaNeue-63" transform="translate(1357.849747 0)"/>
    <use xlink:href="#HelveticaNeue-74" transform="translate(1411.549744 0)"/>
    <use xlink:href="#HelveticaNeue-75" transform="translate(1443.049728 0)"/>
    <use xlink:href="#HelveticaNeue-61" transform="translate(1498.649719 0)"/>
    <use xlink:href="#HelveticaNeue-6c" transform="translate(1552.349716 0)"/>
    <use xlink:href="#HelveticaNeue-6c" transform="translate(1574.549713 0)"/>
    <use xlink:href="#HelveticaNeue-79" transform="translate(1596.74971 0)"/>
    <use xlink:href="#HelveticaNeue-20" transform="translate(1646.749695 0)"/>
    <use xlink:href="#HelveticaNeue-67" transform="translate(1674.549683 0)"/>
    <use xlink:href="#HelveticaNeue-6f" transform="translate(1731.949677 0)"/>
   </g>
  </g>
  <g id="text_20">
   <!-- Production Indic stack, per-call breakdown. The LLM — which dominates engineering headlines — is the smallest line item. -->
   <g style="fill: #4b5563" transform="translate(84.764687 42.222812) scale(0.13 -0.13)">
    <defs>
     <path id="HelveticaNeue-6b" d="M 442 4570 
L 442 0 
L 986 0 
L 986 1254 
L 1498 1728 
L 2630 0 
L 3322 0 
L 1914 2106 
L 3226 3309 
L 2496 3309 
L 986 1862 
L 986 4570 
L 442 4570 
z
" transform="scale(0.015625)"/>
     <path id="HelveticaNeue-2c" d="M 531 710 
L 531 0 
L 909 0 
Q 915 -77 899 -166 
Q 883 -256 838 -342 
Q 794 -429 720 -502 
Q 646 -576 538 -614 
L 538 -934 
Q 909 -826 1075 -563 
Q 1242 -301 1242 64 
L 1242 710 
L 531 710 
z
" transform="scale(0.015625)"/>
     <path id="HelveticaNeue-77" d="M 3686 0 
L 4742 3309 
L 4179 3309 
L 3437 602 
L 3424 602 
L 2733 3309 
L 2138 3309 
L 1472 602 
L 1459 602 
L 710 3309 
L 109 3309 
L 1171 0 
L 1760 0 
L 2426 2630 
L 2438 2630 
L 3110 0 
L 3686 0 
z
" transform="scale(0.015625)"/>
     <path id="HelveticaNeue-2014" d="M 832 2035 
L 832 1523 
L 5568 1523 
L 5568 2035 
L 832 2035 
z
" transform="scale(0.015625)"/>
    </defs>
    <use xlink:href="#HelveticaNeue-50"/>
    <use xlink:href="#HelveticaNeue-72" transform="translate(64.799988 0)"/>
    <use xlink:href="#HelveticaNeue-6f" transform="translate(96.349976 0)"/>
    <use xlink:href="#HelveticaNeue-64" transform="translate(153.749969 0)"/>
    <use xlink:href="#HelveticaNeue-75" transform="translate(213.049957 0)"/>
    <use xlink:href="#HelveticaNeue-63" transform="translate(268.649948 0)"/>
    <use xlink:href="#HelveticaNeue-74" transform="translate(322.349945 0)"/>
    <use xlink:href="#HelveticaNeue-69" transform="translate(353.84993 0)"/>
    <use xlink:href="#HelveticaNeue-6f" transform="translate(376.049927 0)"/>
    <use xlink:href="#HelveticaNeue-6e" transform="translate(433.449921 0)"/>
    <use xlink:href="#HelveticaNeue-20" transform="translate(489.049911 0)"/>
    <use xlink:href="#HelveticaNeue-49" transform="translate(516.849899 0)"/>
    <use xlink:href="#HelveticaNeue-6e" transform="translate(542.749893 0)"/>
    <use xlink:href="#HelveticaNeue-64" transform="translate(598.349884 0)"/>
    <use xlink:href="#HelveticaNeue-69" transform="translate(657.649872 0)"/>
    <use xlink:href="#HelveticaNeue-63" transform="translate(679.849869 0)"/>
    <use xlink:href="#HelveticaNeue-20" transform="translate(733.549866 0)"/>
    <use xlink:href="#HelveticaNeue-73" transform="translate(761.349854 0)"/>
    <use xlink:href="#HelveticaNeue-74" transform="translate(811.349838 0)"/>
    <use xlink:href="#HelveticaNeue-61" transform="translate(842.849823 0)"/>
    <use xlink:href="#HelveticaNeue-63" transform="translate(896.54982 0)"/>
    <use xlink:href="#HelveticaNeue-6b" transform="translate(950.249817 0)"/>
    <use xlink:href="#HelveticaNeue-2c" transform="translate(1002.149811 0)"/>
    <use xlink:href="#HelveticaNeue-20" transform="translate(1029.949799 0)"/>
    <use xlink:href="#HelveticaNeue-70" transform="translate(1057.749786 0)"/>
    <use xlink:href="#HelveticaNeue-65" transform="translate(1117.049774 0)"/>
    <use xlink:href="#HelveticaNeue-72" transform="translate(1170.749771 0)"/>
    <use xlink:href="#HelveticaNeue-2d" transform="translate(1198.549759 0)"/>
    <use xlink:href="#HelveticaNeue-63" transform="translate(1237.449753 0)"/>
    <use xlink:href="#HelveticaNeue-61" transform="translate(1291.14975 0)"/>
    <use xlink:href="#HelveticaNeue-6c" transform="translate(1344.849747 0)"/>
    <use xlink:href="#HelveticaNeue-6c" transform="translate(1367.049744 0)"/>
    <use xlink:href="#HelveticaNeue-20" transform="translate(1389.249741 0)"/>
    <use xlink:href="#HelveticaNeue-62" transform="translate(1417.049728 0)"/>
    <use xlink:href="#HelveticaNeue-72" transform="translate(1476.349716 0)"/>
    <use xlink:href="#HelveticaNeue-65" transform="translate(1507.899704 0)"/>
    <use xlink:href="#HelveticaNeue-61" transform="translate(1561.599701 0)"/>
    <use xlink:href="#HelveticaNeue-6b" transform="translate(1615.299698 0)"/>
    <use xlink:href="#HelveticaNeue-64" transform="translate(1667.199692 0)"/>
    <use xlink:href="#HelveticaNeue-6f" transform="translate(1726.49968 0)"/>
    <use xlink:href="#HelveticaNeue-77" transform="translate(1783.899673 0)"/>
    <use xlink:href="#HelveticaNeue-6e" transform="translate(1859.699661 0)"/>
    <use xlink:href="#HelveticaNeue-2e" transform="translate(1915.299652 0)"/>
    <use xlink:href="#HelveticaNeue-20" transform="translate(1943.09964 0)"/>
    <use xlink:href="#HelveticaNeue-54" transform="translate(1970.899628 0)"/>
    <use xlink:href="#HelveticaNeue-68" transform="translate(2028.299622 0)"/>
    <use xlink:href="#HelveticaNeue-65" transform="translate(2083.899612 0)"/>
    <use xlink:href="#HelveticaNeue-20" transform="translate(2137.599609 0)"/>
    <use xlink:href="#HelveticaNeue-4c" transform="translate(2165.399597 0)"/>
    <use xlink:href="#HelveticaNeue-4c" transform="translate(2220.999588 0)"/>
    <use xlink:href="#HelveticaNeue-4d" transform="translate(2276.599579 0)"/>
    <use xlink:href="#HelveticaNeue-20" transform="translate(2363.69957 0)"/>
    <use xlink:href="#HelveticaNeue-2014" transform="translate(2391.499557 0)"/>
    <use xlink:href="#HelveticaNeue-20" transform="translate(2491.499542 0)"/>
    <use xlink:href="#HelveticaNeue-77" transform="translate(2519.29953 0)"/>
    <use xlink:href="#HelveticaNeue-68" transform="translate(2595.099518 0)"/>
    <use xlink:href="#HelveticaNeue-69" transform="translate(2650.699509 0)"/>
    <use xlink:href="#HelveticaNeue-63" transform="translate(2672.899506 0)"/>
    <use xlink:href="#HelveticaNeue-68" transform="translate(2726.599503 0)"/>
    <use xlink:href="#HelveticaNeue-20" transform="translate(2782.199493 0)"/>
    <use xlink:href="#HelveticaNeue-64" transform="translate(2809.999481 0)"/>
    <use xlink:href="#HelveticaNeue-6f" transform="translate(2869.299469 0)"/>
    <use xlink:href="#HelveticaNeue-6d" transform="translate(2926.699463 0)"/>
    <use xlink:href="#HelveticaNeue-69" transform="translate(3011.999451 0)"/>
    <use xlink:href="#HelveticaNeue-6e" transform="translate(3034.199448 0)"/>
    <use xlink:href="#HelveticaNeue-61" transform="translate(3089.799438 0)"/>
    <use xlink:href="#HelveticaNeue-74" transform="translate(3143.499435 0)"/>
    <use xlink:href="#HelveticaNeue-65" transform="translate(3174.99942 0)"/>
    <use xlink:href="#HelveticaNeue-73" transform="translate(3228.699417 0)"/>
    <use xlink:href="#HelveticaNeue-20" transform="translate(3278.699402 0)"/>
    <use xlink:href="#HelveticaNeue-65" transform="translate(3306.49939 0)"/>
    <use xlink:href="#HelveticaNeue-6e" transform="translate(3360.199387 0)"/>
    <use xlink:href="#HelveticaNeue-67" transform="translate(3415.799377 0)"/>
    <use xlink:href="#HelveticaNeue-69" transform="translate(3473.199371 0)"/>
    <use xlink:href="#HelveticaNeue-6e" transform="translate(3495.399368 0)"/>
    <use xlink:href="#HelveticaNeue-65" transform="translate(3550.999359 0)"/>
    <use xlink:href="#HelveticaNeue-65" transform="translate(3604.699356 0)"/>
    <use xlink:href="#HelveticaNeue-72" transform="translate(3658.399353 0)"/>
    <use xlink:href="#HelveticaNeue-69" transform="translate(3691.699341 0)"/>
    <use xlink:href="#HelveticaNeue-6e" transform="translate(3713.899338 0)"/>
    <use xlink:href="#HelveticaNeue-67" transform="translate(3769.499329 0)"/>
    <use xlink:href="#HelveticaNeue-20" transform="translate(3826.899323 0)"/>
    <use xlink:href="#HelveticaNeue-68" transform="translate(3854.69931 0)"/>
    <use xlink:href="#HelveticaNeue-65" transform="translate(3910.299301 0)"/>
    <use xlink:href="#HelveticaNeue-61" transform="translate(3963.999298 0)"/>
    <use xlink:href="#HelveticaNeue-64" transform="translate(4017.699295 0)"/>
    <use xlink:href="#HelveticaNeue-6c" transform="translate(4076.999283 0)"/>
    <use xlink:href="#HelveticaNeue-69" transform="translate(4099.19928 0)"/>
    <use xlink:href="#HelveticaNeue-6e" transform="translate(4121.399277 0)"/>
    <use xlink:href="#HelveticaNeue-65" transform="translate(4176.999268 0)"/>
    <use xlink:href="#HelveticaNeue-73" transform="translate(4230.699265 0)"/>
    <use xlink:href="#HelveticaNeue-20" transform="translate(4280.699249 0)"/>
    <use xlink:href="#HelveticaNeue-2014" transform="translate(4308.499237 0)"/>
    <use xlink:href="#HelveticaNeue-20" transform="translate(4408.499222 0)"/>
    <use xlink:href="#HelveticaNeue-69" transform="translate(4436.29921 0)"/>
    <use xlink:href="#HelveticaNeue-73" transform="translate(4458.499207 0)"/>
    <use xlink:href="#HelveticaNeue-20" transform="translate(4508.499191 0)"/>
    <use xlink:href="#HelveticaNeue-74" transform="translate(4536.299179 0)"/>
    <use xlink:href="#HelveticaNeue-68" transform="translate(4567.799164 0)"/>
    <use xlink:href="#HelveticaNeue-65" transform="translate(4623.399155 0)"/>
    <use xlink:href="#HelveticaNeue-20" transform="translate(4677.099152 0)"/>
    <use xlink:href="#HelveticaNeue-73" transform="translate(4704.899139 0)"/>
    <use xlink:href="#HelveticaNeue-6d" transform="translate(4754.899124 0)"/>
    <use xlink:href="#HelveticaNeue-61" transform="translate(4840.199112 0)"/>
    <use xlink:href="#HelveticaNeue-6c" transform="translate(4893.899109 0)"/>
    <use xlink:href="#HelveticaNeue-6c" transform="translate(4916.099106 0)"/>
    <use xlink:href="#HelveticaNeue-65" transform="translate(4938.299103 0)"/>
    <use xlink:href="#HelveticaNeue-73" transform="translate(4991.9991 0)"/>
    <use xlink:href="#HelveticaNeue-74" transform="translate(5041.999084 0)"/>
    <use xlink:href="#HelveticaNeue-20" transform="translate(5073.499069 0)"/>
    <use xlink:href="#HelveticaNeue-6c" transform="translate(5101.299057 0)"/>
    <use xlink:href="#HelveticaNeue-69" transform="translate(5123.499054 0)"/>
    <use xlink:href="#HelveticaNeue-6e" transform="translate(5145.699051 0)"/>
    <use xlink:href="#HelveticaNeue-65" transform="translate(5201.299042 0)"/>
    <use xlink:href="#HelveticaNeue-20" transform="translate(5254.999039 0)"/>
    <use xlink:href="#HelveticaNeue-69" transform="translate(5282.799026 0)"/>
    <use xlink:href="#HelveticaNeue-74" transform="translate(5304.999023 0)"/>
    <use xlink:href="#HelveticaNeue-65" transform="translate(5336.499008 0)"/>
    <use xlink:href="#HelveticaNeue-6d" transform="translate(5390.199005 0)"/>
    <use xlink:href="#HelveticaNeue-2e" transform="translate(5475.498993 0)"/>
   </g>
  </g>
  <g id="text_21">
   <!-- Source: Derived from chart_08 monthly cost ÷ 8000 calls. Indian SIP via Plivo. All component prices cited in evidence/research/*.md. Captured 2026-05-24. -->
   <g style="fill: #7a7670" transform="translate(84.764687 375.596719) scale(0.09 -0.09)">
    <defs>
     <path id="HelveticaNeue-3a" d="M 1242 2598 
L 1242 3309 
L 531 3309 
L 531 2598 
L 1242 2598 
z
M 531 710 
L 531 0 
L 1242 0 
L 1242 710 
L 531 710 
z
" transform="scale(0.015625)"/>
     <path id="HelveticaNeue-44" d="M 1107 512 
L 1107 4058 
L 2131 4058 
Q 2554 4058 2842 3939 
Q 3130 3821 3312 3593 
Q 3494 3366 3574 3043 
Q 3654 2720 3654 2310 
Q 3654 1888 3568 1590 
Q 3482 1293 3347 1094 
Q 3213 896 3043 781 
Q 2874 666 2701 605 
Q 2528 544 2374 528 
Q 2221 512 2118 512 
L 1107 512 
z
M 499 4570 
L 499 0 
L 2067 0 
Q 2637 0 3053 160 
Q 3469 320 3737 624 
Q 4006 928 4134 1373 
Q 4262 1818 4262 2394 
Q 4262 3494 3692 4032 
Q 3123 4570 2067 4570 
L 499 4570 
z
" transform="scale(0.015625)"/>
     <path id="HelveticaNeue-66" d="M 634 2829 
L 634 0 
L 1178 0 
L 1178 2829 
L 1818 2829 
L 1818 3309 
L 1178 3309 
L 1178 3770 
Q 1178 3987 1286 4064 
Q 1395 4141 1594 4141 
Q 1664 4141 1747 4131 
Q 1830 4122 1901 4096 
L 1901 4570 
Q 1824 4595 1725 4608 
Q 1626 4621 1549 4621 
Q 1101 4621 867 4413 
Q 634 4205 634 3802 
L 634 3309 
L 77 3309 
L 77 2829 
L 634 2829 
z
" transform="scale(0.015625)"/>
     <path id="HelveticaNeue-5f" d="M 0 -474 
L 0 -794 
L 3200 -794 
L 3200 -474 
L 0 -474 
z
" transform="scale(0.015625)"/>
     <path id="HelveticaNeue-f7" d="M 1510 301 
Q 1510 134 1635 16 
Q 1760 -102 1926 -102 
Q 2086 -102 2208 22 
Q 2330 147 2330 301 
Q 2330 467 2208 588 
Q 2086 710 1920 710 
Q 1754 710 1632 588 
Q 1510 467 1510 301 
z
M 1510 2938 
Q 1510 2771 1635 2649 
Q 1760 2528 1926 2528 
Q 2086 2528 2208 2656 
Q 2330 2784 2330 2938 
Q 2330 3104 2208 3225 
Q 2086 3347 1920 3347 
Q 1754 3347 1632 3225 
Q 1510 3104 1510 2938 
z
M 307 1837 
L 307 1402 
L 3533 1402 
L 3533 1837 
L 307 1837 
z
" transform="scale(0.015625)"/>
     <path id="HelveticaNeue-41" d="M 1286 1888 
L 2061 4019 
L 2074 4019 
L 2835 1888 
L 1286 1888 
z
M 1741 4570 
L -38 0 
L 582 0 
L 1094 1376 
L 3027 1376 
L 3526 0 
L 4198 0 
L 2413 4570 
L 1741 4570 
z
" transform="scale(0.015625)"/>
     <path id="HelveticaNeue-2f" d="M 1779 4678 
L -109 -102 
L 352 -102 
L 2246 4678 
L 1779 4678 
z
" transform="scale(0.015625)"/>
     <path id="HelveticaNeue-2a" d="M 1286 3846 
L 1286 4570 
L 947 4570 
L 947 3846 
L 269 4102 
L 154 3795 
L 832 3552 
L 416 2970 
L 704 2771 
L 1120 3386 
L 1562 2771 
L 1824 2970 
L 1402 3552 
L 2099 3795 
L 1971 4102 
L 1286 3846 
z
" transform="scale(0.015625)"/>
    </defs>
    <use xlink:href="#HelveticaNeue-53"/>
    <use xlink:href="#HelveticaNeue-6f" transform="translate(64.799988 0)"/>
    <use xlink:href="#HelveticaNeue-75" transform="translate(122.199982 0)"/>
    <use xlink:href="#HelveticaNeue-72" transform="translate(177.799973 0)"/>
    <use xlink:href="#HelveticaNeue-63" transform="translate(209.34996 0)"/>
    <use xlink:href="#HelveticaNeue-65" transform="translate(263.049957 0)"/>
    <use xlink:href="#HelveticaNeue-3a" transform="translate(316.749954 0)"/>
    <use xlink:href="#HelveticaNeue-20" transform="translate(344.549942 0)"/>
    <use xlink:href="#HelveticaNeue-44" transform="translate(372.34993 0)"/>
    <use xlink:href="#HelveticaNeue-65" transform="translate(442.749924 0)"/>
    <use xlink:href="#HelveticaNeue-72" transform="translate(496.449921 0)"/>
    <use xlink:href="#HelveticaNeue-69" transform="translate(529.749908 0)"/>
    <use xlink:href="#HelveticaNeue-76" transform="translate(551.949905 0)"/>
    <use xlink:href="#HelveticaNeue-65" transform="translate(601.94989 0)"/>
    <use xlink:href="#HelveticaNeue-64" transform="translate(655.649887 0)"/>
    <use xlink:href="#HelveticaNeue-20" transform="translate(714.949875 0)"/>
    <use xlink:href="#HelveticaNeue-66" transform="translate(742.749863 0)"/>
    <use xlink:href="#HelveticaNeue-72" transform="translate(772.349854 0)"/>
    <use xlink:href="#HelveticaNeue-6f" transform="translate(803.899841 0)"/>
    <use xlink:href="#HelveticaNeue-6d" transform="translate(861.299835 0)"/>
    <use xlink:href="#HelveticaNeue-20" transform="translate(946.599823 0)"/>
    <use xlink:href="#HelveticaNeue-63" transform="translate(974.399811 0)"/>
    <use xlink:href="#HelveticaNeue-68" transform="translate(1028.099808 0)"/>
    <use xlink:href="#HelveticaNeue-61" transform="translate(1083.699799 0)"/>
    <use xlink:href="#HelveticaNeue-72" transform="translate(1137.399796 0)"/>
    <use xlink:href="#HelveticaNeue-74" transform="translate(1170.699783 0)"/>
    <use xlink:href="#HelveticaNeue-5f" transform="translate(1202.199768 0)"/>
    <use xlink:href="#HelveticaNeue-30" transform="translate(1252.199753 0)"/>
    <use xlink:href="#HelveticaNeue-38" transform="translate(1307.799744 0)"/>
    <use xlink:href="#HelveticaNeue-20" transform="translate(1363.399734 0)"/>
    <use xlink:href="#HelveticaNeue-6d" transform="translate(1391.199722 0)"/>
    <use xlink:href="#HelveticaNeue-6f" transform="translate(1476.49971 0)"/>
    <use xlink:href="#HelveticaNeue-6e" transform="translate(1533.899704 0)"/>
    <use xlink:href="#HelveticaNeue-74" transform="translate(1589.499695 0)"/>
    <use xlink:href="#HelveticaNeue-68" transform="translate(1620.99968 0)"/>
    <use xlink:href="#HelveticaNeue-6c" transform="translate(1676.59967 0)"/>
    <use xlink:href="#HelveticaNeue-79" transform="translate(1698.799667 0)"/>
    <use xlink:href="#HelveticaNeue-20" transform="translate(1748.799652 0)"/>
    <use xlink:href="#HelveticaNeue-63" transform="translate(1776.59964 0)"/>
    <use xlink:href="#HelveticaNeue-6f" transform="translate(1830.299637 0)"/>
    <use xlink:href="#HelveticaNeue-73" transform="translate(1887.699631 0)"/>
    <use xlink:href="#HelveticaNeue-74" transform="translate(1937.699615 0)"/>
    <use xlink:href="#HelveticaNeue-20" transform="translate(1969.1996 0)"/>
    <use xlink:href="#HelveticaNeue-f7" transform="translate(1996.999588 0)"/>
    <use xlink:href="#HelveticaNeue-20" transform="translate(2056.999573 0)"/>
    <use xlink:href="#HelveticaNeue-38" transform="translate(2084.799561 0)"/>
    <use xlink:href="#HelveticaNeue-30" transform="translate(2140.399551 0)"/>
    <use xlink:href="#HelveticaNeue-30" transform="translate(2195.999542 0)"/>
    <use xlink:href="#HelveticaNeue-30" transform="translate(2251.599533 0)"/>
    <use xlink:href="#HelveticaNeue-20" transform="translate(2307.199524 0)"/>
    <use xlink:href="#HelveticaNeue-63" transform="translate(2334.999512 0)"/>
    <use xlink:href="#HelveticaNeue-61" transform="translate(2388.699509 0)"/>
    <use xlink:href="#HelveticaNeue-6c" transform="translate(2442.399506 0)"/>
    <use xlink:href="#HelveticaNeue-6c" transform="translate(2464.599503 0)"/>
    <use xlink:href="#HelveticaNeue-73" transform="translate(2486.7995 0)"/>
    <use xlink:href="#HelveticaNeue-2e" transform="translate(2536.799484 0)"/>
    <use xlink:href="#HelveticaNeue-20" transform="translate(2564.599472 0)"/>
    <use xlink:href="#HelveticaNeue-49" transform="translate(2592.39946 0)"/>
    <use xlink:href="#HelveticaNeue-6e" transform="translate(2618.299454 0)"/>
    <use xlink:href="#HelveticaNeue-64" transform="translate(2673.899445 0)"/>
    <use xlink:href="#HelveticaNeue-69" transform="translate(2733.199432 0)"/>
    <use xlink:href="#HelveticaNeue-61" transform="translate(2755.399429 0)"/>
    <use xlink:href="#HelveticaNeue-6e" transform="translate(2809.099426 0)"/>
    <use xlink:href="#HelveticaNeue-20" transform="translate(2864.699417 0)"/>
    <use xlink:href="#HelveticaNeue-53" transform="translate(2892.499405 0)"/>
    <use xlink:href="#HelveticaNeue-49" transform="translate(2957.299393 0)"/>
    <use xlink:href="#HelveticaNeue-50" transform="translate(2983.199387 0)"/>
    <use xlink:href="#HelveticaNeue-20" transform="translate(3047.999374 0)"/>
    <use xlink:href="#HelveticaNeue-76" transform="translate(3075.799362 0)"/>
    <use xlink:href="#HelveticaNeue-69" transform="translate(3125.799347 0)"/>
    <use xlink:href="#HelveticaNeue-61" transform="translate(3147.999344 0)"/>
    <use xlink:href="#HelveticaNeue-20" transform="translate(3201.699341 0)"/>
    <use xlink:href="#HelveticaNeue-50" transform="translate(3229.499329 0)"/>
    <use xlink:href="#HelveticaNeue-6c" transform="translate(3294.299316 0)"/>
    <use xlink:href="#HelveticaNeue-69" transform="translate(3316.499313 0)"/>
    <use xlink:href="#HelveticaNeue-76" transform="translate(3338.69931 0)"/>
    <use xlink:href="#HelveticaNeue-6f" transform="translate(3388.699295 0)"/>
    <use xlink:href="#HelveticaNeue-2e" transform="translate(3446.099289 0)"/>
    <use xlink:href="#HelveticaNeue-20" transform="translate(3473.899277 0)"/>
    <use xlink:href="#HelveticaNeue-41" transform="translate(3501.699265 0)"/>
    <use xlink:href="#HelveticaNeue-6c" transform="translate(3566.499252 0)"/>
    <use xlink:href="#HelveticaNeue-6c" transform="translate(3588.699249 0)"/>
    <use xlink:href="#HelveticaNeue-20" transform="translate(3610.899246 0)"/>
    <use xlink:href="#HelveticaNeue-63" transform="translate(3638.699234 0)"/>
    <use xlink:href="#HelveticaNeue-6f" transform="translate(3692.399231 0)"/>
    <use xlink:href="#HelveticaNeue-6d" transform="translate(3749.799225 0)"/>
    <use xlink:href="#HelveticaNeue-70" transform="translate(3835.099213 0)"/>
    <use xlink:href="#HelveticaNeue-6f" transform="translate(3894.3992 0)"/>
    <use xlink:href="#HelveticaNeue-6e" transform="translate(3951.799194 0)"/>
    <use xlink:href="#HelveticaNeue-65" transform="translate(4007.399185 0)"/>
    <use xlink:href="#HelveticaNeue-6e" transform="translate(4061.099182 0)"/>
    <use xlink:href="#HelveticaNeue-74" transform="translate(4116.699173 0)"/>
    <use xlink:href="#HelveticaNeue-20" transform="translate(4148.199158 0)"/>
    <use xlink:href="#HelveticaNeue-70" transform="translate(4175.999146 0)"/>
    <use xlink:href="#HelveticaNeue-72" transform="translate(4235.299133 0)"/>
    <use xlink:href="#HelveticaNeue-69" transform="translate(4268.599121 0)"/>
    <use xlink:href="#HelveticaNeue-63" transform="translate(4290.799118 0)"/>
    <use xlink:href="#HelveticaNeue-65" transform="translate(4344.499115 0)"/>
    <use xlink:href="#HelveticaNeue-73" transform="translate(4398.199112 0)"/>
    <use xlink:href="#HelveticaNeue-20" transform="translate(4448.199097 0)"/>
    <use xlink:href="#HelveticaNeue-63" transform="translate(4475.999084 0)"/>
    <use xlink:href="#HelveticaNeue-69" transform="translate(4529.699081 0)"/>
    <use xlink:href="#HelveticaNeue-74" transform="translate(4551.899078 0)"/>
    <use xlink:href="#HelveticaNeue-65" transform="translate(4583.399063 0)"/>
    <use xlink:href="#HelveticaNeue-64" transform="translate(4637.09906 0)"/>
    <use xlink:href="#HelveticaNeue-20" transform="translate(4696.399048 0)"/>
    <use xlink:href="#HelveticaNeue-69" transform="translate(4724.199036 0)"/>
    <use xlink:href="#HelveticaNeue-6e" transform="translate(4746.399033 0)"/>
    <use xlink:href="#HelveticaNeue-20" transform="translate(4801.999023 0)"/>
    <use xlink:href="#HelveticaNeue-65" transform="translate(4829.799011 0)"/>
    <use xlink:href="#HelveticaNeue-76" transform="translate(4883.499008 0)"/>
    <use xlink:href="#HelveticaNeue-69" transform="translate(4933.498993 0)"/>
    <use xlink:href="#HelveticaNeue-64" transform="translate(4955.69899 0)"/>
    <use xlink:href="#HelveticaNeue-65" transform="translate(5014.998978 0)"/>
    <use xlink:href="#HelveticaNeue-6e" transform="translate(5068.698975 0)"/>
    <use xlink:href="#HelveticaNeue-63" transform="translate(5124.298965 0)"/>
    <use xlink:href="#HelveticaNeue-65" transform="translate(5177.998962 0)"/>
    <use xlink:href="#HelveticaNeue-2f" transform="translate(5231.698959 0)"/>
    <use xlink:href="#HelveticaNeue-72" transform="translate(5264.998947 0)"/>
    <use xlink:href="#HelveticaNeue-65" transform="translate(5296.548935 0)"/>
    <use xlink:href="#HelveticaNeue-73" transform="translate(5350.248932 0)"/>
    <use xlink:href="#HelveticaNeue-65" transform="translate(5400.248917 0)"/>
    <use xlink:href="#HelveticaNeue-61" transform="translate(5453.948914 0)"/>
    <use xlink:href="#HelveticaNeue-72" transform="translate(5507.648911 0)"/>
    <use xlink:href="#HelveticaNeue-63" transform="translate(5539.198898 0)"/>
    <use xlink:href="#HelveticaNeue-68" transform="translate(5592.898895 0)"/>
    <use xlink:href="#HelveticaNeue-2f" transform="translate(5648.498886 0)"/>
    <use xlink:href="#HelveticaNeue-2a" transform="translate(5681.798874 0)"/>
    <use xlink:href="#HelveticaNeue-2e" transform="translate(5716.998871 0)"/>
    <use xlink:href="#HelveticaNeue-6d" transform="translate(5744.798859 0)"/>
    <use xlink:href="#HelveticaNeue-64" transform="translate(5830.098846 0)"/>
    <use xlink:href="#HelveticaNeue-2e" transform="translate(5889.398834 0)"/>
    <use xlink:href="#HelveticaNeue-20" transform="translate(5917.198822 0)"/>
    <use xlink:href="#HelveticaNeue-43" transform="translate(5944.99881 0)"/>
    <use xlink:href="#HelveticaNeue-61" transform="translate(6017.198792 0)"/>
    <use xlink:href="#HelveticaNeue-70" transform="translate(6070.898788 0)"/>
    <use xlink:href="#HelveticaNeue-74" transform="translate(6130.198776 0)"/>
    <use xlink:href="#HelveticaNeue-75" transform="translate(6161.698761 0)"/>
    <use xlink:href="#HelveticaNeue-72" transform="translate(6217.298752 0)"/>
    <use xlink:href="#HelveticaNeue-65" transform="translate(6248.84874 0)"/>
    <use xlink:href="#HelveticaNeue-64" transform="translate(6302.548737 0)"/>
    <use xlink:href="#HelveticaNeue-20" transform="translate(6361.848724 0)"/>
    <use xlink:href="#HelveticaNeue-32" transform="translate(6389.648712 0)"/>
    <use xlink:href="#HelveticaNeue-30" transform="translate(6445.248703 0)"/>
    <use xlink:href="#HelveticaNeue-32" transform="translate(6500.848694 0)"/>
    <use xlink:href="#HelveticaNeue-36" transform="translate(6556.448685 0)"/>
    <use xlink:href="#HelveticaNeue-2d" transform="translate(6612.048676 0)"/>
    <use xlink:href="#HelveticaNeue-30" transform="translate(6650.948669 0)"/>
    <use xlink:href="#HelveticaNeue-35" transform="translate(6706.54866 0)"/>
    <use xlink:href="#HelveticaNeue-2d" transform="translate(6762.148651 0)"/>
    <use xlink:href="#HelveticaNeue-32" transform="translate(6801.048645 0)"/>
    <use xlink:href="#HelveticaNeue-34" transform="translate(6856.648636 0)"/>
    <use xlink:href="#HelveticaNeue-2e" transform="translate(6912.248627 0)"/>
   </g>
  </g>
 </g>
 <defs>
  <clipPath id="pf6c5a0bc61">
   <rect x="134.444687" y="70.56" width="703.8" height="265.32"/>
  </clipPath>
 </defs>
</svg>
