<?xml version="1.0" encoding="utf-8" standalone="no"?>
<!DOCTYPE svg PUBLIC "-//W3C//DTD SVG 1.1//EN"
  "http://www.w3.org/Graphics/SVG/1.1/DTD/svg11.dtd">
<svg xmlns:xlink="http://www.w3.org/1999/xlink" width="889.419844pt" height="519.3pt" viewBox="0 0 889.419844 519.3" xmlns="http://www.w3.org/2000/svg" version="1.1">
 <metadata>
  <rdf:RDF xmlns:dc="http://purl.org/dc/elements/1.1/" xmlns:cc="http://creativecommons.org/ns#" xmlns:rdf="http://www.w3.org/1999/02/22-rdf-syntax-ns#">
   <cc:Work>
    <dc:type rdf:resource="http://purl.org/dc/dcmitype/StillImage"/>
    <dc:date>2026-05-24T15:39:29.931714</dc:date>
    <dc:format>image/svg+xml</dc:format>
    <dc:creator>
     <cc:Agent>
      <dc:title>Matplotlib v3.10.9, https://matplotlib.org/</dc:title>
     </cc:Agent>
    </dc:creator>
   </cc:Work>
  </rdf:RDF>
 </metadata>
 <defs>
  <style type="text/css">*{stroke-linejoin: round; stroke-linecap: butt}</style>
 </defs>
 <g id="figure_1">
  <g id="patch_1">
   <path d="M 0 519.3 
L 889.419844 519.3 
L 889.419844 0 
L 0 0 
z
" style="fill: #faf7f2"/>
  </g>
  <g id="axes_1">
   <g id="patch_2">
    <path d="M 63.36 455.4 
L 858.96 455.4 
L 858.96 93.6 
L 63.36 93.6 
z
" style="fill: #faf7f2"/>
   </g>
   <g id="matplotlib.axis_1">
    <g id="xtick_1">
     <g id="line2d_1">
      <path d="M 146.422567 455.4 
L 146.422567 93.6 
" clip-path="url(#p9131b8ce91)" style="fill: none; stroke: #d8d4cc; stroke-width: 0.8; stroke-linecap: square"/>
     </g>
     <g id="line2d_2">
      <defs>
       <path id="m1d48bb2e7b" d="M 0 0 
L 0 3.5 
" style="stroke: #4b5563; stroke-width: 0.8"/>
      </defs>
      <g>
       <use xlink:href="#m1d48bb2e7b" x="146.422567" y="455.4" style="fill: #4b5563; stroke: #4b5563; stroke-width: 0.8"/>
      </g>
     </g>
     <g id="text_1">
      <!-- $0.0005 -->
      <g style="fill: #4b5563" transform="translate(128.354598 472.040625) scale(0.1 -0.1)">
       <defs>
        <path id="HelveticaNeue-24" d="M 704 1395 
L 160 1395 
Q 211 723 588 342 
Q 966 -38 1606 -102 
L 1606 -627 
L 1958 -627 
L 1958 -102 
Q 2266 -77 2522 25 
Q 2778 128 2963 304 
Q 3149 480 3254 723 
Q 3360 966 3360 1280 
Q 3360 1574 3248 1785 
Q 3136 1997 2976 2137 
Q 2816 2278 2643 2358 
Q 2470 2438 2342 2470 
L 1958 2573 
L 1958 4147 
Q 2547 4038 2675 3405 
L 3219 3405 
Q 3091 3968 2784 4288 
Q 2477 4608 1958 4672 
L 1958 5101 
L 1606 5101 
L 1606 4678 
Q 1331 4659 1091 4556 
Q 851 4454 675 4278 
Q 499 4102 396 3862 
Q 294 3622 294 3334 
Q 294 3053 371 2854 
Q 448 2656 611 2518 
Q 774 2381 1020 2281 
Q 1267 2182 1606 2099 
L 1606 403 
Q 1222 467 969 716 
Q 717 966 704 1395 
z
M 1958 403 
L 1958 2010 
Q 2131 1958 2284 1897 
Q 2438 1837 2547 1747 
Q 2656 1658 2720 1533 
Q 2784 1408 2784 1222 
Q 2784 1018 2723 867 
Q 2662 717 2550 617 
Q 2438 518 2288 467 
Q 2138 416 1958 403 
z
M 1606 4166 
L 1606 2669 
Q 1446 2714 1312 2771 
Q 1178 2829 1078 2909 
Q 979 2989 924 3107 
Q 870 3226 870 3392 
Q 870 3757 1084 3945 
Q 1299 4134 1606 4166 
z
" transform="scale(0.015625)"/>
        <path id="HelveticaNeue-30" d="M 845 2234 
Q 845 2400 848 2601 
Q 851 2803 880 3004 
Q 909 3206 963 3398 
Q 1018 3590 1123 3734 
Q 1229 3878 1389 3968 
Q 1549 4058 1779 4058 
Q 2010 4058 2170 3968 
Q 2330 3878 2435 3734 
Q 2541 3590 2595 3398 
Q 2650 3206 2678 3004 
Q 2707 2803 2710 2601 
Q 2714 2400 2714 2234 
Q 2714 1978 2698 1661 
Q 2682 1344 2595 1065 
Q 2509 787 2317 595 
Q 2125 403 1779 403 
Q 1434 403 1242 595 
Q 1050 787 963 1065 
Q 877 1344 861 1661 
Q 845 1978 845 2234 
z
M 269 2227 
Q 269 1978 281 1709 
Q 294 1440 345 1184 
Q 397 928 493 701 
Q 589 474 755 301 
Q 922 128 1174 29 
Q 1427 -70 1779 -70 
Q 2138 -70 2387 29 
Q 2637 128 2803 301 
Q 2970 474 3066 701 
Q 3162 928 3213 1184 
Q 3264 1440 3277 1709 
Q 3290 1978 3290 2227 
Q 3290 2477 3277 2745 
Q 3264 3014 3213 3270 
Q 3162 3526 3066 3756 
Q 2970 3987 2803 4160 
Q 2637 4333 2384 4435 
Q 2131 4538 1779 4538 
Q 1427 4538 1174 4435 
Q 922 4333 755 4160 
Q 589 3987 493 3756 
Q 397 3526 345 3270 
Q 294 3014 281 2745 
Q 269 2477 269 2227 
z
" transform="scale(0.015625)"/>
        <path id="HelveticaNeue-2e" d="M 531 710 
L 531 0 
L 1242 0 
L 1242 710 
L 531 710 
z
" transform="scale(0.015625)"/>
        <path id="HelveticaNeue-35" d="M 3008 3981 
L 3008 4461 
L 768 4461 
L 346 2106 
L 813 2080 
Q 973 2272 1181 2390 
Q 1389 2509 1658 2509 
Q 1888 2509 2077 2432 
Q 2266 2355 2400 2217 
Q 2534 2080 2608 1891 
Q 2682 1702 2682 1478 
Q 2682 1210 2605 1008 
Q 2528 806 2397 672 
Q 2266 538 2090 470 
Q 1914 403 1722 403 
Q 1517 403 1347 464 
Q 1178 525 1053 637 
Q 928 749 854 899 
Q 781 1050 768 1222 
L 224 1222 
Q 230 915 345 672 
Q 461 429 659 265 
Q 858 102 1117 16 
Q 1376 -70 1670 -70 
Q 2067 -70 2364 54 
Q 2662 179 2860 390 
Q 3059 602 3158 874 
Q 3258 1146 3258 1434 
Q 3258 1824 3142 2115 
Q 3027 2406 2828 2601 
Q 2630 2797 2361 2893 
Q 2093 2989 1792 2989 
Q 1562 2989 1328 2909 
Q 1094 2829 947 2662 
L 934 2675 
L 1178 3981 
L 3008 3981 
z
" transform="scale(0.015625)"/>
       </defs>
       <use xlink:href="#HelveticaNeue-24"/>
       <use xlink:href="#HelveticaNeue-30" transform="translate(55.599991 0)"/>
       <use xlink:href="#HelveticaNeue-2e" transform="translate(111.199982 0)"/>
       <use xlink:href="#HelveticaNeue-30" transform="translate(138.999969 0)"/>
       <use xlink:href="#HelveticaNeue-30" transform="translate(194.59996 0)"/>
       <use xlink:href="#HelveticaNeue-30" transform="translate(250.199951 0)"/>
       <use xlink:href="#HelveticaNeue-35" transform="translate(305.799942 0)"/>
      </g>
     </g>
    </g>
    <g id="xtick_2">
     <g id="line2d_3">
      <path d="M 259.131446 455.4 
L 259.131446 93.6 
" clip-path="url(#p9131b8ce91)" style="fill: none; stroke: #d8d4cc; stroke-width: 0.8; stroke-linecap: square"/>
     </g>
     <g id="line2d_4">
      <g>
       <use xlink:href="#m1d48bb2e7b" x="259.131446" y="455.4" style="fill: #4b5563; stroke: #4b5563; stroke-width: 0.8"/>
      </g>
     </g>
     <g id="text_2">
      <!-- $0.001 -->
      <g style="fill: #4b5563" transform="translate(243.843165 472.040625) scale(0.1 -0.1)">
       <defs>
        <path id="HelveticaNeue-31" d="M 2278 0 
L 2278 4538 
L 1862 4538 
Q 1818 4282 1696 4115 
Q 1574 3949 1398 3853 
Q 1222 3757 1004 3721 
Q 787 3686 557 3686 
L 557 3251 
L 1734 3251 
L 1734 0 
L 2278 0 
z
" transform="scale(0.015625)"/>
       </defs>
       <use xlink:href="#HelveticaNeue-24"/>
       <use xlink:href="#HelveticaNeue-30" transform="translate(55.599991 0)"/>
       <use xlink:href="#HelveticaNeue-2e" transform="translate(111.199982 0)"/>
       <use xlink:href="#HelveticaNeue-30" transform="translate(138.999969 0)"/>
       <use xlink:href="#HelveticaNeue-30" transform="translate(194.59996 0)"/>
       <use xlink:href="#HelveticaNeue-31" transform="translate(250.199951 0)"/>
      </g>
     </g>
    </g>
    <g id="xtick_3">
     <g id="line2d_5">
      <path d="M 437.770794 455.4 
L 437.770794 93.6 
" clip-path="url(#p9131b8ce91)" style="fill: none; stroke: #d8d4cc; stroke-width: 0.8; stroke-linecap: square"/>
     </g>
     <g id="line2d_6">
      <g>
       <use xlink:href="#m1d48bb2e7b" x="437.770794" y="455.4" style="fill: #4b5563; stroke: #4b5563; stroke-width: 0.8"/>
      </g>
     </g>
     <g id="text_3">
      <!-- $0.003 -->
      <g style="fill: #4b5563" transform="translate(422.482513 472.040625) scale(0.1 -0.1)">
       <defs>
        <path id="HelveticaNeue-33" d="M 1395 2592 
L 1395 2131 
Q 1549 2150 1722 2150 
Q 1926 2150 2102 2096 
Q 2278 2042 2406 1930 
Q 2534 1818 2611 1654 
Q 2688 1491 2688 1280 
Q 2688 1075 2608 912 
Q 2528 749 2393 637 
Q 2259 525 2080 464 
Q 1901 403 1702 403 
Q 1235 403 992 681 
Q 749 960 736 1402 
L 192 1402 
Q 186 1050 291 774 
Q 397 499 595 310 
Q 794 122 1075 26 
Q 1357 -70 1702 -70 
Q 2022 -70 2307 16 
Q 2592 102 2803 275 
Q 3014 448 3139 707 
Q 3264 966 3264 1306 
Q 3264 1715 3062 2016 
Q 2861 2317 2445 2406 
L 2445 2419 
Q 2714 2541 2893 2777 
Q 3072 3014 3072 3322 
Q 3072 3635 2966 3865 
Q 2861 4096 2675 4243 
Q 2490 4390 2237 4464 
Q 1984 4538 1690 4538 
Q 1350 4538 1091 4429 
Q 832 4320 659 4128 
Q 486 3936 393 3667 
Q 301 3398 288 3072 
L 832 3072 
Q 832 3270 883 3449 
Q 934 3629 1040 3763 
Q 1146 3898 1309 3978 
Q 1472 4058 1690 4058 
Q 2035 4058 2265 3875 
Q 2496 3693 2496 3328 
Q 2496 3149 2425 3008 
Q 2355 2867 2236 2774 
Q 2118 2682 1961 2634 
Q 1805 2586 1632 2586 
L 1517 2586 
Q 1485 2586 1453 2586 
Q 1427 2586 1395 2592 
z
" transform="scale(0.015625)"/>
       </defs>
       <use xlink:href="#HelveticaNeue-24"/>
       <use xlink:href="#HelveticaNeue-30" transform="translate(55.599991 0)"/>
       <use xlink:href="#HelveticaNeue-2e" transform="translate(111.199982 0)"/>
       <use xlink:href="#HelveticaNeue-30" transform="translate(138.999969 0)"/>
       <use xlink:href="#HelveticaNeue-30" transform="translate(194.59996 0)"/>
       <use xlink:href="#HelveticaNeue-33" transform="translate(250.199951 0)"/>
      </g>
     </g>
    </g>
    <g id="xtick_4">
     <g id="line2d_7">
      <path d="M 550.479674 455.4 
L 550.479674 93.6 
" clip-path="url(#p9131b8ce91)" style="fill: none; stroke: #d8d4cc; stroke-width: 0.8; stroke-linecap: square"/>
     </g>
     <g id="line2d_8">
      <g>
       <use xlink:href="#m1d48bb2e7b" x="550.479674" y="455.4" style="fill: #4b5563; stroke: #4b5563; stroke-width: 0.8"/>
      </g>
     </g>
     <g id="text_4">
      <!-- $0.006 -->
      <g style="fill: #4b5563" transform="translate(535.191393 472.040625) scale(0.1 -0.1)">
       <defs>
        <path id="HelveticaNeue-36" d="M 2650 3379 
L 3194 3379 
Q 3142 3942 2809 4240 
Q 2477 4538 1914 4538 
Q 1427 4538 1107 4333 
Q 787 4128 595 3789 
Q 403 3450 323 3011 
Q 243 2573 243 2106 
Q 243 1747 297 1363 
Q 352 979 518 659 
Q 685 339 992 134 
Q 1299 -70 1805 -70 
Q 2234 -70 2525 74 
Q 2816 218 2992 438 
Q 3168 659 3245 928 
Q 3322 1197 3322 1446 
Q 3322 1760 3226 2029 
Q 3130 2298 2954 2496 
Q 2778 2694 2518 2806 
Q 2259 2918 1933 2918 
Q 1562 2918 1277 2777 
Q 992 2637 800 2323 
L 787 2336 
Q 794 2598 838 2899 
Q 883 3200 1001 3459 
Q 1120 3718 1331 3888 
Q 1542 4058 1888 4058 
Q 2214 4058 2412 3872 
Q 2611 3686 2650 3379 
z
M 1830 2438 
Q 2061 2438 2233 2355 
Q 2406 2272 2521 2134 
Q 2637 1997 2691 1808 
Q 2746 1619 2746 1408 
Q 2746 1210 2685 1027 
Q 2624 845 2509 704 
Q 2394 563 2224 483 
Q 2054 403 1830 403 
Q 1606 403 1430 483 
Q 1254 563 1136 697 
Q 1018 832 954 1017 
Q 890 1203 890 1414 
Q 890 1626 950 1814 
Q 1011 2003 1132 2140 
Q 1254 2278 1427 2358 
Q 1600 2438 1830 2438 
z
" transform="scale(0.015625)"/>
       </defs>
       <use xlink:href="#HelveticaNeue-24"/>
       <use xlink:href="#HelveticaNeue-30" transform="translate(55.599991 0)"/>
       <use xlink:href="#HelveticaNeue-2e" transform="translate(111.199982 0)"/>
       <use xlink:href="#HelveticaNeue-30" transform="translate(138.999969 0)"/>
       <use xlink:href="#HelveticaNeue-30" transform="translate(194.59996 0)"/>
       <use xlink:href="#HelveticaNeue-36" transform="translate(250.199951 0)"/>
      </g>
     </g>
    </g>
    <g id="xtick_5">
     <g id="line2d_9">
      <path d="M 633.54224 455.4 
L 633.54224 93.6 
" clip-path="url(#p9131b8ce91)" style="fill: none; stroke: #d8d4cc; stroke-width: 0.8; stroke-linecap: square"/>
     </g>
     <g id="line2d_10">
      <g>
       <use xlink:href="#m1d48bb2e7b" x="633.54224" y="455.4" style="fill: #4b5563; stroke: #4b5563; stroke-width: 0.8"/>
      </g>
     </g>
     <g id="text_5">
      <!-- $0.01 -->
      <g style="fill: #4b5563" transform="translate(621.033647 472.040625) scale(0.1 -0.1)">
       <use xlink:href="#HelveticaNeue-24"/>
       <use xlink:href="#HelveticaNeue-30" transform="translate(55.599991 0)"/>
       <use xlink:href="#HelveticaNeue-2e" transform="translate(111.199982 0)"/>
       <use xlink:href="#HelveticaNeue-30" transform="translate(138.999969 0)"/>
       <use xlink:href="#HelveticaNeue-31" transform="translate(194.59996 0)"/>
      </g>
     </g>
    </g>
    <g id="xtick_6">
     <g id="line2d_11">
      <path d="M 746.25112 455.4 
L 746.25112 93.6 
" clip-path="url(#p9131b8ce91)" style="fill: none; stroke: #d8d4cc; stroke-width: 0.8; stroke-linecap: square"/>
     </g>
     <g id="line2d_12">
      <g>
       <use xlink:href="#m1d48bb2e7b" x="746.25112" y="455.4" style="fill: #4b5563; stroke: #4b5563; stroke-width: 0.8"/>
      </g>
     </g>
     <g id="text_6">
      <!-- $0.02 -->
      <g style="fill: #4b5563" transform="translate(733.742526 472.040625) scale(0.1 -0.1)">
       <defs>
        <path id="HelveticaNeue-32" d="M 282 2931 
L 826 2931 
Q 819 3136 867 3337 
Q 915 3539 1024 3699 
Q 1133 3859 1302 3958 
Q 1472 4058 1709 4058 
Q 1888 4058 2048 4000 
Q 2208 3942 2326 3833 
Q 2445 3725 2515 3574 
Q 2586 3424 2586 3238 
Q 2586 3002 2512 2822 
Q 2438 2643 2294 2489 
Q 2150 2336 1932 2185 
Q 1715 2035 1427 1856 
Q 1190 1715 972 1555 
Q 755 1395 582 1184 
Q 410 973 298 688 
Q 186 403 154 0 
L 3117 0 
L 3117 480 
L 787 480 
Q 826 691 950 854 
Q 1075 1018 1251 1158 
Q 1427 1299 1638 1424 
Q 1850 1549 2061 1677 
Q 2272 1811 2470 1958 
Q 2669 2106 2822 2288 
Q 2976 2470 3069 2700 
Q 3162 2931 3162 3232 
Q 3162 3552 3050 3795 
Q 2938 4038 2746 4201 
Q 2554 4365 2294 4451 
Q 2035 4538 1741 4538 
Q 1382 4538 1100 4416 
Q 819 4294 630 4080 
Q 442 3866 352 3571 
Q 262 3277 282 2931 
z
" transform="scale(0.015625)"/>
       </defs>
       <use xlink:href="#HelveticaNeue-24"/>
       <use xlink:href="#HelveticaNeue-30" transform="translate(55.599991 0)"/>
       <use xlink:href="#HelveticaNeue-2e" transform="translate(111.199982 0)"/>
       <use xlink:href="#HelveticaNeue-30" transform="translate(138.999969 0)"/>
       <use xlink:href="#HelveticaNeue-32" transform="translate(194.59996 0)"/>
      </g>
     </g>
    </g>
    <g id="xtick_7">
     <g id="line2d_13">
      <path d="M 812.181588 455.4 
L 812.181588 93.6 
" clip-path="url(#p9131b8ce91)" style="fill: none; stroke: #d8d4cc; stroke-width: 0.8; stroke-linecap: square"/>
     </g>
     <g id="line2d_14">
      <g>
       <use xlink:href="#m1d48bb2e7b" x="812.181588" y="455.4" style="fill: #4b5563; stroke: #4b5563; stroke-width: 0.8"/>
      </g>
     </g>
     <g id="text_7">
      <!-- $0.03 -->
      <g style="fill: #4b5563" transform="translate(799.672995 472.040625) scale(0.1 -0.1)">
       <use xlink:href="#HelveticaNeue-24"/>
       <use xlink:href="#HelveticaNeue-30" transform="translate(55.599991 0)"/>
       <use xlink:href="#HelveticaNeue-2e" transform="translate(111.199982 0)"/>
       <use xlink:href="#HelveticaNeue-30" transform="translate(138.999969 0)"/>
       <use xlink:href="#HelveticaNeue-33" transform="translate(194.59996 0)"/>
      </g>
     </g>
    </g>
    <g id="xtick_8">
     <g id="line2d_15">
      <defs>
       <path id="ma0376bd306" d="M 0 0 
L 0 2 
" style="stroke: #4b5563; stroke-width: 0.6"/>
      </defs>
      <g>
       <use xlink:href="#ma0376bd306" x="63.36" y="455.4" style="fill: #4b5563; stroke: #4b5563; stroke-width: 0.6"/>
      </g>
     </g>
    </g>
    <g id="xtick_9">
     <g id="line2d_16">
      <g>
       <use xlink:href="#ma0376bd306" x="110.138412" y="455.4" style="fill: #4b5563; stroke: #4b5563; stroke-width: 0.6"/>
      </g>
     </g>
    </g>
    <g id="xtick_10">
     <g id="line2d_17">
      <g>
       <use xlink:href="#ma0376bd306" x="176.06888" y="455.4" style="fill: #4b5563; stroke: #4b5563; stroke-width: 0.6"/>
      </g>
     </g>
    </g>
    <g id="xtick_11">
     <g id="line2d_18">
      <g>
       <use xlink:href="#ma0376bd306" x="201.13448" y="455.4" style="fill: #4b5563; stroke: #4b5563; stroke-width: 0.6"/>
      </g>
     </g>
    </g>
    <g id="xtick_12">
     <g id="line2d_19">
      <g>
       <use xlink:href="#ma0376bd306" x="222.847291" y="455.4" style="fill: #4b5563; stroke: #4b5563; stroke-width: 0.6"/>
      </g>
     </g>
    </g>
    <g id="xtick_13">
     <g id="line2d_20">
      <g>
       <use xlink:href="#ma0376bd306" x="241.999348" y="455.4" style="fill: #4b5563; stroke: #4b5563; stroke-width: 0.6"/>
      </g>
     </g>
    </g>
    <g id="xtick_14">
     <g id="line2d_21">
      <g>
       <use xlink:href="#ma0376bd306" x="371.840326" y="455.4" style="fill: #4b5563; stroke: #4b5563; stroke-width: 0.6"/>
      </g>
     </g>
    </g>
    <g id="xtick_15">
     <g id="line2d_22">
      <g>
       <use xlink:href="#ma0376bd306" x="484.549206" y="455.4" style="fill: #4b5563; stroke: #4b5563; stroke-width: 0.6"/>
      </g>
     </g>
    </g>
    <g id="xtick_16">
     <g id="line2d_23">
      <g>
       <use xlink:href="#ma0376bd306" x="520.833361" y="455.4" style="fill: #4b5563; stroke: #4b5563; stroke-width: 0.6"/>
      </g>
     </g>
    </g>
    <g id="xtick_17">
     <g id="line2d_24">
      <g>
       <use xlink:href="#ma0376bd306" x="575.545275" y="455.4" style="fill: #4b5563; stroke: #4b5563; stroke-width: 0.6"/>
      </g>
     </g>
    </g>
    <g id="xtick_18">
     <g id="line2d_25">
      <g>
       <use xlink:href="#ma0376bd306" x="597.258086" y="455.4" style="fill: #4b5563; stroke: #4b5563; stroke-width: 0.6"/>
      </g>
     </g>
    </g>
    <g id="xtick_19">
     <g id="line2d_26">
      <g>
       <use xlink:href="#ma0376bd306" x="616.410142" y="455.4" style="fill: #4b5563; stroke: #4b5563; stroke-width: 0.6"/>
      </g>
     </g>
    </g>
    <g id="xtick_20">
     <g id="line2d_27">
      <g>
       <use xlink:href="#ma0376bd306" x="858.96" y="455.4" style="fill: #4b5563; stroke: #4b5563; stroke-width: 0.6"/>
      </g>
     </g>
    </g>
    <g id="text_8">
     <!-- Cost per minute (USD, log scale; hosted) -->
     <g style="fill: #4b5563" transform="translate(361.020469 486.05125) scale(0.11 -0.11)">
      <defs>
       <path id="HelveticaNeue-43" d="M 3712 3194 
L 4320 3194 
Q 4269 3558 4102 3836 
Q 3936 4115 3686 4300 
Q 3437 4486 3117 4582 
Q 2797 4678 2438 4678 
Q 1914 4678 1507 4489 
Q 1101 4301 829 3974 
Q 557 3648 416 3209 
Q 275 2771 275 2272 
Q 275 1773 406 1337 
Q 538 902 800 582 
Q 1062 262 1459 80 
Q 1856 -102 2387 -102 
Q 3264 -102 3769 378 
Q 4275 858 4365 1722 
L 3757 1722 
Q 3738 1440 3642 1197 
Q 3546 954 3376 778 
Q 3206 602 2972 502 
Q 2739 403 2438 403 
Q 2029 403 1734 556 
Q 1440 710 1251 969 
Q 1062 1229 972 1577 
Q 883 1926 883 2317 
Q 883 2675 972 3008 
Q 1062 3341 1251 3600 
Q 1440 3859 1731 4012 
Q 2022 4166 2432 4166 
Q 2912 4166 3261 3923 
Q 3610 3680 3712 3194 
z
" transform="scale(0.015625)"/>
       <path id="HelveticaNeue-6f" d="M 806 1651 
Q 806 1952 886 2185 
Q 966 2419 1107 2579 
Q 1248 2739 1437 2822 
Q 1626 2906 1837 2906 
Q 2048 2906 2237 2822 
Q 2426 2739 2566 2579 
Q 2707 2419 2787 2185 
Q 2867 1952 2867 1651 
Q 2867 1350 2787 1116 
Q 2707 883 2566 726 
Q 2426 570 2237 486 
Q 2048 403 1837 403 
Q 1626 403 1437 486 
Q 1248 570 1107 726 
Q 966 883 886 1116 
Q 806 1350 806 1651 
z
M 230 1651 
Q 230 1286 332 972 
Q 435 659 640 425 
Q 845 192 1145 61 
Q 1446 -70 1837 -70 
Q 2234 -70 2531 61 
Q 2829 192 3033 425 
Q 3238 659 3340 972 
Q 3443 1286 3443 1651 
Q 3443 2016 3340 2333 
Q 3238 2650 3033 2883 
Q 2829 3117 2531 3251 
Q 2234 3386 1837 3386 
Q 1446 3386 1145 3251 
Q 845 3117 640 2883 
Q 435 2650 332 2333 
Q 230 2016 230 1651 
z
" transform="scale(0.015625)"/>
       <path id="HelveticaNeue-73" d="M 742 1043 
L 198 1043 
Q 211 736 326 521 
Q 442 307 634 176 
Q 826 45 1075 -12 
Q 1325 -70 1600 -70 
Q 1850 -70 2102 -22 
Q 2355 26 2556 147 
Q 2758 269 2883 467 
Q 3008 666 3008 966 
Q 3008 1203 2915 1363 
Q 2822 1523 2672 1628 
Q 2522 1734 2326 1798 
Q 2131 1862 1926 1907 
Q 1734 1952 1542 1993 
Q 1350 2035 1196 2096 
Q 1043 2157 944 2249 
Q 845 2342 845 2483 
Q 845 2611 909 2691 
Q 973 2771 1075 2819 
Q 1178 2867 1302 2886 
Q 1427 2906 1549 2906 
Q 1683 2906 1814 2877 
Q 1946 2848 2054 2784 
Q 2163 2720 2233 2614 
Q 2304 2509 2317 2349 
L 2861 2349 
Q 2842 2650 2733 2851 
Q 2624 3053 2441 3171 
Q 2259 3290 2022 3338 
Q 1786 3386 1504 3386 
Q 1286 3386 1065 3331 
Q 845 3277 669 3165 
Q 493 3053 381 2873 
Q 269 2694 269 2445 
Q 269 2125 429 1945 
Q 589 1766 829 1667 
Q 1069 1568 1350 1513 
Q 1632 1459 1872 1392 
Q 2112 1325 2272 1216 
Q 2432 1107 2432 896 
Q 2432 742 2355 643 
Q 2278 544 2160 493 
Q 2042 442 1901 422 
Q 1760 403 1632 403 
Q 1466 403 1309 435 
Q 1152 467 1027 540 
Q 902 614 825 739 
Q 749 864 742 1043 
z
" transform="scale(0.015625)"/>
       <path id="HelveticaNeue-74" d="M 1165 3309 
L 1165 4301 
L 621 4301 
L 621 3309 
L 58 3309 
L 58 2829 
L 621 2829 
L 621 723 
Q 621 493 665 352 
Q 710 211 803 134 
Q 896 58 1046 29 
Q 1197 0 1408 0 
L 1824 0 
L 1824 480 
L 1574 480 
Q 1446 480 1366 489 
Q 1286 499 1241 531 
Q 1197 563 1181 620 
Q 1165 678 1165 774 
L 1165 2829 
L 1824 2829 
L 1824 3309 
L 1165 3309 
z
" transform="scale(0.015625)"/>
       <path id="HelveticaNeue-20" transform="scale(0.015625)"/>
       <path id="HelveticaNeue-70" d="M 429 3309 
L 429 -1261 
L 973 -1261 
L 973 442 
L 986 442 
Q 1075 294 1206 195 
Q 1338 96 1485 38 
Q 1632 -19 1782 -44 
Q 1933 -70 2054 -70 
Q 2432 -70 2717 64 
Q 3002 198 3190 432 
Q 3379 666 3472 979 
Q 3565 1293 3565 1645 
Q 3565 1997 3469 2310 
Q 3373 2624 3184 2864 
Q 2995 3104 2710 3245 
Q 2426 3386 2042 3386 
Q 1696 3386 1408 3261 
Q 1120 3136 986 2861 
L 973 2861 
L 973 3309 
L 429 3309 
z
M 2989 1683 
Q 2989 1440 2937 1209 
Q 2886 979 2771 800 
Q 2656 621 2467 512 
Q 2278 403 1997 403 
Q 1715 403 1516 508 
Q 1318 614 1193 787 
Q 1069 960 1011 1187 
Q 954 1414 954 1658 
Q 954 1888 1008 2112 
Q 1062 2336 1184 2512 
Q 1306 2688 1498 2797 
Q 1690 2906 1965 2906 
Q 2227 2906 2422 2803 
Q 2618 2701 2742 2528 
Q 2867 2355 2928 2134 
Q 2989 1914 2989 1683 
z
" transform="scale(0.015625)"/>
       <path id="HelveticaNeue-65" d="M 2707 1971 
L 806 1971 
Q 819 2163 889 2332 
Q 960 2502 1081 2630 
Q 1203 2758 1372 2832 
Q 1542 2906 1754 2906 
Q 1958 2906 2128 2832 
Q 2298 2758 2422 2633 
Q 2547 2509 2620 2336 
Q 2694 2163 2707 1971 
z
M 3232 1050 
L 2694 1050 
Q 2624 723 2403 563 
Q 2182 403 1837 403 
Q 1568 403 1369 492 
Q 1171 582 1043 732 
Q 915 883 857 1078 
Q 800 1274 806 1491 
L 3283 1491 
Q 3296 1792 3229 2125 
Q 3162 2458 2986 2739 
Q 2810 3021 2518 3203 
Q 2227 3386 1786 3386 
Q 1446 3386 1161 3258 
Q 877 3130 669 2899 
Q 461 2669 345 2355 
Q 230 2042 230 1664 
Q 243 1286 342 966 
Q 442 646 640 416 
Q 838 186 1129 58 
Q 1421 -70 1818 -70 
Q 2381 -70 2752 211 
Q 3123 493 3232 1050 
z
" transform="scale(0.015625)"/>
       <path id="HelveticaNeue-72" d="M 390 3309 
L 390 0 
L 934 0 
L 934 1472 
Q 934 1792 998 2038 
Q 1062 2285 1203 2457 
Q 1344 2630 1574 2720 
Q 1805 2810 2131 2810 
L 2131 3386 
Q 1690 3398 1402 3206 
Q 1114 3014 915 2611 
L 902 2611 
L 902 3309 
L 390 3309 
z
" transform="scale(0.015625)"/>
       <path id="HelveticaNeue-6d" d="M 410 3309 
L 410 0 
L 954 0 
L 954 2061 
Q 954 2157 1002 2301 
Q 1050 2445 1155 2579 
Q 1261 2714 1430 2810 
Q 1600 2906 1837 2906 
Q 2022 2906 2140 2851 
Q 2259 2797 2329 2697 
Q 2400 2598 2429 2464 
Q 2458 2330 2458 2170 
L 2458 0 
L 3002 0 
L 3002 2061 
Q 3002 2445 3232 2675 
Q 3462 2906 3866 2906 
Q 4064 2906 4189 2848 
Q 4314 2790 4384 2691 
Q 4454 2592 4480 2457 
Q 4506 2323 4506 2170 
L 4506 0 
L 5050 0 
L 5050 2426 
Q 5050 2682 4970 2864 
Q 4890 3046 4746 3161 
Q 4602 3277 4400 3331 
Q 4198 3386 3949 3386 
Q 3622 3386 3350 3238 
Q 3078 3091 2912 2822 
Q 2810 3130 2560 3258 
Q 2310 3386 2003 3386 
Q 1306 3386 934 2822 
L 922 2822 
L 922 3309 
L 410 3309 
z
" transform="scale(0.015625)"/>
       <path id="HelveticaNeue-69" d="M 986 3904 
L 986 4570 
L 442 4570 
L 442 3904 
L 986 3904 
z
M 442 3309 
L 442 0 
L 986 0 
L 986 3309 
L 442 3309 
z
" transform="scale(0.015625)"/>
       <path id="HelveticaNeue-6e" d="M 410 3309 
L 410 0 
L 954 0 
L 954 1869 
Q 954 2093 1014 2281 
Q 1075 2470 1196 2611 
Q 1318 2752 1500 2829 
Q 1683 2906 1933 2906 
Q 2246 2906 2425 2726 
Q 2605 2547 2605 2240 
L 2605 0 
L 3149 0 
L 3149 2176 
Q 3149 2445 3094 2665 
Q 3040 2886 2905 3046 
Q 2771 3206 2553 3296 
Q 2336 3386 2010 3386 
Q 1274 3386 934 2784 
L 922 2784 
L 922 3309 
L 410 3309 
z
" transform="scale(0.015625)"/>
       <path id="HelveticaNeue-75" d="M 3149 0 
L 3149 3309 
L 2605 3309 
L 2605 1440 
Q 2605 1216 2544 1027 
Q 2483 838 2361 697 
Q 2240 557 2057 480 
Q 1875 403 1626 403 
Q 1312 403 1133 582 
Q 954 762 954 1069 
L 954 3309 
L 410 3309 
L 410 1133 
Q 410 864 464 643 
Q 518 422 652 262 
Q 787 102 1004 16 
Q 1222 -70 1549 -70 
Q 1914 -70 2182 74 
Q 2451 218 2624 525 
L 2637 525 
L 2637 0 
L 3149 0 
z
" transform="scale(0.015625)"/>
       <path id="HelveticaNeue-28" d="M 1306 -1261 
L 1722 -1261 
Q 1267 -525 1072 198 
Q 877 922 877 1728 
Q 877 2515 1069 3232 
Q 1261 3949 1722 4678 
L 1306 4678 
Q 806 4019 553 3251 
Q 301 2483 301 1728 
Q 301 1306 371 922 
Q 442 538 573 173 
Q 704 -192 889 -547 
Q 1075 -902 1306 -1261 
z
" transform="scale(0.015625)"/>
       <path id="HelveticaNeue-55" d="M 4147 1651 
L 4147 4570 
L 3539 4570 
L 3539 1651 
Q 3539 1037 3235 720 
Q 2931 403 2349 403 
Q 1734 403 1408 720 
Q 1082 1037 1082 1651 
L 1082 4570 
L 474 4570 
L 474 1651 
Q 474 736 970 317 
Q 1466 -102 2349 -102 
Q 3213 -102 3680 336 
Q 4147 774 4147 1651 
z
" transform="scale(0.015625)"/>
       <path id="HelveticaNeue-53" d="M 3142 3232 
L 3718 3232 
Q 3706 3610 3574 3882 
Q 3443 4154 3216 4333 
Q 2989 4512 2688 4595 
Q 2387 4678 2035 4678 
Q 1722 4678 1424 4598 
Q 1126 4518 892 4355 
Q 659 4192 518 3939 
Q 378 3686 378 3341 
Q 378 3027 502 2819 
Q 627 2611 835 2480 
Q 1043 2349 1305 2269 
Q 1568 2189 1840 2128 
Q 2112 2067 2374 2009 
Q 2637 1952 2845 1859 
Q 3053 1766 3177 1619 
Q 3302 1472 3302 1235 
Q 3302 986 3200 826 
Q 3098 666 2931 573 
Q 2765 480 2557 441 
Q 2349 403 2144 403 
Q 1888 403 1645 467 
Q 1402 531 1219 665 
Q 1037 800 925 1008 
Q 813 1216 813 1504 
L 237 1504 
Q 237 1088 387 784 
Q 538 480 797 285 
Q 1056 90 1398 -6 
Q 1741 -102 2125 -102 
Q 2438 -102 2755 -28 
Q 3072 45 3328 208 
Q 3584 371 3747 630 
Q 3910 890 3910 1254 
Q 3910 1594 3785 1818 
Q 3661 2042 3453 2189 
Q 3245 2336 2982 2422 
Q 2720 2509 2448 2573 
Q 2176 2637 1913 2691 
Q 1651 2746 1443 2829 
Q 1235 2912 1110 3043 
Q 986 3174 986 3386 
Q 986 3610 1072 3760 
Q 1158 3910 1302 4000 
Q 1446 4090 1632 4128 
Q 1818 4166 2010 4166 
Q 2483 4166 2787 3945 
Q 3091 3725 3142 3232 
z
" transform="scale(0.015625)"/>
       <path id="HelveticaNeue-44" d="M 1107 512 
L 1107 4058 
L 2131 4058 
Q 2554 4058 2842 3939 
Q 3130 3821 3312 3593 
Q 3494 3366 3574 3043 
Q 3654 2720 3654 2310 
Q 3654 1888 3568 1590 
Q 3482 1293 3347 1094 
Q 3213 896 3043 781 
Q 2874 666 2701 605 
Q 2528 544 2374 528 
Q 2221 512 2118 512 
L 1107 512 
z
M 499 4570 
L 499 0 
L 2067 0 
Q 2637 0 3053 160 
Q 3469 320 3737 624 
Q 4006 928 4134 1373 
Q 4262 1818 4262 2394 
Q 4262 3494 3692 4032 
Q 3123 4570 2067 4570 
L 499 4570 
z
" transform="scale(0.015625)"/>
       <path id="HelveticaNeue-2c" d="M 531 710 
L 531 0 
L 909 0 
Q 915 -77 899 -166 
Q 883 -256 838 -342 
Q 794 -429 720 -502 
Q 646 -576 538 -614 
L 538 -934 
Q 909 -826 1075 -563 
Q 1242 -301 1242 64 
L 1242 710 
L 531 710 
z
" transform="scale(0.015625)"/>
       <path id="HelveticaNeue-6c" d="M 442 4570 
L 442 0 
L 986 0 
L 986 4570 
L 442 4570 
z
" transform="scale(0.015625)"/>
       <path id="HelveticaNeue-67" d="M 3264 282 
L 3264 3309 
L 2752 3309 
L 2752 2835 
L 2746 2835 
Q 2598 3110 2336 3248 
Q 2074 3386 1760 3386 
Q 1331 3386 1036 3222 
Q 742 3059 563 2806 
Q 384 2554 307 2243 
Q 230 1933 230 1638 
Q 230 1299 323 995 
Q 416 691 601 464 
Q 787 237 1062 102 
Q 1338 -32 1709 -32 
Q 2029 -32 2313 112 
Q 2598 256 2739 563 
L 2752 563 
L 2752 346 
Q 2752 70 2697 -160 
Q 2643 -390 2521 -553 
Q 2400 -717 2214 -809 
Q 2029 -902 1760 -902 
Q 1626 -902 1478 -873 
Q 1331 -845 1206 -781 
Q 1082 -717 995 -614 
Q 909 -512 902 -365 
L 358 -365 
Q 371 -634 499 -819 
Q 627 -1005 822 -1120 
Q 1018 -1235 1258 -1286 
Q 1498 -1338 1728 -1338 
Q 2522 -1338 2893 -934 
Q 3264 -531 3264 282 
z
M 1741 442 
Q 1472 442 1293 554 
Q 1114 666 1005 848 
Q 896 1030 851 1254 
Q 806 1478 806 1702 
Q 806 1939 860 2156 
Q 915 2374 1033 2540 
Q 1152 2707 1337 2806 
Q 1523 2906 1786 2906 
Q 2042 2906 2221 2803 
Q 2400 2701 2512 2531 
Q 2624 2362 2675 2150 
Q 2726 1939 2726 1722 
Q 2726 1491 2672 1260 
Q 2618 1030 2502 848 
Q 2387 666 2198 554 
Q 2010 442 1741 442 
z
" transform="scale(0.015625)"/>
       <path id="HelveticaNeue-63" d="M 2656 2246 
L 3219 2246 
Q 3187 2541 3065 2755 
Q 2944 2970 2755 3110 
Q 2566 3251 2320 3318 
Q 2074 3386 1792 3386 
Q 1402 3386 1107 3248 
Q 813 3110 617 2870 
Q 422 2630 326 2307 
Q 230 1984 230 1613 
Q 230 1242 329 931 
Q 429 621 624 397 
Q 819 173 1110 51 
Q 1402 -70 1779 -70 
Q 2413 -70 2781 262 
Q 3149 595 3238 1210 
L 2682 1210 
Q 2630 826 2403 614 
Q 2176 403 1773 403 
Q 1517 403 1331 505 
Q 1146 608 1030 777 
Q 915 947 860 1164 
Q 806 1382 806 1613 
Q 806 1862 857 2096 
Q 909 2330 1027 2509 
Q 1146 2688 1344 2797 
Q 1542 2906 1837 2906 
Q 2182 2906 2387 2733 
Q 2592 2560 2656 2246 
z
" transform="scale(0.015625)"/>
       <path id="HelveticaNeue-61" d="M 3341 13 
Q 3200 -70 2950 -70 
Q 2739 -70 2614 48 
Q 2490 166 2490 435 
Q 2266 166 1968 48 
Q 1670 -70 1325 -70 
Q 1101 -70 899 -19 
Q 698 32 550 141 
Q 403 250 316 426 
Q 230 602 230 851 
Q 230 1133 326 1312 
Q 422 1491 579 1603 
Q 736 1715 937 1772 
Q 1139 1830 1350 1869 
Q 1574 1914 1776 1936 
Q 1978 1958 2131 2000 
Q 2285 2042 2374 2122 
Q 2464 2202 2464 2355 
Q 2464 2534 2397 2643 
Q 2330 2752 2224 2809 
Q 2118 2867 1987 2886 
Q 1856 2906 1728 2906 
Q 1382 2906 1152 2774 
Q 922 2643 902 2278 
L 358 2278 
Q 371 2586 486 2797 
Q 602 3008 794 3139 
Q 986 3270 1232 3328 
Q 1478 3386 1760 3386 
Q 1984 3386 2205 3354 
Q 2426 3322 2605 3222 
Q 2784 3123 2893 2944 
Q 3002 2765 3002 2477 
L 3002 774 
Q 3002 582 3024 492 
Q 3046 403 3174 403 
Q 3245 403 3341 435 
L 3341 13 
z
M 2458 1709 
Q 2355 1632 2188 1597 
Q 2022 1562 1840 1539 
Q 1658 1517 1472 1488 
Q 1286 1459 1139 1395 
Q 992 1331 899 1212 
Q 806 1094 806 890 
Q 806 755 860 662 
Q 915 570 1001 512 
Q 1088 454 1203 428 
Q 1318 403 1446 403 
Q 1715 403 1907 476 
Q 2099 550 2220 662 
Q 2342 774 2400 905 
Q 2458 1037 2458 1152 
L 2458 1709 
z
" transform="scale(0.015625)"/>
       <path id="HelveticaNeue-3b" d="M 1242 2598 
L 1242 3309 
L 531 3309 
L 531 2598 
L 1242 2598 
z
M 531 710 
L 531 0 
L 909 0 
Q 915 -77 899 -166 
Q 883 -256 838 -342 
Q 794 -429 720 -502 
Q 646 -576 538 -614 
L 538 -934 
Q 909 -826 1078 -563 
Q 1248 -301 1242 64 
L 1242 710 
L 531 710 
z
" transform="scale(0.015625)"/>
       <path id="HelveticaNeue-68" d="M 410 4570 
L 410 0 
L 954 0 
L 954 1869 
Q 954 2093 1014 2281 
Q 1075 2470 1196 2611 
Q 1318 2752 1500 2829 
Q 1683 2906 1933 2906 
Q 2246 2906 2425 2726 
Q 2605 2547 2605 2240 
L 2605 0 
L 3149 0 
L 3149 2176 
Q 3149 2445 3094 2665 
Q 3040 2886 2905 3046 
Q 2771 3206 2553 3296 
Q 2336 3386 2010 3386 
Q 1862 3386 1705 3354 
Q 1549 3322 1405 3254 
Q 1261 3187 1145 3081 
Q 1030 2976 966 2822 
L 954 2822 
L 954 4570 
L 410 4570 
z
" transform="scale(0.015625)"/>
       <path id="HelveticaNeue-64" d="M 806 1626 
Q 806 1869 857 2099 
Q 909 2330 1024 2509 
Q 1139 2688 1331 2797 
Q 1523 2906 1798 2906 
Q 2080 2906 2278 2800 
Q 2477 2694 2601 2521 
Q 2726 2349 2784 2121 
Q 2842 1894 2842 1651 
Q 2842 1421 2787 1197 
Q 2733 973 2611 797 
Q 2490 621 2298 512 
Q 2106 403 1830 403 
Q 1568 403 1373 505 
Q 1178 608 1053 781 
Q 928 954 867 1174 
Q 806 1395 806 1626 
z
M 3366 0 
L 3366 4570 
L 2822 4570 
L 2822 2867 
L 2810 2867 
Q 2720 3014 2589 3113 
Q 2458 3213 2310 3273 
Q 2163 3334 2016 3360 
Q 1869 3386 1741 3386 
Q 1363 3386 1078 3248 
Q 794 3110 605 2876 
Q 416 2643 323 2329 
Q 230 2016 230 1664 
Q 230 1312 326 998 
Q 422 685 611 448 
Q 800 211 1085 70 
Q 1370 -70 1754 -70 
Q 2099 -70 2387 51 
Q 2675 173 2810 448 
L 2822 448 
L 2822 0 
L 3366 0 
z
" transform="scale(0.015625)"/>
       <path id="HelveticaNeue-29" d="M -58 -1261 
L 352 -1261 
Q 851 -602 1104 163 
Q 1357 928 1357 1683 
Q 1357 2106 1286 2490 
Q 1216 2874 1085 3242 
Q 954 3610 768 3965 
Q 582 4320 352 4678 
L -58 4678 
Q 390 3942 585 3216 
Q 781 2490 781 1683 
Q 781 902 589 182 
Q 397 -538 -58 -1261 
z
" transform="scale(0.015625)"/>
      </defs>
      <use xlink:href="#HelveticaNeue-43"/>
      <use xlink:href="#HelveticaNeue-6f" transform="translate(72.199982 0)"/>
      <use xlink:href="#HelveticaNeue-73" transform="translate(129.599976 0)"/>
      <use xlink:href="#HelveticaNeue-74" transform="translate(179.59996 0)"/>
      <use xlink:href="#HelveticaNeue-20" transform="translate(211.099945 0)"/>
      <use xlink:href="#HelveticaNeue-70" transform="translate(238.899933 0)"/>
      <use xlink:href="#HelveticaNeue-65" transform="translate(298.199921 0)"/>
      <use xlink:href="#HelveticaNeue-72" transform="translate(351.899918 0)"/>
      <use xlink:href="#HelveticaNeue-20" transform="translate(385.199905 0)"/>
      <use xlink:href="#HelveticaNeue-6d" transform="translate(412.999893 0)"/>
      <use xlink:href="#HelveticaNeue-69" transform="translate(498.299881 0)"/>
      <use xlink:href="#HelveticaNeue-6e" transform="translate(520.499878 0)"/>
      <use xlink:href="#HelveticaNeue-75" transform="translate(576.099869 0)"/>
      <use xlink:href="#HelveticaNeue-74" transform="translate(631.69986 0)"/>
      <use xlink:href="#HelveticaNeue-65" transform="translate(663.199844 0)"/>
      <use xlink:href="#HelveticaNeue-20" transform="translate(716.899841 0)"/>
      <use xlink:href="#HelveticaNeue-28" transform="translate(744.699829 0)"/>
      <use xlink:href="#HelveticaNeue-55" transform="translate(770.599823 0)"/>
      <use xlink:href="#HelveticaNeue-53" transform="translate(842.799805 0)"/>
      <use xlink:href="#HelveticaNeue-44" transform="translate(907.599792 0)"/>
      <use xlink:href="#HelveticaNeue-2c" transform="translate(977.999786 0)"/>
      <use xlink:href="#HelveticaNeue-20" transform="translate(1005.799774 0)"/>
      <use xlink:href="#HelveticaNeue-6c" transform="translate(1033.599762 0)"/>
      <use xlink:href="#HelveticaNeue-6f" transform="translate(1055.799759 0)"/>
      <use xlink:href="#HelveticaNeue-67" transform="translate(1113.199753 0)"/>
      <use xlink:href="#HelveticaNeue-20" transform="translate(1170.599747 0)"/>
      <use xlink:href="#HelveticaNeue-73" transform="translate(1198.399734 0)"/>
      <use xlink:href="#HelveticaNeue-63" transform="translate(1248.399719 0)"/>
      <use xlink:href="#HelveticaNeue-61" transform="translate(1302.099716 0)"/>
      <use xlink:href="#HelveticaNeue-6c" transform="translate(1355.799713 0)"/>
      <use xlink:href="#HelveticaNeue-65" transform="translate(1377.99971 0)"/>
      <use xlink:href="#HelveticaNeue-3b" transform="translate(1431.699707 0)"/>
      <use xlink:href="#HelveticaNeue-20" transform="translate(1459.499695 0)"/>
      <use xlink:href="#HelveticaNeue-68" transform="translate(1487.299683 0)"/>
      <use xlink:href="#HelveticaNeue-6f" transform="translate(1542.899673 0)"/>
      <use xlink:href="#HelveticaNeue-73" transform="translate(1600.299667 0)"/>
      <use xlink:href="#HelveticaNeue-74" transform="translate(1650.299652 0)"/>
      <use xlink:href="#HelveticaNeue-65" transform="translate(1681.799637 0)"/>
      <use xlink:href="#HelveticaNeue-64" transform="translate(1735.499634 0)"/>
      <use xlink:href="#HelveticaNeue-29" transform="translate(1794.799622 0)"/>
     </g>
    </g>
   </g>
   <g id="matplotlib.axis_2">
    <g id="ytick_1">
     <g id="line2d_28">
      <path d="M 63.36 455.4 
L 858.96 455.4 
" clip-path="url(#p9131b8ce91)" style="fill: none; stroke: #d8d4cc; stroke-width: 0.8; stroke-linecap: square"/>
     </g>
     <g id="text_9">
      <!-- 0 -->
      <g style="fill: #4b5563" transform="translate(48.300625 458.970312) scale(0.1 -0.1)">
       <use xlink:href="#HelveticaNeue-30"/>
      </g>
     </g>
    </g>
    <g id="ytick_2">
     <g id="line2d_29">
      <path d="M 63.36 376.747826 
L 858.96 376.747826 
" clip-path="url(#p9131b8ce91)" style="fill: none; stroke: #d8d4cc; stroke-width: 0.8; stroke-linecap: square"/>
     </g>
     <g id="text_10">
      <!-- 5 -->
      <g style="fill: #4b5563" transform="translate(48.300625 380.318139) scale(0.1 -0.1)">
       <use xlink:href="#HelveticaNeue-35"/>
      </g>
     </g>
    </g>
    <g id="ytick_3">
     <g id="line2d_30">
      <path d="M 63.36 298.095652 
L 858.96 298.095652 
" clip-path="url(#p9131b8ce91)" style="fill: none; stroke: #d8d4cc; stroke-width: 0.8; stroke-linecap: square"/>
     </g>
     <g id="text_11">
      <!-- 10 -->
      <g style="fill: #4b5563" transform="translate(42.74125 301.665965) scale(0.1 -0.1)">
       <use xlink:href="#HelveticaNeue-31"/>
       <use xlink:href="#HelveticaNeue-30" transform="translate(55.599991 0)"/>
      </g>
     </g>
    </g>
    <g id="ytick_4">
     <g id="line2d_31">
      <path d="M 63.36 219.443478 
L 858.96 219.443478 
" clip-path="url(#p9131b8ce91)" style="fill: none; stroke: #d8d4cc; stroke-width: 0.8; stroke-linecap: square"/>
     </g>
     <g id="text_12">
      <!-- 15 -->
      <g style="fill: #4b5563" transform="translate(42.74125 223.013791) scale(0.1 -0.1)">
       <use xlink:href="#HelveticaNeue-31"/>
       <use xlink:href="#HelveticaNeue-35" transform="translate(55.599991 0)"/>
      </g>
     </g>
    </g>
    <g id="ytick_5">
     <g id="line2d_32">
      <path d="M 63.36 140.791304 
L 858.96 140.791304 
" clip-path="url(#p9131b8ce91)" style="fill: none; stroke: #d8d4cc; stroke-width: 0.8; stroke-linecap: square"/>
     </g>
     <g id="text_13">
      <!-- 20 -->
      <g style="fill: #4b5563" transform="translate(42.74125 144.361617) scale(0.1 -0.1)">
       <use xlink:href="#HelveticaNeue-32"/>
       <use xlink:href="#HelveticaNeue-30" transform="translate(55.599991 0)"/>
      </g>
     </g>
    </g>
    <g id="text_14">
     <!-- Hindi WER (%, lower is better) -->
     <g style="fill: #4b5563" transform="translate(36.573906 348.743984) rotate(-90) scale(0.11 -0.11)">
      <defs>
       <path id="HelveticaNeue-48" d="M 499 4570 
L 499 0 
L 1107 0 
L 1107 2093 
L 3514 2093 
L 3514 0 
L 4122 0 
L 4122 4570 
L 3514 4570 
L 3514 2605 
L 1107 2605 
L 1107 4570 
L 499 4570 
z
" transform="scale(0.015625)"/>
       <path id="HelveticaNeue-57" d="M 4627 0 
L 5850 4570 
L 5242 4570 
L 4314 768 
L 4301 768 
L 3290 4570 
L 2630 4570 
L 1606 768 
L 1594 768 
L 698 4570 
L 77 4570 
L 1248 0 
L 1882 0 
L 2938 3840 
L 2950 3840 
L 3994 0 
L 4627 0 
z
" transform="scale(0.015625)"/>
       <path id="HelveticaNeue-45" d="M 499 4570 
L 499 0 
L 3674 0 
L 3674 512 
L 1107 512 
L 1107 2093 
L 3482 2093 
L 3482 2605 
L 1107 2605 
L 1107 4058 
L 3654 4058 
L 3654 4570 
L 499 4570 
z
" transform="scale(0.015625)"/>
       <path id="HelveticaNeue-52" d="M 499 4570 
L 499 0 
L 1107 0 
L 1107 1952 
L 2592 1952 
Q 2816 1952 2950 1885 
Q 3085 1818 3168 1706 
Q 3251 1594 3289 1443 
Q 3328 1293 3354 1126 
Q 3386 960 3392 787 
Q 3398 614 3404 464 
Q 3411 314 3433 192 
Q 3456 70 3520 0 
L 4198 0 
Q 4102 115 4054 265 
Q 4006 416 3980 582 
Q 3955 749 3948 921 
Q 3942 1094 3930 1261 
Q 3910 1427 3875 1580 
Q 3840 1734 3766 1859 
Q 3693 1984 3568 2073 
Q 3443 2163 3245 2202 
L 3245 2214 
Q 3661 2330 3849 2643 
Q 4038 2957 4038 3373 
Q 4038 3930 3670 4250 
Q 3302 4570 2650 4570 
L 499 4570 
z
M 2374 2464 
L 1107 2464 
L 1107 4058 
L 2618 4058 
Q 3046 4058 3238 3840 
Q 3430 3622 3430 3277 
Q 3430 3027 3344 2870 
Q 3258 2714 3114 2621 
Q 2970 2528 2778 2496 
Q 2586 2464 2374 2464 
z
" transform="scale(0.015625)"/>
       <path id="HelveticaNeue-25" d="M 1069 3251 
Q 1069 3398 1088 3561 
Q 1107 3725 1168 3862 
Q 1229 4000 1337 4093 
Q 1446 4186 1626 4186 
Q 1811 4186 1916 4093 
Q 2022 4000 2080 3862 
Q 2138 3725 2154 3561 
Q 2170 3398 2170 3258 
Q 2170 3110 2150 2944 
Q 2131 2778 2070 2640 
Q 2010 2502 1901 2412 
Q 1792 2323 1606 2323 
Q 1427 2323 1321 2416 
Q 1216 2509 1158 2646 
Q 1101 2784 1085 2947 
Q 1069 3110 1069 3251 
z
M 589 3238 
Q 589 2976 643 2745 
Q 698 2515 819 2342 
Q 941 2170 1139 2070 
Q 1338 1971 1626 1971 
Q 1907 1971 2099 2080 
Q 2291 2189 2416 2365 
Q 2541 2541 2595 2774 
Q 2650 3008 2650 3258 
Q 2650 3520 2602 3753 
Q 2554 3987 2435 4160 
Q 2317 4333 2121 4435 
Q 1926 4538 1626 4538 
Q 1331 4538 1132 4432 
Q 934 4326 812 4147 
Q 691 3968 640 3734 
Q 589 3501 589 3238 
z
M 4230 1203 
Q 4230 1350 4249 1513 
Q 4269 1677 4329 1814 
Q 4390 1952 4499 2045 
Q 4608 2138 4787 2138 
Q 4973 2138 5078 2045 
Q 5184 1952 5241 1814 
Q 5299 1677 5315 1513 
Q 5331 1350 5331 1210 
Q 5331 1062 5312 896 
Q 5293 730 5232 592 
Q 5171 454 5062 364 
Q 4954 275 4768 275 
Q 4589 275 4483 368 
Q 4378 461 4320 598 
Q 4262 736 4246 899 
Q 4230 1062 4230 1203 
z
M 3750 1190 
Q 3750 928 3804 697 
Q 3859 467 3980 297 
Q 4102 128 4300 29 
Q 4499 -70 4787 -70 
Q 5069 -70 5261 35 
Q 5453 141 5577 317 
Q 5702 493 5756 726 
Q 5811 960 5811 1210 
Q 5811 1472 5763 1705 
Q 5715 1939 5596 2112 
Q 5478 2285 5283 2387 
Q 5088 2490 4787 2490 
Q 4493 2490 4294 2384 
Q 4096 2278 3974 2099 
Q 3853 1920 3801 1686 
Q 3750 1453 3750 1190 
z
M 4646 4621 
L 1203 -134 
L 1754 -134 
L 5190 4621 
L 4646 4621 
z
" transform="scale(0.015625)"/>
       <path id="HelveticaNeue-77" d="M 3686 0 
L 4742 3309 
L 4179 3309 
L 3437 602 
L 3424 602 
L 2733 3309 
L 2138 3309 
L 1472 602 
L 1459 602 
L 710 3309 
L 109 3309 
L 1171 0 
L 1760 0 
L 2426 2630 
L 2438 2630 
L 3110 0 
L 3686 0 
z
" transform="scale(0.015625)"/>
       <path id="HelveticaNeue-62" d="M 429 4570 
L 429 0 
L 973 0 
L 973 442 
L 986 442 
Q 1075 294 1206 195 
Q 1338 96 1485 38 
Q 1632 -19 1782 -44 
Q 1933 -70 2054 -70 
Q 2432 -70 2717 64 
Q 3002 198 3190 432 
Q 3379 666 3472 979 
Q 3565 1293 3565 1645 
Q 3565 1997 3469 2310 
Q 3373 2624 3184 2864 
Q 2995 3104 2710 3245 
Q 2426 3386 2042 3386 
Q 1696 3386 1408 3261 
Q 1120 3136 986 2861 
L 973 2861 
L 973 4570 
L 429 4570 
z
M 2989 1683 
Q 2989 1440 2937 1209 
Q 2886 979 2771 800 
Q 2656 621 2467 512 
Q 2278 403 1997 403 
Q 1715 403 1516 508 
Q 1318 614 1193 787 
Q 1069 960 1011 1187 
Q 954 1414 954 1658 
Q 954 1888 1008 2112 
Q 1062 2336 1184 2512 
Q 1306 2688 1498 2797 
Q 1690 2906 1965 2906 
Q 2227 2906 2422 2803 
Q 2618 2701 2742 2528 
Q 2867 2355 2928 2134 
Q 2989 1914 2989 1683 
z
" transform="scale(0.015625)"/>
      </defs>
      <use xlink:href="#HelveticaNeue-48"/>
      <use xlink:href="#HelveticaNeue-69" transform="translate(72.199982 0)"/>
      <use xlink:href="#HelveticaNeue-6e" transform="translate(94.399979 0)"/>
      <use xlink:href="#HelveticaNeue-64" transform="translate(149.999969 0)"/>
      <use xlink:href="#HelveticaNeue-69" transform="translate(209.299957 0)"/>
      <use xlink:href="#HelveticaNeue-20" transform="translate(231.499954 0)"/>
      <use xlink:href="#HelveticaNeue-57" transform="translate(259.299942 0)"/>
      <use xlink:href="#HelveticaNeue-45" transform="translate(351.899933 0)"/>
      <use xlink:href="#HelveticaNeue-52" transform="translate(412.999924 0)"/>
      <use xlink:href="#HelveticaNeue-20" transform="translate(481.499908 0)"/>
      <use xlink:href="#HelveticaNeue-28" transform="translate(509.299896 0)"/>
      <use xlink:href="#HelveticaNeue-25" transform="translate(535.19989 0)"/>
      <use xlink:href="#HelveticaNeue-2c" transform="translate(635.199875 0)"/>
      <use xlink:href="#HelveticaNeue-20" transform="translate(662.999863 0)"/>
      <use xlink:href="#HelveticaNeue-6c" transform="translate(690.79985 0)"/>
      <use xlink:href="#HelveticaNeue-6f" transform="translate(712.999847 0)"/>
      <use xlink:href="#HelveticaNeue-77" transform="translate(770.399841 0)"/>
      <use xlink:href="#HelveticaNeue-65" transform="translate(846.199829 0)"/>
      <use xlink:href="#HelveticaNeue-72" transform="translate(899.899826 0)"/>
      <use xlink:href="#HelveticaNeue-20" transform="translate(933.199814 0)"/>
      <use xlink:href="#HelveticaNeue-69" transform="translate(960.999802 0)"/>
      <use xlink:href="#HelveticaNeue-73" transform="translate(983.199799 0)"/>
      <use xlink:href="#HelveticaNeue-20" transform="translate(1033.199783 0)"/>
      <use xlink:href="#HelveticaNeue-62" transform="translate(1060.999771 0)"/>
      <use xlink:href="#HelveticaNeue-65" transform="translate(1120.299759 0)"/>
      <use xlink:href="#HelveticaNeue-74" transform="translate(1173.999756 0)"/>
      <use xlink:href="#HelveticaNeue-74" transform="translate(1205.499741 0)"/>
      <use xlink:href="#HelveticaNeue-65" transform="translate(1236.999725 0)"/>
      <use xlink:href="#HelveticaNeue-72" transform="translate(1290.699722 0)"/>
      <use xlink:href="#HelveticaNeue-29" transform="translate(1323.99971 0)"/>
     </g>
    </g>
   </g>
   <g id="patch_3">
    <path d="M 63.36 455.4 
L 858.96 455.4 
" style="fill: none; stroke: #d8d4cc; stroke-width: 0.8; stroke-linejoin: miter; stroke-linecap: square"/>
   </g>
   <g id="PathCollection_1">
    <defs>
     <path id="m0688cc297b" d="M 0 7.071068 
C 1.875269 7.071068 3.673985 6.326016 5 5 
C 6.326016 3.673985 7.071068 1.875269 7.071068 0 
C 7.071068 -1.875269 6.326016 -3.673985 5 -5 
C 3.673985 -6.326016 1.875269 -7.071068 0 -7.071068 
C -1.875269 -7.071068 -3.673985 -6.326016 -5 -5 
C -6.326016 -3.673985 -7.071068 -1.875269 -7.071068 0 
C -7.071068 1.875269 -6.326016 3.673985 -5 5 
C -3.673985 6.326016 -1.875269 7.071068 0 7.071068 
z
" style="stroke: #ffffff; stroke-width: 1.4"/>
    </defs>
    <g clip-path="url(#p9131b8ce91)">
     <use xlink:href="#m0688cc297b" x="547.74676" y="151.645304" style="fill: #b45309; stroke: #ffffff; stroke-width: 1.4"/>
    </g>
   </g>
   <g id="PathCollection_2">
    <g clip-path="url(#p9131b8ce91)">
     <use xlink:href="#m0688cc297b" x="534.188532" y="269.623565" style="fill: #b45309; stroke: #ffffff; stroke-width: 1.4"/>
    </g>
   </g>
   <g id="PathCollection_3">
    <defs>
     <path id="me659cbcd1f" d="M -0 10 
L 10 0 
L 0 -10 
L -10 -0 
z
" style="stroke: #ffffff; stroke-width: 1.4"/>
    </defs>
    <g clip-path="url(#p9131b8ce91)">
     <use xlink:href="#me659cbcd1f" x="550.479674" y="334.432957" style="fill: #1a2b5c; stroke: #ffffff; stroke-width: 1.4"/>
    </g>
   </g>
   <g id="PathCollection_4">
    <g clip-path="url(#p9131b8ce91)">
     <use xlink:href="#me659cbcd1f" x="437.770794" y="309.736174" style="fill: #1a2b5c; stroke: #ffffff; stroke-width: 1.4"/>
    </g>
   </g>
   <g id="PathCollection_5">
    <g clip-path="url(#p9131b8ce91)">
     <use xlink:href="#me659cbcd1f" x="146.422567" y="219.443478" style="fill: #1a2b5c; stroke: #ffffff; stroke-width: 1.4"/>
    </g>
   </g>
   <g id="PathCollection_6">
    <defs>
     <path id="m25e524a4e1" d="M -0 10 
L 10 0 
L 0 -10 
L -10 -0 
z
" style="stroke: #ffffff; stroke-width: 1.4"/>
    </defs>
    <g clip-path="url(#p9131b8ce91)">
     <use xlink:href="#m25e524a4e1" x="709.966965" y="230.454783" style="fill: #6b7280; stroke: #ffffff; stroke-width: 1.4"/>
    </g>
   </g>
   <g id="PathCollection_7">
    <g clip-path="url(#p9131b8ce91)">
     <use xlink:href="#m25e524a4e1" x="716.929691" y="241.466087" style="fill: #6b7280; stroke: #ffffff; stroke-width: 1.4"/>
    </g>
   </g>
   <g id="PathCollection_8">
    <g clip-path="url(#p9131b8ce91)">
     <use xlink:href="#m0688cc297b" x="550.479674" y="189.555652" style="fill: #b45309; stroke: #ffffff; stroke-width: 1.4"/>
    </g>
   </g>
   <g id="PathCollection_9">
    <g clip-path="url(#p9131b8ce91)">
     <use xlink:href="#m0688cc297b" x="371.840326" y="338.994783" style="fill: #b45309; stroke: #ffffff; stroke-width: 1.4"/>
    </g>
   </g>
   <g id="text_15">
    <!-- Sarvam Saaras v3 -->
    <g style="fill: #111827" transform="translate(557.74676 144.359718) scale(0.105 -0.105)">
     <defs>
      <path id="HelveticaNeue-76" d="M 1901 0 
L 3110 3309 
L 2541 3309 
L 1638 550 
L 1626 550 
L 698 3309 
L 90 3309 
L 1318 0 
L 1901 0 
z
" transform="scale(0.015625)"/>
     </defs>
     <use xlink:href="#HelveticaNeue-53"/>
     <use xlink:href="#HelveticaNeue-61" transform="translate(64.799988 0)"/>
     <use xlink:href="#HelveticaNeue-72" transform="translate(118.499985 0)"/>
     <use xlink:href="#HelveticaNeue-76" transform="translate(151.799973 0)"/>
     <use xlink:href="#HelveticaNeue-61" transform="translate(201.799957 0)"/>
     <use xlink:href="#HelveticaNeue-6d" transform="translate(255.499954 0)"/>
     <use xlink:href="#HelveticaNeue-20" transform="translate(340.799942 0)"/>
     <use xlink:href="#HelveticaNeue-53" transform="translate(368.59993 0)"/>
     <use xlink:href="#HelveticaNeue-61" transform="translate(433.399918 0)"/>
     <use xlink:href="#HelveticaNeue-61" transform="translate(487.099915 0)"/>
     <use xlink:href="#HelveticaNeue-72" transform="translate(540.799911 0)"/>
     <use xlink:href="#HelveticaNeue-61" transform="translate(574.099899 0)"/>
     <use xlink:href="#HelveticaNeue-73" transform="translate(627.799896 0)"/>
     <use xlink:href="#HelveticaNeue-20" transform="translate(677.799881 0)"/>
     <use xlink:href="#HelveticaNeue-76" transform="translate(705.599869 0)"/>
     <use xlink:href="#HelveticaNeue-33" transform="translate(755.599854 0)"/>
    </g>
   </g>
   <g id="text_16">
    <!-- Sarvam Saarika v2.5 -->
    <g style="fill: #111827" transform="translate(544.188532 280.337979) scale(0.105 -0.105)">
     <defs>
      <path id="HelveticaNeue-6b" d="M 442 4570 
L 442 0 
L 986 0 
L 986 1254 
L 1498 1728 
L 2630 0 
L 3322 0 
L 1914 2106 
L 3226 3309 
L 2496 3309 
L 986 1862 
L 986 4570 
L 442 4570 
z
" transform="scale(0.015625)"/>
     </defs>
     <use xlink:href="#HelveticaNeue-53"/>
     <use xlink:href="#HelveticaNeue-61" transform="translate(64.799988 0)"/>
     <use xlink:href="#HelveticaNeue-72" transform="translate(118.499985 0)"/>
     <use xlink:href="#HelveticaNeue-76" transform="translate(151.799973 0)"/>
     <use xlink:href="#HelveticaNeue-61" transform="translate(201.799957 0)"/>
     <use xlink:href="#HelveticaNeue-6d" transform="translate(255.499954 0)"/>
     <use xlink:href="#HelveticaNeue-20" transform="translate(340.799942 0)"/>
     <use xlink:href="#HelveticaNeue-53" transform="translate(368.59993 0)"/>
     <use xlink:href="#HelveticaNeue-61" transform="translate(433.399918 0)"/>
     <use xlink:href="#HelveticaNeue-61" transform="translate(487.099915 0)"/>
     <use xlink:href="#HelveticaNeue-72" transform="translate(540.799911 0)"/>
     <use xlink:href="#HelveticaNeue-69" transform="translate(574.099899 0)"/>
     <use xlink:href="#HelveticaNeue-6b" transform="translate(596.299896 0)"/>
     <use xlink:href="#HelveticaNeue-61" transform="translate(648.19989 0)"/>
     <use xlink:href="#HelveticaNeue-20" transform="translate(701.899887 0)"/>
     <use xlink:href="#HelveticaNeue-76" transform="translate(729.699875 0)"/>
     <use xlink:href="#HelveticaNeue-32" transform="translate(779.69986 0)"/>
     <use xlink:href="#HelveticaNeue-2e" transform="translate(835.29985 0)"/>
     <use xlink:href="#HelveticaNeue-35" transform="translate(863.099838 0)"/>
    </g>
   </g>
   <g id="text_17">
    <!-- Voxtral Small -->
    <g style="fill: #111827" transform="translate(562.479674 337.147371) scale(0.105 -0.105)">
     <defs>
      <path id="HelveticaNeue-56" d="M 2298 0 
L 3923 4570 
L 3290 4570 
L 1971 608 
L 1958 608 
L 653 4570 
L 0 4570 
L 1606 0 
L 2298 0 
z
" transform="scale(0.015625)"/>
      <path id="HelveticaNeue-78" d="M 1299 1741 
L 58 0 
L 717 0 
L 1638 1370 
L 2560 0 
L 3258 0 
L 1978 1786 
L 3117 3309 
L 2464 3309 
L 1638 2150 
L 845 3309 
L 147 3309 
L 1299 1741 
z
" transform="scale(0.015625)"/>
     </defs>
     <use xlink:href="#HelveticaNeue-56"/>
     <use xlink:href="#HelveticaNeue-6f" transform="translate(55.599991 0)"/>
     <use xlink:href="#HelveticaNeue-78" transform="translate(112.999985 0)"/>
     <use xlink:href="#HelveticaNeue-74" transform="translate(164.799973 0)"/>
     <use xlink:href="#HelveticaNeue-72" transform="translate(196.299957 0)"/>
     <use xlink:href="#HelveticaNeue-61" transform="translate(229.599945 0)"/>
     <use xlink:href="#HelveticaNeue-6c" transform="translate(283.299942 0)"/>
     <use xlink:href="#HelveticaNeue-20" transform="translate(305.499939 0)"/>
     <use xlink:href="#HelveticaNeue-53" transform="translate(333.299927 0)"/>
     <use xlink:href="#HelveticaNeue-6d" transform="translate(398.099915 0)"/>
     <use xlink:href="#HelveticaNeue-61" transform="translate(483.399902 0)"/>
     <use xlink:href="#HelveticaNeue-6c" transform="translate(537.099899 0)"/>
     <use xlink:href="#HelveticaNeue-6c" transform="translate(559.299896 0)"/>
    </g>
   </g>
   <g id="text_18">
    <!-- Voxtral Mini -->
    <g style="fill: #111827" transform="translate(449.770794 306.450588) scale(0.105 -0.105)">
     <defs>
      <path id="HelveticaNeue-4d" d="M 512 4570 
L 512 0 
L 1088 0 
L 1088 3802 
L 1101 3802 
L 2528 0 
L 3046 0 
L 4474 3802 
L 4486 3802 
L 4486 0 
L 5062 0 
L 5062 4570 
L 4230 4570 
L 2784 730 
L 1344 4570 
L 512 4570 
z
" transform="scale(0.015625)"/>
     </defs>
     <use xlink:href="#HelveticaNeue-56"/>
     <use xlink:href="#HelveticaNeue-6f" transform="translate(55.599991 0)"/>
     <use xlink:href="#HelveticaNeue-78" transform="translate(112.999985 0)"/>
     <use xlink:href="#HelveticaNeue-74" transform="translate(164.799973 0)"/>
     <use xlink:href="#HelveticaNeue-72" transform="translate(196.299957 0)"/>
     <use xlink:href="#HelveticaNeue-61" transform="translate(229.599945 0)"/>
     <use xlink:href="#HelveticaNeue-6c" transform="translate(283.299942 0)"/>
     <use xlink:href="#HelveticaNeue-20" transform="translate(305.499939 0)"/>
     <use xlink:href="#HelveticaNeue-4d" transform="translate(333.299927 0)"/>
     <use xlink:href="#HelveticaNeue-69" transform="translate(420.399918 0)"/>
     <use xlink:href="#HelveticaNeue-6e" transform="translate(442.599915 0)"/>
     <use xlink:href="#HelveticaNeue-69" transform="translate(498.199905 0)"/>
    </g>
   </g>
   <g id="text_19">
    <!-- IndicWhisper (OSS) -->
    <g style="fill: #111827" transform="translate(158.422567 222.246486) scale(0.105 -0.105)">
     <defs>
      <path id="HelveticaNeue-49" d="M 525 4570 
L 525 0 
L 1133 0 
L 1133 4570 
L 525 4570 
z
" transform="scale(0.015625)"/>
      <path id="HelveticaNeue-4f" d="M 851 2285 
Q 851 2630 940 2966 
Q 1030 3302 1222 3571 
Q 1414 3840 1715 4003 
Q 2016 4166 2432 4166 
Q 2848 4166 3149 4003 
Q 3450 3840 3642 3571 
Q 3834 3302 3923 2966 
Q 4013 2630 4013 2285 
Q 4013 1939 3923 1603 
Q 3834 1267 3642 998 
Q 3450 730 3149 566 
Q 2848 403 2432 403 
Q 2016 403 1715 566 
Q 1414 730 1222 998 
Q 1030 1267 940 1603 
Q 851 1939 851 2285 
z
M 243 2285 
Q 243 1818 380 1386 
Q 518 954 793 621 
Q 1069 288 1478 93 
Q 1888 -102 2432 -102 
Q 2976 -102 3385 93 
Q 3795 288 4070 621 
Q 4346 954 4483 1386 
Q 4621 1818 4621 2285 
Q 4621 2752 4483 3184 
Q 4346 3616 4070 3949 
Q 3795 4282 3385 4480 
Q 2976 4678 2432 4678 
Q 1888 4678 1478 4480 
Q 1069 4282 793 3949 
Q 518 3616 380 3184 
Q 243 2752 243 2285 
z
" transform="scale(0.015625)"/>
     </defs>
     <use xlink:href="#HelveticaNeue-49"/>
     <use xlink:href="#HelveticaNeue-6e" transform="translate(25.899994 0)"/>
     <use xlink:href="#HelveticaNeue-64" transform="translate(81.499985 0)"/>
     <use xlink:href="#HelveticaNeue-69" transform="translate(140.799973 0)"/>
     <use xlink:href="#HelveticaNeue-63" transform="translate(162.999969 0)"/>
     <use xlink:href="#HelveticaNeue-57" transform="translate(216.699966 0)"/>
     <use xlink:href="#HelveticaNeue-68" transform="translate(309.299957 0)"/>
     <use xlink:href="#HelveticaNeue-69" transform="translate(364.899948 0)"/>
     <use xlink:href="#HelveticaNeue-73" transform="translate(387.099945 0)"/>
     <use xlink:href="#HelveticaNeue-70" transform="translate(437.09993 0)"/>
     <use xlink:href="#HelveticaNeue-65" transform="translate(496.399918 0)"/>
     <use xlink:href="#HelveticaNeue-72" transform="translate(550.099915 0)"/>
     <use xlink:href="#HelveticaNeue-20" transform="translate(583.399902 0)"/>
     <use xlink:href="#HelveticaNeue-28" transform="translate(611.19989 0)"/>
     <use xlink:href="#HelveticaNeue-4f" transform="translate(637.099884 0)"/>
     <use xlink:href="#HelveticaNeue-53" transform="translate(713.099869 0)"/>
     <use xlink:href="#HelveticaNeue-53" transform="translate(777.899857 0)"/>
     <use xlink:href="#HelveticaNeue-29" transform="translate(842.699844 0)"/>
    </g>
   </g>
   <g id="text_20">
    <!-- Google STT -->
    <g style="fill: #111827" transform="translate(721.966965 223.194626) scale(0.105 -0.105)">
     <defs>
      <path id="HelveticaNeue-47" d="M 3917 570 
L 4077 0 
L 4461 0 
L 4461 2406 
L 2458 2406 
L 2458 1894 
L 3917 1894 
Q 3930 1581 3834 1309 
Q 3738 1037 3549 835 
Q 3360 634 3085 518 
Q 2810 403 2451 403 
Q 2067 403 1776 553 
Q 1485 704 1286 957 
Q 1088 1210 985 1539 
Q 883 1869 883 2227 
Q 883 2592 972 2941 
Q 1062 3290 1251 3562 
Q 1440 3834 1737 4000 
Q 2035 4166 2451 4166 
Q 2707 4166 2934 4105 
Q 3162 4045 3341 3923 
Q 3520 3802 3641 3613 
Q 3763 3424 3808 3162 
L 4416 3162 
Q 4352 3565 4176 3849 
Q 4000 4134 3741 4320 
Q 3482 4506 3152 4592 
Q 2822 4678 2451 4678 
Q 1907 4678 1500 4476 
Q 1094 4275 822 3936 
Q 550 3597 412 3145 
Q 275 2694 275 2195 
Q 275 1747 422 1331 
Q 570 915 851 595 
Q 1133 275 1536 86 
Q 1939 -102 2451 -102 
Q 2854 -102 3251 54 
Q 3648 211 3917 570 
z
" transform="scale(0.015625)"/>
      <path id="HelveticaNeue-54" d="M 1536 4058 
L 1536 0 
L 2144 0 
L 2144 4058 
L 3667 4058 
L 3667 4570 
L 13 4570 
L 13 4058 
L 1536 4058 
z
" transform="scale(0.015625)"/>
     </defs>
     <use xlink:href="#HelveticaNeue-47"/>
     <use xlink:href="#HelveticaNeue-6f" transform="translate(75.899994 0)"/>
     <use xlink:href="#HelveticaNeue-6f" transform="translate(133.299988 0)"/>
     <use xlink:href="#HelveticaNeue-67" transform="translate(190.699982 0)"/>
     <use xlink:href="#HelveticaNeue-6c" transform="translate(248.099976 0)"/>
     <use xlink:href="#HelveticaNeue-65" transform="translate(270.299973 0)"/>
     <use xlink:href="#HelveticaNeue-20" transform="translate(323.999969 0)"/>
     <use xlink:href="#HelveticaNeue-53" transform="translate(351.799957 0)"/>
     <use xlink:href="#HelveticaNeue-54" transform="translate(416.599945 0)"/>
     <use xlink:href="#HelveticaNeue-54" transform="translate(473.999939 0)"/>
    </g>
   </g>
   <g id="text_21">
    <!-- Azure STT -->
    <g style="fill: #111827" transform="translate(728.929691 256.180501) scale(0.105 -0.105)">
     <defs>
      <path id="HelveticaNeue-41" d="M 1286 1888 
L 2061 4019 
L 2074 4019 
L 2835 1888 
L 1286 1888 
z
M 1741 4570 
L -38 0 
L 582 0 
L 1094 1376 
L 3027 1376 
L 3526 0 
L 4198 0 
L 2413 4570 
L 1741 4570 
z
" transform="scale(0.015625)"/>
      <path id="HelveticaNeue-7a" d="M 141 416 
L 141 0 
L 2931 0 
L 2931 480 
L 819 480 
L 2842 2938 
L 2842 3309 
L 269 3309 
L 269 2829 
L 2138 2829 
L 141 416 
z
" transform="scale(0.015625)"/>
     </defs>
     <use xlink:href="#HelveticaNeue-41"/>
     <use xlink:href="#HelveticaNeue-7a" transform="translate(64.799988 0)"/>
     <use xlink:href="#HelveticaNeue-75" transform="translate(112.799973 0)"/>
     <use xlink:href="#HelveticaNeue-72" transform="translate(168.399963 0)"/>
     <use xlink:href="#HelveticaNeue-65" transform="translate(199.949951 0)"/>
     <use xlink:href="#HelveticaNeue-20" transform="translate(253.649948 0)"/>
     <use xlink:href="#HelveticaNeue-53" transform="translate(281.449936 0)"/>
     <use xlink:href="#HelveticaNeue-54" transform="translate(346.249924 0)"/>
     <use xlink:href="#HelveticaNeue-54" transform="translate(403.649918 0)"/>
    </g>
   </g>
   <g id="text_22">
    <!-- OpenAI Whisper v3 -->
    <g style="fill: #111827" transform="translate(562.479674 192.35866) scale(0.105 -0.105)">
     <use xlink:href="#HelveticaNeue-4f"/>
     <use xlink:href="#HelveticaNeue-70" transform="translate(75.999985 0)"/>
     <use xlink:href="#HelveticaNeue-65" transform="translate(135.299973 0)"/>
     <use xlink:href="#HelveticaNeue-6e" transform="translate(188.999969 0)"/>
     <use xlink:href="#HelveticaNeue-41" transform="translate(244.59996 0)"/>
     <use xlink:href="#HelveticaNeue-49" transform="translate(309.399948 0)"/>
     <use xlink:href="#HelveticaNeue-20" transform="translate(335.299942 0)"/>
     <use xlink:href="#HelveticaNeue-57" transform="translate(363.09993 0)"/>
     <use xlink:href="#HelveticaNeue-68" transform="translate(455.699921 0)"/>
     <use xlink:href="#HelveticaNeue-69" transform="translate(511.299911 0)"/>
     <use xlink:href="#HelveticaNeue-73" transform="translate(533.499908 0)"/>
     <use xlink:href="#HelveticaNeue-70" transform="translate(583.499893 0)"/>
     <use xlink:href="#HelveticaNeue-65" transform="translate(642.799881 0)"/>
     <use xlink:href="#HelveticaNeue-72" transform="translate(696.499878 0)"/>
     <use xlink:href="#HelveticaNeue-20" transform="translate(729.799866 0)"/>
     <use xlink:href="#HelveticaNeue-76" transform="translate(757.599854 0)"/>
     <use xlink:href="#HelveticaNeue-33" transform="translate(807.599838 0)"/>
    </g>
   </g>
   <g id="text_23">
    <!-- Soniox v4 -->
    <g style="fill: #111827" transform="translate(383.840326 341.709197) scale(0.105 -0.105)">
     <defs>
      <path id="HelveticaNeue-34" d="M 2170 1542 
L 646 1542 
L 2157 3763 
L 2170 3763 
L 2170 1542 
z
M 2682 1542 
L 2682 4538 
L 2246 4538 
L 179 1587 
L 179 1062 
L 2170 1062 
L 2170 0 
L 2682 0 
L 2682 1062 
L 3296 1062 
L 3296 1542 
L 2682 1542 
z
" transform="scale(0.015625)"/>
     </defs>
     <use xlink:href="#HelveticaNeue-53"/>
     <use xlink:href="#HelveticaNeue-6f" transform="translate(64.799988 0)"/>
     <use xlink:href="#HelveticaNeue-6e" transform="translate(122.199982 0)"/>
     <use xlink:href="#HelveticaNeue-69" transform="translate(177.799973 0)"/>
     <use xlink:href="#HelveticaNeue-6f" transform="translate(199.999969 0)"/>
     <use xlink:href="#HelveticaNeue-78" transform="translate(257.399963 0)"/>
     <use xlink:href="#HelveticaNeue-20" transform="translate(309.199951 0)"/>
     <use xlink:href="#HelveticaNeue-76" transform="translate(336.999939 0)"/>
     <use xlink:href="#HelveticaNeue-34" transform="translate(386.999924 0)"/>
    </g>
   </g>
   <g id="legend_1">
    <g id="line2d_33">
     <path d="M 708.659063 107.049844 
L 719.159063 107.049844 
L 729.659063 107.049844 
" style="fill: none; stroke: #ffffff; stroke-width: 1.5; stroke-linecap: square"/>
     <defs>
      <path id="mae32b93e0e" d="M -0 7.778175 
L 7.778175 0 
L 0 -7.778175 
L -7.778175 -0 
z
" style="stroke: #ffffff; stroke-linejoin: miter"/>
     </defs>
     <g>
      <use xlink:href="#mae32b93e0e" x="719.159063" y="107.049844" style="fill: #1a2b5c; stroke: #ffffff; stroke-linejoin: miter"/>
     </g>
    </g>
    <g id="text_24">
     <!-- Third-party / paper -->
     <g style="fill: #111827" transform="translate(738.059062 110.724844) scale(0.105 -0.105)">
      <defs>
       <path id="HelveticaNeue-2d" d="M 320 2035 
L 320 1523 
L 2170 1523 
L 2170 2035 
L 320 2035 
z
" transform="scale(0.015625)"/>
       <path id="HelveticaNeue-79" d="M 1709 -442 
Q 1613 -685 1520 -851 
Q 1427 -1018 1315 -1123 
Q 1203 -1229 1065 -1277 
Q 928 -1325 749 -1325 
Q 653 -1325 557 -1312 
Q 461 -1299 371 -1267 
L 371 -768 
Q 442 -800 534 -822 
Q 627 -845 691 -845 
Q 858 -845 970 -765 
Q 1082 -685 1139 -538 
L 1363 19 
L 51 3309 
L 666 3309 
L 1632 602 
L 1645 602 
L 2573 3309 
L 3149 3309 
L 1709 -442 
z
" transform="scale(0.015625)"/>
       <path id="HelveticaNeue-2f" d="M 1779 4678 
L -109 -102 
L 352 -102 
L 2246 4678 
L 1779 4678 
z
" transform="scale(0.015625)"/>
      </defs>
      <use xlink:href="#HelveticaNeue-54"/>
      <use xlink:href="#HelveticaNeue-68" transform="translate(57.399994 0)"/>
      <use xlink:href="#HelveticaNeue-69" transform="translate(112.999985 0)"/>
      <use xlink:href="#HelveticaNeue-72" transform="translate(135.199982 0)"/>
      <use xlink:href="#HelveticaNeue-64" transform="translate(166.749969 0)"/>
      <use xlink:href="#HelveticaNeue-2d" transform="translate(226.049957 0)"/>
      <use xlink:href="#HelveticaNeue-70" transform="translate(264.949951 0)"/>
      <use xlink:href="#HelveticaNeue-61" transform="translate(324.249939 0)"/>
      <use xlink:href="#HelveticaNeue-72" transform="translate(377.949936 0)"/>
      <use xlink:href="#HelveticaNeue-74" transform="translate(411.249924 0)"/>
      <use xlink:href="#HelveticaNeue-79" transform="translate(442.749908 0)"/>
      <use xlink:href="#HelveticaNeue-20" transform="translate(492.749893 0)"/>
      <use xlink:href="#HelveticaNeue-2f" transform="translate(520.549881 0)"/>
      <use xlink:href="#HelveticaNeue-20" transform="translate(553.849869 0)"/>
      <use xlink:href="#HelveticaNeue-70" transform="translate(581.649857 0)"/>
      <use xlink:href="#HelveticaNeue-61" transform="translate(640.949844 0)"/>
      <use xlink:href="#HelveticaNeue-70" transform="translate(694.649841 0)"/>
      <use xlink:href="#HelveticaNeue-65" transform="translate(753.949829 0)"/>
      <use xlink:href="#HelveticaNeue-72" transform="translate(807.649826 0)"/>
     </g>
    </g>
    <g id="line2d_34">
     <path d="M 708.659063 122.148516 
L 719.159063 122.148516 
L 729.659063 122.148516 
" style="fill: none; stroke: #ffffff; stroke-width: 1.5; stroke-linecap: square"/>
     <defs>
      <path id="m5883f8f39a" d="M -0 7.778175 
L 7.778175 0 
L 0 -7.778175 
L -7.778175 -0 
z
" style="stroke: #ffffff; stroke-linejoin: miter"/>
     </defs>
     <g>
      <use xlink:href="#m5883f8f39a" x="719.159063" y="122.148516" style="fill: #6b7280; stroke: #ffffff; stroke-linejoin: miter"/>
     </g>
    </g>
    <g id="text_25">
     <!-- Third-party (2023, stale) -->
     <g style="fill: #111827" transform="translate(738.059062 125.823516) scale(0.105 -0.105)">
      <use xlink:href="#HelveticaNeue-54"/>
      <use xlink:href="#HelveticaNeue-68" transform="translate(57.399994 0)"/>
      <use xlink:href="#HelveticaNeue-69" transform="translate(112.999985 0)"/>
      <use xlink:href="#HelveticaNeue-72" transform="translate(135.199982 0)"/>
      <use xlink:href="#HelveticaNeue-64" transform="translate(166.749969 0)"/>
      <use xlink:href="#HelveticaNeue-2d" transform="translate(226.049957 0)"/>
      <use xlink:href="#HelveticaNeue-70" transform="translate(264.949951 0)"/>
      <use xlink:href="#HelveticaNeue-61" transform="translate(324.249939 0)"/>
      <use xlink:href="#HelveticaNeue-72" transform="translate(377.949936 0)"/>
      <use xlink:href="#HelveticaNeue-74" transform="translate(411.249924 0)"/>
      <use xlink:href="#HelveticaNeue-79" transform="translate(442.749908 0)"/>
      <use xlink:href="#HelveticaNeue-20" transform="translate(492.749893 0)"/>
      <use xlink:href="#HelveticaNeue-28" transform="translate(520.549881 0)"/>
      <use xlink:href="#HelveticaNeue-32" transform="translate(546.449875 0)"/>
      <use xlink:href="#HelveticaNeue-30" transform="translate(602.049866 0)"/>
      <use xlink:href="#HelveticaNeue-32" transform="translate(657.649857 0)"/>
      <use xlink:href="#HelveticaNeue-33" transform="translate(713.249847 0)"/>
      <use xlink:href="#HelveticaNeue-2c" transform="translate(768.849838 0)"/>
      <use xlink:href="#HelveticaNeue-20" transform="translate(796.649826 0)"/>
      <use xlink:href="#HelveticaNeue-73" transform="translate(824.449814 0)"/>
      <use xlink:href="#HelveticaNeue-74" transform="translate(874.449799 0)"/>
      <use xlink:href="#HelveticaNeue-61" transform="translate(905.949783 0)"/>
      <use xlink:href="#HelveticaNeue-6c" transform="translate(959.64978 0)"/>
      <use xlink:href="#HelveticaNeue-65" transform="translate(981.849777 0)"/>
      <use xlink:href="#HelveticaNeue-29" transform="translate(1035.549774 0)"/>
     </g>
    </g>
    <g id="line2d_35">
     <path d="M 708.659063 137.153672 
L 719.159063 137.153672 
L 729.659063 137.153672 
" style="fill: none; stroke: #ffffff; stroke-width: 1.5; stroke-linecap: square"/>
     <defs>
      <path id="m44f69a1a68" d="M 0 5.5 
C 1.458617 5.5 2.857689 4.920485 3.889087 3.889087 
C 4.920485 2.857689 5.5 1.458617 5.5 0 
C 5.5 -1.458617 4.920485 -2.857689 3.889087 -3.889087 
C 2.857689 -4.920485 1.458617 -5.5 0 -5.5 
C -1.458617 -5.5 -2.857689 -4.920485 -3.889087 -3.889087 
C -4.920485 -2.857689 -5.5 -1.458617 -5.5 0 
C -5.5 1.458617 -4.920485 2.857689 -3.889087 3.889087 
C -2.857689 4.920485 -1.458617 5.5 0 5.5 
z
" style="stroke: #ffffff"/>
     </defs>
     <g>
      <use xlink:href="#m44f69a1a68" x="719.159063" y="137.153672" style="fill: #b45309; stroke: #ffffff"/>
     </g>
    </g>
    <g id="text_26">
     <!-- Vendor self-reported -->
     <g style="fill: #111827" transform="translate(738.059062 140.828672) scale(0.105 -0.105)">
      <defs>
       <path id="HelveticaNeue-66" d="M 634 2829 
L 634 0 
L 1178 0 
L 1178 2829 
L 1818 2829 
L 1818 3309 
L 1178 3309 
L 1178 3770 
Q 1178 3987 1286 4064 
Q 1395 4141 1594 4141 
Q 1664 4141 1747 4131 
Q 1830 4122 1901 4096 
L 1901 4570 
Q 1824 4595 1725 4608 
Q 1626 4621 1549 4621 
Q 1101 4621 867 4413 
Q 634 4205 634 3802 
L 634 3309 
L 77 3309 
L 77 2829 
L 634 2829 
z
" transform="scale(0.015625)"/>
      </defs>
      <use xlink:href="#HelveticaNeue-56"/>
      <use xlink:href="#HelveticaNeue-65" transform="translate(55.599991 0)"/>
      <use xlink:href="#HelveticaNeue-6e" transform="translate(109.299988 0)"/>
      <use xlink:href="#HelveticaNeue-64" transform="translate(164.899979 0)"/>
      <use xlink:href="#HelveticaNeue-6f" transform="translate(224.199966 0)"/>
      <use xlink:href="#HelveticaNeue-72" transform="translate(281.59996 0)"/>
      <use xlink:href="#HelveticaNeue-20" transform="translate(314.899948 0)"/>
      <use xlink:href="#HelveticaNeue-73" transform="translate(342.699936 0)"/>
      <use xlink:href="#HelveticaNeue-65" transform="translate(392.699921 0)"/>
      <use xlink:href="#HelveticaNeue-6c" transform="translate(446.399918 0)"/>
      <use xlink:href="#HelveticaNeue-66" transform="translate(468.599915 0)"/>
      <use xlink:href="#HelveticaNeue-2d" transform="translate(498.199905 0)"/>
      <use xlink:href="#HelveticaNeue-72" transform="translate(537.099899 0)"/>
      <use xlink:href="#HelveticaNeue-65" transform="translate(568.649887 0)"/>
      <use xlink:href="#HelveticaNeue-70" transform="translate(622.349884 0)"/>
      <use xlink:href="#HelveticaNeue-6f" transform="translate(681.649872 0)"/>
      <use xlink:href="#HelveticaNeue-72" transform="translate(739.049866 0)"/>
      <use xlink:href="#HelveticaNeue-74" transform="translate(772.349854 0)"/>
      <use xlink:href="#HelveticaNeue-65" transform="translate(803.849838 0)"/>
      <use xlink:href="#HelveticaNeue-64" transform="translate(857.549835 0)"/>
     </g>
    </g>
   </g>
  </g>
  <g id="text_27">
   <!-- Cheap and accurate in Hindi: pick one -->
   <g style="fill: #111827" transform="translate(7.2 24.7425) scale(0.24 -0.24)">
    <defs>
     <path id="HelveticaNeue-3a" d="M 1242 2598 
L 1242 3309 
L 531 3309 
L 531 2598 
L 1242 2598 
z
M 531 710 
L 531 0 
L 1242 0 
L 1242 710 
L 531 710 
z
" transform="scale(0.015625)"/>
    </defs>
    <use xlink:href="#HelveticaNeue-43"/>
    <use xlink:href="#HelveticaNeue-68" transform="translate(72.199982 0)"/>
    <use xlink:href="#HelveticaNeue-65" transform="translate(127.799973 0)"/>
    <use xlink:href="#HelveticaNeue-61" transform="translate(181.499969 0)"/>
    <use xlink:href="#HelveticaNeue-70" transform="translate(235.199966 0)"/>
    <use xlink:href="#HelveticaNeue-20" transform="translate(294.499954 0)"/>
    <use xlink:href="#HelveticaNeue-61" transform="translate(322.299942 0)"/>
    <use xlink:href="#HelveticaNeue-6e" transform="translate(375.999939 0)"/>
    <use xlink:href="#HelveticaNeue-64" transform="translate(431.59993 0)"/>
    <use xlink:href="#HelveticaNeue-20" transform="translate(490.899918 0)"/>
    <use xlink:href="#HelveticaNeue-61" transform="translate(518.699905 0)"/>
    <use xlink:href="#HelveticaNeue-63" transform="translate(572.399902 0)"/>
    <use xlink:href="#HelveticaNeue-63" transform="translate(626.099899 0)"/>
    <use xlink:href="#HelveticaNeue-75" transform="translate(679.799896 0)"/>
    <use xlink:href="#HelveticaNeue-72" transform="translate(735.399887 0)"/>
    <use xlink:href="#HelveticaNeue-61" transform="translate(768.699875 0)"/>
    <use xlink:href="#HelveticaNeue-74" transform="translate(822.399872 0)"/>
    <use xlink:href="#HelveticaNeue-65" transform="translate(853.899857 0)"/>
    <use xlink:href="#HelveticaNeue-20" transform="translate(907.599854 0)"/>
    <use xlink:href="#HelveticaNeue-69" transform="translate(935.399841 0)"/>
    <use xlink:href="#HelveticaNeue-6e" transform="translate(957.599838 0)"/>
    <use xlink:href="#HelveticaNeue-20" transform="translate(1013.199829 0)"/>
    <use xlink:href="#HelveticaNeue-48" transform="translate(1040.999817 0)"/>
    <use xlink:href="#HelveticaNeue-69" transform="translate(1113.199799 0)"/>
    <use xlink:href="#HelveticaNeue-6e" transform="translate(1135.399796 0)"/>
    <use xlink:href="#HelveticaNeue-64" transform="translate(1190.999786 0)"/>
    <use xlink:href="#HelveticaNeue-69" transform="translate(1250.299774 0)"/>
    <use xlink:href="#HelveticaNeue-3a" transform="translate(1272.499771 0)"/>
    <use xlink:href="#HelveticaNeue-20" transform="translate(1300.299759 0)"/>
    <use xlink:href="#HelveticaNeue-70" transform="translate(1328.099747 0)"/>
    <use xlink:href="#HelveticaNeue-69" transform="translate(1387.399734 0)"/>
    <use xlink:href="#HelveticaNeue-63" transform="translate(1409.599731 0)"/>
    <use xlink:href="#HelveticaNeue-6b" transform="translate(1463.299728 0)"/>
    <use xlink:href="#HelveticaNeue-20" transform="translate(1515.199722 0)"/>
    <use xlink:href="#HelveticaNeue-6f" transform="translate(1542.99971 0)"/>
    <use xlink:href="#HelveticaNeue-6e" transform="translate(1600.399704 0)"/>
    <use xlink:href="#HelveticaNeue-65" transform="translate(1655.999695 0)"/>
   </g>
  </g>
  <g id="text_28">
   <!-- Streaming STT for voice agents. WER is FLEURS or Kathbath where available; Western providers' Hindi numbers are mostly unpublished or from 2023. -->
   <g style="fill: #4b5563" transform="translate(7.2 51.802187) scale(0.13 -0.13)">
    <defs>
     <path id="HelveticaNeue-46" d="M 499 4570 
L 499 0 
L 1107 0 
L 1107 2093 
L 3206 2093 
L 3206 2605 
L 1107 2605 
L 1107 4058 
L 3501 4058 
L 3501 4570 
L 499 4570 
z
" transform="scale(0.015625)"/>
     <path id="HelveticaNeue-4c" d="M 499 4570 
L 499 0 
L 3526 0 
L 3526 512 
L 1107 512 
L 1107 4570 
L 499 4570 
z
" transform="scale(0.015625)"/>
     <path id="HelveticaNeue-4b" d="M 499 4570 
L 499 0 
L 1107 0 
L 1107 1600 
L 1869 2310 
L 3520 0 
L 4288 0 
L 2285 2726 
L 4211 4570 
L 3424 4570 
L 1107 2291 
L 1107 4570 
L 499 4570 
z
" transform="scale(0.015625)"/>
     <path id="HelveticaNeue-27" d="M 672 4570 
L 672 2918 
L 1107 2918 
L 1107 4570 
L 672 4570 
z
" transform="scale(0.015625)"/>
    </defs>
    <use xlink:href="#HelveticaNeue-53"/>
    <use xlink:href="#HelveticaNeue-74" transform="translate(64.799988 0)"/>
    <use xlink:href="#HelveticaNeue-72" transform="translate(96.299973 0)"/>
    <use xlink:href="#HelveticaNeue-65" transform="translate(127.84996 0)"/>
    <use xlink:href="#HelveticaNeue-61" transform="translate(181.549957 0)"/>
    <use xlink:href="#HelveticaNeue-6d" transform="translate(235.249954 0)"/>
    <use xlink:href="#HelveticaNeue-69" transform="translate(320.549942 0)"/>
    <use xlink:href="#HelveticaNeue-6e" transform="translate(342.749939 0)"/>
    <use xlink:href="#HelveticaNeue-67" transform="translate(398.34993 0)"/>
    <use xlink:href="#HelveticaNeue-20" transform="translate(455.749924 0)"/>
    <use xlink:href="#HelveticaNeue-53" transform="translate(483.549911 0)"/>
    <use xlink:href="#HelveticaNeue-54" transform="translate(548.349899 0)"/>
    <use xlink:href="#HelveticaNeue-54" transform="translate(605.749893 0)"/>
    <use xlink:href="#HelveticaNeue-20" transform="translate(663.149887 0)"/>
    <use xlink:href="#HelveticaNeue-66" transform="translate(690.949875 0)"/>
    <use xlink:href="#HelveticaNeue-6f" transform="translate(720.549866 0)"/>
    <use xlink:href="#HelveticaNeue-72" transform="translate(777.94986 0)"/>
    <use xlink:href="#HelveticaNeue-20" transform="translate(811.249847 0)"/>
    <use xlink:href="#HelveticaNeue-76" transform="translate(839.049835 0)"/>
    <use xlink:href="#HelveticaNeue-6f" transform="translate(889.04982 0)"/>
    <use xlink:href="#HelveticaNeue-69" transform="translate(946.449814 0)"/>
    <use xlink:href="#HelveticaNeue-63" transform="translate(968.649811 0)"/>
    <use xlink:href="#HelveticaNeue-65" transform="translate(1022.349808 0)"/>
    <use xlink:href="#HelveticaNeue-20" transform="translate(1076.049805 0)"/>
    <use xlink:href="#HelveticaNeue-61" transform="translate(1103.849792 0)"/>
    <use xlink:href="#HelveticaNeue-67" transform="translate(1157.549789 0)"/>
    <use xlink:href="#HelveticaNeue-65" transform="translate(1214.949783 0)"/>
    <use xlink:href="#HelveticaNeue-6e" transform="translate(1268.64978 0)"/>
    <use xlink:href="#HelveticaNeue-74" transform="translate(1324.249771 0)"/>
    <use xlink:href="#HelveticaNeue-73" transform="translate(1355.749756 0)"/>
    <use xlink:href="#HelveticaNeue-2e" transform="translate(1405.749741 0)"/>
    <use xlink:href="#HelveticaNeue-20" transform="translate(1433.549728 0)"/>
    <use xlink:href="#HelveticaNeue-57" transform="translate(1461.349716 0)"/>
    <use xlink:href="#HelveticaNeue-45" transform="translate(1553.949707 0)"/>
    <use xlink:href="#HelveticaNeue-52" transform="translate(1615.049698 0)"/>
    <use xlink:href="#HelveticaNeue-20" transform="translate(1683.549683 0)"/>
    <use xlink:href="#HelveticaNeue-69" transform="translate(1711.34967 0)"/>
    <use xlink:href="#HelveticaNeue-73" transform="translate(1733.549667 0)"/>
    <use xlink:href="#HelveticaNeue-20" transform="translate(1783.549652 0)"/>
    <use xlink:href="#HelveticaNeue-46" transform="translate(1811.34964 0)"/>
    <use xlink:href="#HelveticaNeue-4c" transform="translate(1868.749634 0)"/>
    <use xlink:href="#HelveticaNeue-45" transform="translate(1924.349625 0)"/>
    <use xlink:href="#HelveticaNeue-55" transform="translate(1985.449615 0)"/>
    <use xlink:href="#HelveticaNeue-52" transform="translate(2057.649597 0)"/>
    <use xlink:href="#HelveticaNeue-53" transform="translate(2126.149582 0)"/>
    <use xlink:href="#HelveticaNeue-20" transform="translate(2190.94957 0)"/>
    <use xlink:href="#HelveticaNeue-6f" transform="translate(2218.749557 0)"/>
    <use xlink:href="#HelveticaNeue-72" transform="translate(2276.149551 0)"/>
    <use xlink:href="#HelveticaNeue-20" transform="translate(2309.449539 0)"/>
    <use xlink:href="#HelveticaNeue-4b" transform="translate(2337.249527 0)"/>
    <use xlink:href="#HelveticaNeue-61" transform="translate(2403.949524 0)"/>
    <use xlink:href="#HelveticaNeue-74" transform="translate(2457.649521 0)"/>
    <use xlink:href="#HelveticaNeue-68" transform="translate(2489.149506 0)"/>
    <use xlink:href="#HelveticaNeue-62" transform="translate(2544.749496 0)"/>
    <use xlink:href="#HelveticaNeue-61" transform="translate(2604.049484 0)"/>
    <use xlink:href="#HelveticaNeue-74" transform="translate(2657.749481 0)"/>
    <use xlink:href="#HelveticaNeue-68" transform="translate(2689.249466 0)"/>
    <use xlink:href="#HelveticaNeue-20" transform="translate(2744.849457 0)"/>
    <use xlink:href="#HelveticaNeue-77" transform="translate(2772.649445 0)"/>
    <use xlink:href="#HelveticaNeue-68" transform="translate(2848.449432 0)"/>
    <use xlink:href="#HelveticaNeue-65" transform="translate(2904.049423 0)"/>
    <use xlink:href="#HelveticaNeue-72" transform="translate(2957.74942 0)"/>
    <use xlink:href="#HelveticaNeue-65" transform="translate(2989.299408 0)"/>
    <use xlink:href="#HelveticaNeue-20" transform="translate(3042.999405 0)"/>
    <use xlink:href="#HelveticaNeue-61" transform="translate(3070.799393 0)"/>
    <use xlink:href="#HelveticaNeue-76" transform="translate(3124.49939 0)"/>
    <use xlink:href="#HelveticaNeue-61" transform="translate(3174.499374 0)"/>
    <use xlink:href="#HelveticaNeue-69" transform="translate(3228.199371 0)"/>
    <use xlink:href="#HelveticaNeue-6c" transform="translate(3250.399368 0)"/>
    <use xlink:href="#HelveticaNeue-61" transform="translate(3272.599365 0)"/>
    <use xlink:href="#HelveticaNeue-62" transform="translate(3326.299362 0)"/>
    <use xlink:href="#HelveticaNeue-6c" transform="translate(3385.59935 0)"/>
    <use xlink:href="#HelveticaNeue-65" transform="translate(3407.799347 0)"/>
    <use xlink:href="#HelveticaNeue-3b" transform="translate(3461.499344 0)"/>
    <use xlink:href="#HelveticaNeue-20" transform="translate(3489.299332 0)"/>
    <use xlink:href="#HelveticaNeue-57" transform="translate(3517.099319 0)"/>
    <use xlink:href="#HelveticaNeue-65" transform="translate(3603.94931 0)"/>
    <use xlink:href="#HelveticaNeue-73" transform="translate(3657.649307 0)"/>
    <use xlink:href="#HelveticaNeue-74" transform="translate(3707.649292 0)"/>
    <use xlink:href="#HelveticaNeue-65" transform="translate(3739.149277 0)"/>
    <use xlink:href="#HelveticaNeue-72" transform="translate(3792.849274 0)"/>
    <use xlink:href="#HelveticaNeue-6e" transform="translate(3827.899261 0)"/>
    <use xlink:href="#HelveticaNeue-20" transform="translate(3883.499252 0)"/>
    <use xlink:href="#HelveticaNeue-70" transform="translate(3911.29924 0)"/>
    <use xlink:href="#HelveticaNeue-72" transform="translate(3970.599228 0)"/>
    <use xlink:href="#HelveticaNeue-6f" transform="translate(4002.149216 0)"/>
    <use xlink:href="#HelveticaNeue-76" transform="translate(4059.54921 0)"/>
    <use xlink:href="#HelveticaNeue-69" transform="translate(4109.549194 0)"/>
    <use xlink:href="#HelveticaNeue-64" transform="translate(4131.749191 0)"/>
    <use xlink:href="#HelveticaNeue-65" transform="translate(4191.049179 0)"/>
    <use xlink:href="#HelveticaNeue-72" transform="translate(4244.749176 0)"/>
    <use xlink:href="#HelveticaNeue-73" transform="translate(4278.049164 0)"/>
    <use xlink:href="#HelveticaNeue-27" transform="translate(4328.049149 0)"/>
    <use xlink:href="#HelveticaNeue-20" transform="translate(4355.849136 0)"/>
    <use xlink:href="#HelveticaNeue-48" transform="translate(4383.649124 0)"/>
    <use xlink:href="#HelveticaNeue-69" transform="translate(4455.849106 0)"/>
    <use xlink:href="#HelveticaNeue-6e" transform="translate(4478.049103 0)"/>
    <use xlink:href="#HelveticaNeue-64" transform="translate(4533.649094 0)"/>
    <use xlink:href="#HelveticaNeue-69" transform="translate(4592.949081 0)"/>
    <use xlink:href="#HelveticaNeue-20" transform="translate(4615.149078 0)"/>
    <use xlink:href="#HelveticaNeue-6e" transform="translate(4642.949066 0)"/>
    <use xlink:href="#HelveticaNeue-75" transform="translate(4698.549057 0)"/>
    <use xlink:href="#HelveticaNeue-6d" transform="translate(4754.149048 0)"/>
    <use xlink:href="#HelveticaNeue-62" transform="translate(4839.449036 0)"/>
    <use xlink:href="#HelveticaNeue-65" transform="translate(4898.749023 0)"/>
    <use xlink:href="#HelveticaNeue-72" transform="translate(4952.44902 0)"/>
    <use xlink:href="#HelveticaNeue-73" transform="translate(4985.749008 0)"/>
    <use xlink:href="#HelveticaNeue-20" transform="translate(5035.748993 0)"/>
    <use xlink:href="#HelveticaNeue-61" transform="translate(5063.548981 0)"/>
    <use xlink:href="#HelveticaNeue-72" transform="translate(5117.248978 0)"/>
    <use xlink:href="#HelveticaNeue-65" transform="translate(5148.798965 0)"/>
    <use xlink:href="#HelveticaNeue-20" transform="translate(5202.498962 0)"/>
    <use xlink:href="#HelveticaNeue-6d" transform="translate(5230.29895 0)"/>
    <use xlink:href="#HelveticaNeue-6f" transform="translate(5315.598938 0)"/>
    <use xlink:href="#HelveticaNeue-73" transform="translate(5372.998932 0)"/>
    <use xlink:href="#HelveticaNeue-74" transform="translate(5422.998917 0)"/>
    <use xlink:href="#HelveticaNeue-6c" transform="translate(5454.498901 0)"/>
    <use xlink:href="#HelveticaNeue-79" transform="translate(5476.698898 0)"/>
    <use xlink:href="#HelveticaNeue-20" transform="translate(5526.698883 0)"/>
    <use xlink:href="#HelveticaNeue-75" transform="translate(5554.498871 0)"/>
    <use xlink:href="#HelveticaNeue-6e" transform="translate(5610.098862 0)"/>
    <use xlink:href="#HelveticaNeue-70" transform="translate(5665.698853 0)"/>
    <use xlink:href="#HelveticaNeue-75" transform="translate(5724.99884 0)"/>
    <use xlink:href="#HelveticaNeue-62" transform="translate(5780.598831 0)"/>
    <use xlink:href="#HelveticaNeue-6c" transform="translate(5839.898819 0)"/>
    <use xlink:href="#HelveticaNeue-69" transform="translate(5862.098816 0)"/>
    <use xlink:href="#HelveticaNeue-73" transform="translate(5884.298813 0)"/>
    <use xlink:href="#HelveticaNeue-68" transform="translate(5934.298798 0)"/>
    <use xlink:href="#HelveticaNeue-65" transform="translate(5989.898788 0)"/>
    <use xlink:href="#HelveticaNeue-64" transform="translate(6043.598785 0)"/>
    <use xlink:href="#HelveticaNeue-20" transform="translate(6102.898773 0)"/>
    <use xlink:href="#HelveticaNeue-6f" transform="translate(6130.698761 0)"/>
    <use xlink:href="#HelveticaNeue-72" transform="translate(6188.098755 0)"/>
    <use xlink:href="#HelveticaNeue-20" transform="translate(6221.398743 0)"/>
    <use xlink:href="#HelveticaNeue-66" transform="translate(6249.19873 0)"/>
    <use xlink:href="#HelveticaNeue-72" transform="translate(6278.798721 0)"/>
    <use xlink:href="#HelveticaNeue-6f" transform="translate(6310.348709 0)"/>
    <use xlink:href="#HelveticaNeue-6d" transform="translate(6367.748703 0)"/>
    <use xlink:href="#HelveticaNeue-20" transform="translate(6453.048691 0)"/>
    <use xlink:href="#HelveticaNeue-32" transform="translate(6480.848679 0)"/>
    <use xlink:href="#HelveticaNeue-30" transform="translate(6536.448669 0)"/>
    <use xlink:href="#HelveticaNeue-32" transform="translate(6592.04866 0)"/>
    <use xlink:href="#HelveticaNeue-33" transform="translate(6647.648651 0)"/>
    <use xlink:href="#HelveticaNeue-2e" transform="translate(6703.248642 0)"/>
   </g>
  </g>
  <g id="text_29">
   <!-- Source: Vendor docs + AI4Bharat Vistaar + Mistral Voxtral arXiv + ElevenLabs/Soniox vendor claims. Captured 2026-05-24. See evidence/research/stt.md. -->
   <g style="fill: #7a7670" transform="translate(7.2 510.326719) scale(0.09 -0.09)">
    <defs>
     <path id="HelveticaNeue-2b" d="M 2138 1837 
L 2138 3238 
L 1702 3238 
L 1702 1837 
L 307 1837 
L 307 1402 
L 1702 1402 
L 1702 0 
L 2138 0 
L 2138 1402 
L 3533 1402 
L 3533 1837 
L 2138 1837 
z
" transform="scale(0.015625)"/>
     <path id="HelveticaNeue-42" d="M 1107 2605 
L 1107 4058 
L 2323 4058 
Q 2522 4058 2698 4035 
Q 2874 4013 3008 3936 
Q 3142 3859 3219 3718 
Q 3296 3578 3296 3334 
Q 3296 2970 3069 2787 
Q 2842 2605 2323 2605 
L 1107 2605 
z
M 499 4570 
L 499 0 
L 2707 0 
Q 3046 0 3305 112 
Q 3565 224 3741 406 
Q 3917 589 4006 825 
Q 4096 1062 4096 1312 
Q 4096 1734 3872 2028 
Q 3648 2323 3226 2413 
L 3226 2426 
Q 3552 2554 3728 2819 
Q 3904 3085 3904 3450 
Q 3904 3795 3747 4032 
Q 3590 4269 3366 4403 
Q 3264 4467 3120 4499 
Q 2976 4531 2809 4547 
Q 2643 4563 2473 4566 
Q 2304 4570 2157 4570 
L 499 4570 
z
M 1107 512 
L 1107 2093 
L 2496 2093 
Q 2688 2093 2867 2057 
Q 3046 2022 3184 1936 
Q 3322 1850 3405 1702 
Q 3488 1555 3488 1331 
Q 3488 947 3261 729 
Q 3034 512 2630 512 
L 1107 512 
z
" transform="scale(0.015625)"/>
     <path id="HelveticaNeue-58" d="M 1587 2349 
L 0 0 
L 678 0 
L 1946 1888 
L 3174 0 
L 3917 0 
L 2310 2349 
L 3821 4570 
L 3142 4570 
L 1952 2784 
L 813 4570 
L 83 4570 
L 1587 2349 
z
" transform="scale(0.015625)"/>
    </defs>
    <use xlink:href="#HelveticaNeue-53"/>
    <use xlink:href="#HelveticaNeue-6f" transform="translate(64.799988 0)"/>
    <use xlink:href="#HelveticaNeue-75" transform="translate(122.199982 0)"/>
    <use xlink:href="#HelveticaNeue-72" transform="translate(177.799973 0)"/>
    <use xlink:href="#HelveticaNeue-63" transform="translate(209.34996 0)"/>
    <use xlink:href="#HelveticaNeue-65" transform="translate(263.049957 0)"/>
    <use xlink:href="#HelveticaNeue-3a" transform="translate(316.749954 0)"/>
    <use xlink:href="#HelveticaNeue-20" transform="translate(344.549942 0)"/>
    <use xlink:href="#HelveticaNeue-56" transform="translate(372.34993 0)"/>
    <use xlink:href="#HelveticaNeue-65" transform="translate(427.949921 0)"/>
    <use xlink:href="#HelveticaNeue-6e" transform="translate(481.649918 0)"/>
    <use xlink:href="#HelveticaNeue-64" transform="translate(537.249908 0)"/>
    <use xlink:href="#HelveticaNeue-6f" transform="translate(596.549896 0)"/>
    <use xlink:href="#HelveticaNeue-72" transform="translate(653.94989 0)"/>
    <use xlink:href="#HelveticaNeue-20" transform="translate(687.249878 0)"/>
    <use xlink:href="#HelveticaNeue-64" transform="translate(715.049866 0)"/>
    <use xlink:href="#HelveticaNeue-6f" transform="translate(774.349854 0)"/>
    <use xlink:href="#HelveticaNeue-63" transform="translate(831.749847 0)"/>
    <use xlink:href="#HelveticaNeue-73" transform="translate(885.449844 0)"/>
    <use xlink:href="#HelveticaNeue-20" transform="translate(935.449829 0)"/>
    <use xlink:href="#HelveticaNeue-2b" transform="translate(963.249817 0)"/>
    <use xlink:href="#HelveticaNeue-20" transform="translate(1023.249802 0)"/>
    <use xlink:href="#HelveticaNeue-41" transform="translate(1051.049789 0)"/>
    <use xlink:href="#HelveticaNeue-49" transform="translate(1115.849777 0)"/>
    <use xlink:href="#HelveticaNeue-34" transform="translate(1141.749771 0)"/>
    <use xlink:href="#HelveticaNeue-42" transform="translate(1197.349762 0)"/>
    <use xlink:href="#HelveticaNeue-68" transform="translate(1265.849747 0)"/>
    <use xlink:href="#HelveticaNeue-61" transform="translate(1321.449738 0)"/>
    <use xlink:href="#HelveticaNeue-72" transform="translate(1375.149734 0)"/>
    <use xlink:href="#HelveticaNeue-61" transform="translate(1408.449722 0)"/>
    <use xlink:href="#HelveticaNeue-74" transform="translate(1462.149719 0)"/>
    <use xlink:href="#HelveticaNeue-20" transform="translate(1493.649704 0)"/>
    <use xlink:href="#HelveticaNeue-56" transform="translate(1521.449692 0)"/>
    <use xlink:href="#HelveticaNeue-69" transform="translate(1580.799683 0)"/>
    <use xlink:href="#HelveticaNeue-73" transform="translate(1602.99968 0)"/>
    <use xlink:href="#HelveticaNeue-74" transform="translate(1652.999664 0)"/>
    <use xlink:href="#HelveticaNeue-61" transform="translate(1684.499649 0)"/>
    <use xlink:href="#HelveticaNeue-61" transform="translate(1738.199646 0)"/>
    <use xlink:href="#HelveticaNeue-72" transform="translate(1791.899643 0)"/>
    <use xlink:href="#HelveticaNeue-20" transform="translate(1825.199631 0)"/>
    <use xlink:href="#HelveticaNeue-2b" transform="translate(1852.999619 0)"/>
    <use xlink:href="#HelveticaNeue-20" transform="translate(1912.999603 0)"/>
    <use xlink:href="#HelveticaNeue-4d" transform="translate(1940.799591 0)"/>
    <use xlink:href="#HelveticaNeue-69" transform="translate(2027.899582 0)"/>
    <use xlink:href="#HelveticaNeue-73" transform="translate(2050.099579 0)"/>
    <use xlink:href="#HelveticaNeue-74" transform="translate(2100.099564 0)"/>
    <use xlink:href="#HelveticaNeue-72" transform="translate(2131.599548 0)"/>
    <use xlink:href="#HelveticaNeue-61" transform="translate(2164.899536 0)"/>
    <use xlink:href="#HelveticaNeue-6c" transform="translate(2218.599533 0)"/>
    <use xlink:href="#HelveticaNeue-20" transform="translate(2240.79953 0)"/>
    <use xlink:href="#HelveticaNeue-56" transform="translate(2268.599518 0)"/>
    <use xlink:href="#HelveticaNeue-6f" transform="translate(2324.199509 0)"/>
    <use xlink:href="#HelveticaNeue-78" transform="translate(2381.599503 0)"/>
    <use xlink:href="#HelveticaNeue-74" transform="translate(2433.39949 0)"/>
    <use xlink:href="#HelveticaNeue-72" transform="translate(2464.899475 0)"/>
    <use xlink:href="#HelveticaNeue-61" transform="translate(2498.199463 0)"/>
    <use xlink:href="#HelveticaNeue-6c" transform="translate(2551.89946 0)"/>
    <use xlink:href="#HelveticaNeue-20" transform="translate(2574.099457 0)"/>
    <use xlink:href="#HelveticaNeue-61" transform="translate(2601.899445 0)"/>
    <use xlink:href="#HelveticaNeue-72" transform="translate(2655.599442 0)"/>
    <use xlink:href="#HelveticaNeue-58" transform="translate(2688.899429 0)"/>
    <use xlink:href="#HelveticaNeue-69" transform="translate(2749.99942 0)"/>
    <use xlink:href="#HelveticaNeue-76" transform="translate(2772.199417 0)"/>
    <use xlink:href="#HelveticaNeue-20" transform="translate(2822.199402 0)"/>
    <use xlink:href="#HelveticaNeue-2b" transform="translate(2849.99939 0)"/>
    <use xlink:href="#HelveticaNeue-20" transform="translate(2909.999374 0)"/>
    <use xlink:href="#HelveticaNeue-45" transform="translate(2937.799362 0)"/>
    <use xlink:href="#HelveticaNeue-6c" transform="translate(2998.899353 0)"/>
    <use xlink:href="#HelveticaNeue-65" transform="translate(3021.09935 0)"/>
    <use xlink:href="#HelveticaNeue-76" transform="translate(3074.799347 0)"/>
    <use xlink:href="#HelveticaNeue-65" transform="translate(3124.799332 0)"/>
    <use xlink:href="#HelveticaNeue-6e" transform="translate(3178.499329 0)"/>
    <use xlink:href="#HelveticaNeue-4c" transform="translate(3234.099319 0)"/>
    <use xlink:href="#HelveticaNeue-61" transform="translate(3289.69931 0)"/>
    <use xlink:href="#HelveticaNeue-62" transform="translate(3343.399307 0)"/>
    <use xlink:href="#HelveticaNeue-73" transform="translate(3402.699295 0)"/>
    <use xlink:href="#HelveticaNeue-2f" transform="translate(3452.69928 0)"/>
    <use xlink:href="#HelveticaNeue-53" transform="translate(3485.999268 0)"/>
    <use xlink:href="#HelveticaNeue-6f" transform="translate(3550.799255 0)"/>
    <use xlink:href="#HelveticaNeue-6e" transform="translate(3608.199249 0)"/>
    <use xlink:href="#HelveticaNeue-69" transform="translate(3663.79924 0)"/>
    <use xlink:href="#HelveticaNeue-6f" transform="translate(3685.999237 0)"/>
    <use xlink:href="#HelveticaNeue-78" transform="translate(3743.399231 0)"/>
    <use xlink:href="#HelveticaNeue-20" transform="translate(3795.199219 0)"/>
    <use xlink:href="#HelveticaNeue-76" transform="translate(3822.999207 0)"/>
    <use xlink:href="#HelveticaNeue-65" transform="translate(3872.999191 0)"/>
    <use xlink:href="#HelveticaNeue-6e" transform="translate(3926.699188 0)"/>
    <use xlink:href="#HelveticaNeue-64" transform="translate(3982.299179 0)"/>
    <use xlink:href="#HelveticaNeue-6f" transform="translate(4041.599167 0)"/>
    <use xlink:href="#HelveticaNeue-72" transform="translate(4098.999161 0)"/>
    <use xlink:href="#HelveticaNeue-20" transform="translate(4132.299149 0)"/>
    <use xlink:href="#HelveticaNeue-63" transform="translate(4160.099136 0)"/>
    <use xlink:href="#HelveticaNeue-6c" transform="translate(4213.799133 0)"/>
    <use xlink:href="#HelveticaNeue-61" transform="translate(4235.99913 0)"/>
    <use xlink:href="#HelveticaNeue-69" transform="translate(4289.699127 0)"/>
    <use xlink:href="#HelveticaNeue-6d" transform="translate(4311.899124 0)"/>
    <use xlink:href="#HelveticaNeue-73" transform="translate(4397.199112 0)"/>
    <use xlink:href="#HelveticaNeue-2e" transform="translate(4447.199097 0)"/>
    <use xlink:href="#HelveticaNeue-20" transform="translate(4474.999084 0)"/>
    <use xlink:href="#HelveticaNeue-43" transform="translate(4502.799072 0)"/>
    <use xlink:href="#HelveticaNeue-61" transform="translate(4574.999054 0)"/>
    <use xlink:href="#HelveticaNeue-70" transform="translate(4628.699051 0)"/>
    <use xlink:href="#HelveticaNeue-74" transform="translate(4687.999039 0)"/>
    <use xlink:href="#HelveticaNeue-75" transform="translate(4719.499023 0)"/>
    <use xlink:href="#HelveticaNeue-72" transform="translate(4775.099014 0)"/>
    <use xlink:href="#HelveticaNeue-65" transform="translate(4806.649002 0)"/>
    <use xlink:href="#HelveticaNeue-64" transform="translate(4860.348999 0)"/>
    <use xlink:href="#HelveticaNeue-20" transform="translate(4919.648987 0)"/>
    <use xlink:href="#HelveticaNeue-32" transform="translate(4947.448975 0)"/>
    <use xlink:href="#HelveticaNeue-30" transform="translate(5003.048965 0)"/>
    <use xlink:href="#HelveticaNeue-32" transform="translate(5058.648956 0)"/>
    <use xlink:href="#HelveticaNeue-36" transform="translate(5114.248947 0)"/>
    <use xlink:href="#HelveticaNeue-2d" transform="translate(5169.848938 0)"/>
    <use xlink:href="#HelveticaNeue-30" transform="translate(5208.748932 0)"/>
    <use xlink:href="#HelveticaNeue-35" transform="translate(5264.348923 0)"/>
    <use xlink:href="#HelveticaNeue-2d" transform="translate(5319.948914 0)"/>
    <use xlink:href="#HelveticaNeue-32" transform="translate(5358.848907 0)"/>
    <use xlink:href="#HelveticaNeue-34" transform="translate(5414.448898 0)"/>
    <use xlink:href="#HelveticaNeue-2e" transform="translate(5470.048889 0)"/>
    <use xlink:href="#HelveticaNeue-20" transform="translate(5497.848877 0)"/>
    <use xlink:href="#HelveticaNeue-53" transform="translate(5525.648865 0)"/>
    <use xlink:href="#HelveticaNeue-65" transform="translate(5590.448853 0)"/>
    <use xlink:href="#HelveticaNeue-65" transform="translate(5644.148849 0)"/>
    <use xlink:href="#HelveticaNeue-20" transform="translate(5697.848846 0)"/>
    <use xlink:href="#HelveticaNeue-65" transform="translate(5725.648834 0)"/>
    <use xlink:href="#HelveticaNeue-76" transform="translate(5779.348831 0)"/>
    <use xlink:href="#HelveticaNeue-69" transform="translate(5829.348816 0)"/>
    <use xlink:href="#HelveticaNeue-64" transform="translate(5851.548813 0)"/>
    <use xlink:href="#HelveticaNeue-65" transform="translate(5910.848801 0)"/>
    <use xlink:href="#HelveticaNeue-6e" transform="translate(5964.548798 0)"/>
    <use xlink:href="#HelveticaNeue-63" transform="translate(6020.148788 0)"/>
    <use xlink:href="#HelveticaNeue-65" transform="translate(6073.848785 0)"/>
    <use xlink:href="#HelveticaNeue-2f" transform="translate(6127.548782 0)"/>
    <use xlink:href="#HelveticaNeue-72" transform="translate(6160.84877 0)"/>
    <use xlink:href="#HelveticaNeue-65" transform="translate(6192.398758 0)"/>
    <use xlink:href="#HelveticaNeue-73" transform="translate(6246.098755 0)"/>
    <use xlink:href="#HelveticaNeue-65" transform="translate(6296.09874 0)"/>
    <use xlink:href="#HelveticaNeue-61" transform="translate(6349.798737 0)"/>
    <use xlink:href="#HelveticaNeue-72" transform="translate(6403.498734 0)"/>
    <use xlink:href="#HelveticaNeue-63" transform="translate(6435.048721 0)"/>
    <use xlink:href="#HelveticaNeue-68" transform="translate(6488.748718 0)"/>
    <use xlink:href="#HelveticaNeue-2f" transform="translate(6544.348709 0)"/>
    <use xlink:href="#HelveticaNeue-73" transform="translate(6577.648697 0)"/>
    <use xlink:href="#HelveticaNeue-74" transform="translate(6627.648682 0)"/>
    <use xlink:href="#HelveticaNeue-74" transform="translate(6659.148666 0)"/>
    <use xlink:href="#HelveticaNeue-2e" transform="translate(6690.648651 0)"/>
    <use xlink:href="#HelveticaNeue-6d" transform="translate(6718.448639 0)"/>
    <use xlink:href="#HelveticaNeue-64" transform="translate(6803.748627 0)"/>
    <use xlink:href="#HelveticaNeue-2e" transform="translate(6863.048615 0)"/>
   </g>
  </g>
 </g>
 <defs>
  <clipPath id="p9131b8ce91">
   <rect x="63.36" y="93.6" width="795.6" height="361.8"/>
  </clipPath>
 </defs>
</svg>
